M48
;GenerationSoftware,Autodesk,EAGLE,9.6.1*%
;CreationDate,2023-06-14T03:22:51Z*%
FMAT,2
ICI,OFF
METRIC,TZ,000.000
T11C0.610
T10C0.800
T9C0.813
T8C0.914
T7C1.016
T6C1.118
T5C1.397
T4C2.540
T3C2.667
T2C3.175
T1C3.302
%
G90
M71
T1
X195326Y27940
X8890Y99720
X8890Y52680
X195326Y99060
T2
X116840Y3810
X116840Y107950
X195580Y107950
X3810Y3810
X3810Y107950
X195580Y3810
X186130Y12700
X186130Y86360
T3
X192230Y12700
X189230Y17500
X189230Y91160
X192230Y86360
T4
X154940Y39370
X121920Y39370
X121920Y77470
X154940Y77470
T5
X5055Y37135
X5055Y44145
T6
X180340Y99060
X180340Y96520
X180340Y69850
X180340Y39370
X180340Y30480
X123190Y27940
X153670Y27940
X160020Y3810
X172720Y3810
X180340Y101600
X180340Y27940
X180340Y25400
X73660Y106680
X104140Y106680
T7
X10160Y89992
X10160Y87249
X10160Y84480
X10160Y78969
X10160Y76200
X10160Y73431
X10160Y70688
X10160Y67920
X10160Y65151
X10160Y62408
X10160Y59639
X109220Y106680
X2565Y38392
X58420Y5080
X55880Y5080
X53340Y5080
X50800Y5080
X48260Y5080
X45720Y5080
X40640Y5080
X38100Y5080
X35560Y5080
X2565Y42888
X30480Y5080
X27940Y5080
X33020Y5080
X7620Y85852
X7620Y91389
X7620Y88621
X10160Y81712
X7620Y83109
X7620Y80340
X7620Y77572
X81280Y11430
X81280Y19050
X81280Y26670
X7620Y74828
X7620Y72060
X7620Y69291
X7620Y66548
X7620Y63779
X60960Y109220
X82550Y62230
X82550Y59690
X81280Y3810
X7620Y61011
X10160Y92761
X115570Y27940
T8
X151130Y86360
X153670Y86360
X16510Y71120
X13970Y73660
X16510Y73660
X64770Y35560
X64770Y33020
X13970Y78740
X16510Y78740
X31750Y8890
X13970Y81280
X16510Y81280
X16510Y40640
X31750Y11430
X49530Y8890
X133350Y88900
X143510Y88900
X135890Y88900
X64770Y38100
X49530Y11430
X16510Y38100
X13970Y71120
X16510Y44450
X16510Y46990
X16510Y49530
X16510Y93980
X13970Y93980
X125730Y88900
X16510Y88900
X13970Y88900
X16510Y86360
X13970Y86360
X16510Y35560
T9
X87630Y69850
X15240Y59690
X15240Y57150
X177800Y11430
X177800Y13970
X78740Y34290
X78740Y36830
X78740Y39370
X78740Y41910
X78740Y44450
X78740Y46990
X78740Y49530
X78740Y52070
X78740Y54610
X78740Y57150
X78740Y59690
X78740Y62230
X71120Y62230
X71120Y59690
X71120Y57150
X71120Y54610
X71120Y52070
X71120Y49530
X71120Y46990
X71120Y44450
X71120Y41910
X71120Y39370
X71120Y36830
X71120Y34290
X3810Y29210
X3810Y26670
X3810Y19050
X3810Y16510
X8890Y39370
X11430Y39370
X8890Y35560
X11430Y35560
X39370Y17780
X39370Y20320
X39370Y33020
X39370Y35560
X39370Y22860
X39370Y25400
X39370Y30480
X39370Y27940
X39370Y38100
X39370Y40640
X39370Y43180
X39370Y45720
X39370Y48260
X39370Y50800
X39370Y53340
X39370Y55880
X39370Y58420
X39370Y60960
X39370Y63500
X39370Y66040
X24130Y66040
X24130Y63500
X24130Y60960
X24130Y58420
X24130Y55880
X24130Y53340
X24130Y50800
X24130Y48260
X24130Y45720
X24130Y43180
X24130Y40640
X24130Y38100
X24130Y35560
X24130Y33020
X24130Y30480
X24130Y27940
X24130Y25400
X24130Y22860
X24130Y20320
X24130Y17780
X66040Y19050
X73660Y19050
X73660Y26670
X66040Y26670
X64770Y50800
X64770Y53340
X64770Y55880
X64770Y58420
X64770Y60960
X64770Y63500
X64770Y66040
X110490Y50800
X168910Y96520
X168910Y99060
X176530Y101600
X176530Y96520
X175260Y106680
X170180Y106680
X102870Y24130
X102870Y26670
X102870Y39370
X102870Y41910
X102870Y29210
X102870Y31750
X102870Y36830
X102870Y34290
X102870Y44450
X102870Y46990
X102870Y49530
X102870Y52070
X102870Y54610
X102870Y57150
X102870Y59690
X102870Y62230
X102870Y64770
X102870Y67310
X102870Y69850
X102870Y72390
X87630Y72390
X87630Y67310
X87630Y64770
X87630Y62230
X87630Y59690
X87630Y57150
X87630Y54610
X87630Y52070
X87630Y49530
X87630Y46990
X87630Y44450
X87630Y41910
X87630Y39370
X87630Y36830
X87630Y34290
X87630Y31750
X87630Y29210
X87630Y26670
X87630Y24130
X127000Y8890
X129540Y8890
X132080Y8890
X134620Y8890
X137160Y8890
X139700Y8890
X142240Y8890
X144780Y8890
X147320Y8890
X149860Y8890
X152400Y8890
X152400Y19050
X149860Y19050
X147320Y19050
X144780Y19050
X142240Y19050
X139700Y19050
X137160Y19050
X134620Y19050
X132080Y19050
X129540Y19050
X127000Y19050
X120650Y92710
X123190Y92710
X135890Y92710
X138430Y92710
X125730Y92710
X128270Y92710
X133350Y92710
X130810Y92710
X140970Y92710
X143510Y92710
X143510Y100330
X140970Y100330
X138430Y100330
X135890Y100330
X133350Y100330
X130810Y100330
X128270Y100330
X125730Y100330
X123190Y100330
X120650Y100330
X85090Y76200
X85090Y83820
X91440Y83820
X91440Y76200
X149860Y5080
X152400Y5080
X114300Y90170
X114300Y92710
X110490Y78740
X110490Y86360
X127000Y39370
X129540Y39370
X142240Y39370
X144780Y39370
X132080Y39370
X134620Y39370
X139700Y39370
X137160Y39370
X147320Y39370
X149860Y39370
X149860Y77470
X147320Y77470
X144780Y77470
X142240Y77470
X139700Y77470
X137160Y77470
X134620Y77470
X132080Y77470
X129540Y77470
X127000Y77470
X158750Y30480
X158750Y22860
X114300Y83820
X114300Y86360
X110490Y74930
X110490Y67310
X113030Y74930
X113030Y67310
X125730Y85090
X128270Y85090
X130810Y85090
X133350Y85090
X135890Y85090
X138430Y85090
X140970Y85090
X143510Y85090
X171450Y45720
X171450Y48260
X171450Y60960
X171450Y63500
X171450Y50800
X171450Y53340
X171450Y58420
X171450Y55880
X163830Y63500
X163830Y60960
X163830Y58420
X163830Y55880
X163830Y53340
X163830Y50800
X163830Y48260
X163830Y45720
X171450Y20320
X171450Y22860
X171450Y35560
X163830Y35560
X171450Y25400
X171450Y27940
X171450Y33020
X171450Y30480
X163830Y33020
X163830Y30480
X163830Y27940
X163830Y25400
X163830Y22860
X163830Y20320
X171450Y73660
X171450Y76200
X171450Y88900
X163830Y88900
X171450Y78740
X171450Y81280
X171450Y86360
X171450Y83820
X163830Y86360
X163830Y83820
X163830Y81280
X163830Y78740
X163830Y76200
X163830Y73660
X96520Y76200
X96520Y83820
X86360Y7620
X88900Y7620
X91440Y7620
X93980Y7620
X93980Y15240
X91440Y15240
X88900Y15240
X86360Y15240
X104140Y15240
X104140Y7620
X99060Y7620
X99060Y15240
X93980Y83820
X93980Y76200
X101600Y15240
X101600Y7620
X106680Y7620
X106680Y15240
X109220Y7620
X109220Y15240
X101600Y3810
X109220Y3810
X106680Y20320
X109220Y20320
X106680Y24130
X109220Y24130
X106680Y39370
X106680Y46990
X90170Y88900
X85090Y88900
X87630Y88900
X95250Y90170
X93345Y88900
X95250Y87630
X106680Y33020
X109220Y33020
X106680Y27940
X109220Y27940
X163830Y69850
X163830Y67310
X163830Y41910
X163830Y39370
X170180Y67310
X170180Y69850
X170180Y39370
X170180Y41910
X160020Y93980
X162560Y93980
X160020Y16510
X157480Y16510
X160020Y8890
X157480Y8890
X90170Y3810
X92710Y3810
X118110Y16510
X118110Y19050
X128270Y6350
X130810Y6350
X121920Y11430
X121920Y8890
X113030Y57150
X110490Y57150
X66040Y105410
X113030Y50800
X110490Y63500
X113030Y63500
X109220Y92710
X109220Y90170
X114300Y97790
X114300Y100330
X109220Y100330
X109220Y97790
X99060Y96520
X99060Y93980
X91440Y97790
X91440Y95250
X119380Y87630
X119380Y85090
X163830Y15240
X163830Y12700
X168910Y15240
X171450Y15240
X162560Y99060
X160020Y99060
X194310Y66040
X194310Y68580
X194310Y74930
X194310Y77470
X176530Y74930
X184150Y74930
X176530Y80010
X184150Y80010
X180340Y2540
X180340Y5080
X176530Y30480
X176530Y35560
X176530Y25400
X176530Y20320
X78740Y68580
X78740Y71120
X78740Y83820
X71120Y83820
X78740Y73660
X78740Y76200
X78740Y81280
X78740Y78740
X71120Y81280
X71120Y78740
X71120Y76200
X71120Y73660
X71120Y71120
X71120Y68580
X69850Y97790
X69850Y90170
X77470Y90170
X77470Y97790
X82550Y95250
X82550Y97790
X71120Y66040
X73660Y66040
X194310Y55880
X194310Y53340
X194310Y45720
X194310Y43180
X194310Y40640
X194310Y50800
X194310Y38100
X60960Y73660
X60960Y76200
X60960Y78740
X60960Y81280
X60960Y83820
X60960Y86360
X60960Y88900
X60960Y91440
X60960Y93980
X60960Y96520
X60960Y99060
X60960Y101600
X60960Y104140
X60960Y106680
X45720Y106680
X45720Y104140
X45720Y101600
X45720Y99060
X45720Y96520
X45720Y93980
X45720Y91440
X45720Y88900
X45720Y86360
X45720Y83820
X45720Y81280
X45720Y78740
X45720Y76200
X45720Y73660
X39370Y73660
X39370Y76200
X39370Y88900
X39370Y91440
X39370Y78740
X39370Y81280
X39370Y86360
X39370Y83820
X39370Y93980
X39370Y96520
X39370Y99060
X39370Y101600
X39370Y104140
X39370Y106680
X24130Y106680
X24130Y104140
X24130Y101600
X24130Y99060
X24130Y96520
X24130Y93980
X24130Y91440
X24130Y88900
X24130Y86360
X24130Y83820
X24130Y81280
X24130Y78740
X24130Y76200
X24130Y73660
X60960Y17780
X60960Y20320
X60960Y33020
X60960Y35560
X60960Y22860
X60960Y25400
X60960Y30480
X60960Y27940
X60960Y38100
X60960Y40640
X60960Y43180
X60960Y45720
X60960Y48260
X60960Y50800
X60960Y53340
X60960Y55880
X60960Y58420
X60960Y60960
X60960Y63500
X60960Y66040
X45720Y66040
X45720Y63500
X45720Y60960
X45720Y58420
X45720Y55880
X45720Y53340
X45720Y50800
X45720Y48260
X45720Y45720
X45720Y43180
X45720Y40640
X45720Y38100
X45720Y35560
X45720Y33020
X45720Y30480
X45720Y27940
X45720Y25400
X45720Y22860
X45720Y20320
X45720Y17780
X27940Y11430
X27940Y8890
X36830Y11430
X36830Y8890
X39370Y11430
X39370Y8890
X45720Y11430
X45720Y8890
X53340Y11430
X53340Y8890
X55880Y11430
X55880Y8890
X35560Y17780
X35560Y20320
X35560Y33020
X35560Y35560
X35560Y22860
X35560Y25400
X35560Y30480
X35560Y27940
X35560Y38100
X35560Y40640
X35560Y43180
X35560Y45720
X35560Y48260
X35560Y50800
X35560Y53340
X35560Y55880
X35560Y58420
X35560Y60960
X35560Y63500
X35560Y66040
X20320Y66040
X20320Y63500
X20320Y60960
X20320Y58420
X20320Y55880
X20320Y53340
X20320Y50800
X20320Y48260
X20320Y45720
X20320Y43180
X20320Y40640
X20320Y38100
X20320Y35560
X20320Y33020
X20320Y30480
X20320Y27940
X20320Y25400
X20320Y22860
X20320Y20320
X20320Y17780
X66040Y3810
X73660Y3810
X73660Y11430
X66040Y11430
X8890Y43180
X11430Y43180
X16510Y10160
X16510Y12700
X16510Y25400
X16510Y27940
X16510Y15240
X16510Y17780
X16510Y22860
X16510Y20320
X8890Y27940
X8890Y25400
X8890Y22860
X8890Y20320
X8890Y17780
X8890Y15240
X8890Y12700
X8890Y10160
X17780Y6350
X15240Y6350
X11430Y6350
X8890Y6350
X19050Y13970
X19050Y11430
X11430Y30480
X13970Y30480
X6350Y10160
X6350Y12700
X41910Y11430
X41910Y8890
X82550Y33020
X82550Y35560
X59690Y12700
X59690Y10160
X87630Y20320
X90170Y20320
X42482Y39370
X42482Y41910
X64770Y41910
X64770Y44450
X24130Y71120
X26670Y71120
X45720Y71120
X48260Y71120
X68580Y105410
T10
X190500Y58420
X193040Y58420
X195580Y58420
T11
X54927Y99377
X57467Y53340
X93027Y53340
X90170Y79693
X59372Y85090
X32702Y18415
X55562Y46037
X93027Y54610
X88900Y100012
X55562Y19050
X42228Y34290
X42228Y22860
X100965Y93662
X93027Y22225
X93980Y55562
X42863Y31750
X42863Y25717
X100012Y62547
X91122Y100012
X63817Y31432
X63817Y21273
X95250Y21273
X51752Y37783
X52387Y25082
X100330Y24447
X93662Y99060
X56832Y40323
X56515Y26987
X99377Y64452
X97472Y45720
X53975Y82868
X89852Y82550
X53657Y48577
X99377Y70485
X96837Y91757
X32702Y25717
X32702Y35243
X53657Y36830
X109220Y44450
X87630Y6032
X118427Y38100
X118427Y40640
X131128Y12382
X118427Y45720
X133350Y12382
X100330Y12382
X98742Y73343
X99060Y90487
X109537Y69215
X106362Y75565
X105727Y78740
X143510Y37783
X146050Y37783
X138748Y22225
X144463Y21273
X139700Y24130
X90805Y34925
X91122Y41593
X91122Y26035
X147955Y35560
X154940Y21273
X94297Y22225
X82233Y40640
X27305Y39053
X52705Y46990
X51752Y43498
X52070Y95250
X32385Y40958
X52705Y38735
X53657Y35243
X53022Y32067
X53340Y15875
X111442Y19050
X108585Y80328
X52387Y35243
X54610Y1905
X10160Y2223
X42863Y33020
X42863Y37783
X51752Y42228
X52705Y45402
X42863Y48577
X42228Y51752
X57467Y29845
X50800Y66040
X50482Y29210
X69215Y20638
X68580Y34290
X65723Y13017
X14605Y33338
X26035Y14287
X57467Y63817
X58737Y74930
X63817Y75248
X30797Y64770
X66993Y52070
X30797Y33338
X12700Y36513
X17145Y65087
X70168Y32702
X27940Y35243
X27940Y62230
X28892Y36195
X30162Y72390
X67945Y54292
X57467Y56832
X57467Y54610
X54610Y59372
X66358Y57150
X66040Y39688
X75248Y36513
X57467Y32067
X56515Y52070
X50482Y20638
X74295Y47307
X73978Y75565
X64770Y73978
X31115Y97472
X53657Y49847
X81598Y29527
X57467Y28575
X57467Y26035
X67628Y80963
X74295Y44132
X41593Y56197
X66675Y86043
X68898Y67945
X47307Y67945
X67310Y31750
X65723Y14287
X28892Y14922
X68263Y30480
X68263Y18415
X26035Y16828
X84138Y68263
X85090Y49212
X82233Y38100
X73343Y37148
X78105Y14287
X76200Y41910
X63182Y52070
X59372Y68898
X94932Y70803
X94932Y27940
X62865Y24447
X47942Y92710
X42863Y53022
X92075Y35878
X49530Y59372
X48577Y57150
X46355Y13335
X49847Y49530
X12382Y14922
X33020Y47307
X80645Y65087
X49212Y65723
X48577Y63817
X47307Y69850
X82868Y66040
X82233Y42228
X26352Y62230
X56515Y50800
X64770Y78740
X56832Y41910
X76200Y39688
X42863Y50482
X42228Y44450
X21907Y57150
X74613Y28575
X4128Y75883
X7302Y7620
X62865Y8890
X56515Y25082
X130810Y81280
X127000Y82550
X135890Y81280
X14922Y54927
X26352Y10160
X58420Y11747
X48577Y84773
X37465Y44132
X75248Y63182
X76518Y63500
M30