G04 EAGLE Gerber RS-274X export*
G75*
%MOMM*%
%FSLAX34Y34*%
%LPD*%
%INTop Copper*%
%IPPOS*%
%AMOC8*
5,1,8,0,0,1.08239X$1,22.5*%
G01*
%ADD10C,1.676400*%
%ADD11P,1.732040X8X292.500000*%
%ADD12C,1.600200*%
%ADD13P,1.429621X8X292.500000*%
%ADD14P,1.429621X8X202.500000*%
%ADD15C,1.320800*%
%ADD16P,1.429621X8X112.500000*%
%ADD17P,1.429621X8X22.500000*%
%ADD18C,1.422400*%
%ADD19P,1.539592X8X22.500000*%
%ADD20P,1.539592X8X202.500000*%
%ADD21C,3.149600*%
%ADD22P,3.409096X8X22.500000*%
%ADD23P,3.409096X8X292.500000*%
%ADD24P,1.732040X8X202.500000*%
%ADD25P,1.732040X8X22.500000*%
%ADD26P,1.732040X8X112.500000*%
%ADD27C,1.320800*%
%ADD28C,1.524000*%
%ADD29R,1.524000X1.524000*%
%ADD30R,2.095500X2.095500*%
%ADD31C,4.445000*%
%ADD32C,3.810000*%
%ADD33C,2.540000*%
%ADD34P,1.649562X8X112.500000*%
%ADD35C,5.080000*%
%ADD36P,3.409096X8X202.500000*%
%ADD37P,1.649562X8X22.500000*%
%ADD38R,1.308000X1.308000*%
%ADD39C,1.117600*%
%ADD40C,1.016000*%
%ADD41C,0.254000*%

G36*
X1338690Y787667D02*
X1338690Y787667D01*
X1338761Y787672D01*
X1338809Y787692D01*
X1338860Y787704D01*
X1338921Y787740D01*
X1338987Y787768D01*
X1339043Y787813D01*
X1339071Y787830D01*
X1339086Y787848D01*
X1339118Y787873D01*
X1340732Y789487D01*
X1344280Y790957D01*
X1348120Y790957D01*
X1351668Y789487D01*
X1352735Y788420D01*
X1352752Y788408D01*
X1352764Y788392D01*
X1352851Y788336D01*
X1352935Y788276D01*
X1352954Y788270D01*
X1352971Y788259D01*
X1353071Y788234D01*
X1353170Y788204D01*
X1353190Y788204D01*
X1353209Y788199D01*
X1353312Y788207D01*
X1353416Y788210D01*
X1353435Y788217D01*
X1353455Y788218D01*
X1353550Y788259D01*
X1353647Y788294D01*
X1353663Y788307D01*
X1353681Y788315D01*
X1353812Y788420D01*
X1379758Y814366D01*
X1379811Y814440D01*
X1379871Y814509D01*
X1379883Y814539D01*
X1379902Y814566D01*
X1379929Y814653D01*
X1379963Y814737D01*
X1379967Y814778D01*
X1379974Y814801D01*
X1379973Y814833D01*
X1379981Y814904D01*
X1379981Y835128D01*
X1379962Y835243D01*
X1379945Y835359D01*
X1379943Y835365D01*
X1379942Y835371D01*
X1379887Y835473D01*
X1379834Y835578D01*
X1379829Y835583D01*
X1379826Y835588D01*
X1379742Y835668D01*
X1379658Y835751D01*
X1379652Y835754D01*
X1379648Y835758D01*
X1379631Y835766D01*
X1379511Y835832D01*
X1378832Y836113D01*
X1376117Y838828D01*
X1374647Y842376D01*
X1374647Y859424D01*
X1376117Y862972D01*
X1378832Y865687D01*
X1382380Y867157D01*
X1386220Y867157D01*
X1389768Y865687D01*
X1392483Y862972D01*
X1393953Y859424D01*
X1393953Y842376D01*
X1392483Y838828D01*
X1389768Y836113D01*
X1389089Y835832D01*
X1388989Y835770D01*
X1388889Y835710D01*
X1388885Y835705D01*
X1388880Y835702D01*
X1388805Y835611D01*
X1388729Y835523D01*
X1388727Y835517D01*
X1388723Y835512D01*
X1388681Y835403D01*
X1388637Y835295D01*
X1388636Y835287D01*
X1388635Y835283D01*
X1388634Y835265D01*
X1388619Y835128D01*
X1388619Y812364D01*
X1388630Y812293D01*
X1388632Y812222D01*
X1388650Y812173D01*
X1388658Y812121D01*
X1388692Y812058D01*
X1388717Y811991D01*
X1388749Y811950D01*
X1388774Y811904D01*
X1388825Y811855D01*
X1388870Y811799D01*
X1388914Y811770D01*
X1388952Y811735D01*
X1389017Y811704D01*
X1389077Y811666D01*
X1389128Y811653D01*
X1389175Y811631D01*
X1389246Y811623D01*
X1389316Y811606D01*
X1389368Y811610D01*
X1389419Y811604D01*
X1389490Y811619D01*
X1389561Y811625D01*
X1389609Y811645D01*
X1389660Y811656D01*
X1389721Y811693D01*
X1389787Y811721D01*
X1389843Y811766D01*
X1389871Y811782D01*
X1389886Y811800D01*
X1389918Y811826D01*
X1411436Y833344D01*
X1411478Y833402D01*
X1411527Y833454D01*
X1411549Y833501D01*
X1411580Y833543D01*
X1411601Y833612D01*
X1411631Y833677D01*
X1411637Y833729D01*
X1411652Y833779D01*
X1411650Y833850D01*
X1411658Y833921D01*
X1411647Y833972D01*
X1411646Y834024D01*
X1411621Y834092D01*
X1411606Y834162D01*
X1411579Y834206D01*
X1411561Y834255D01*
X1411516Y834311D01*
X1411480Y834373D01*
X1411440Y834407D01*
X1411408Y834447D01*
X1411347Y834486D01*
X1411293Y834533D01*
X1411244Y834552D01*
X1411201Y834580D01*
X1411131Y834598D01*
X1411065Y834625D01*
X1410993Y834633D01*
X1410962Y834641D01*
X1410939Y834639D01*
X1410898Y834643D01*
X1407780Y834643D01*
X1404232Y836113D01*
X1401517Y838828D01*
X1400047Y842376D01*
X1400047Y859424D01*
X1401517Y862972D01*
X1404232Y865687D01*
X1407780Y867157D01*
X1411620Y867157D01*
X1415168Y865687D01*
X1416235Y864620D01*
X1416252Y864608D01*
X1416264Y864592D01*
X1416351Y864536D01*
X1416435Y864476D01*
X1416454Y864470D01*
X1416471Y864459D01*
X1416571Y864434D01*
X1416670Y864404D01*
X1416690Y864404D01*
X1416709Y864399D01*
X1416812Y864407D01*
X1416916Y864410D01*
X1416935Y864417D01*
X1416955Y864418D01*
X1417050Y864459D01*
X1417147Y864494D01*
X1417163Y864507D01*
X1417181Y864515D01*
X1417312Y864620D01*
X1430558Y877866D01*
X1430611Y877940D01*
X1430671Y878009D01*
X1430683Y878039D01*
X1430702Y878066D01*
X1430729Y878153D01*
X1430763Y878237D01*
X1430767Y878278D01*
X1430774Y878301D01*
X1430773Y878333D01*
X1430781Y878404D01*
X1430781Y878634D01*
X1430767Y878724D01*
X1430759Y878815D01*
X1430747Y878845D01*
X1430742Y878877D01*
X1430699Y878957D01*
X1430663Y879041D01*
X1430637Y879073D01*
X1430626Y879094D01*
X1430603Y879116D01*
X1430558Y879172D01*
X1424939Y884791D01*
X1424939Y893209D01*
X1430558Y898828D01*
X1430611Y898902D01*
X1430671Y898971D01*
X1430683Y899001D01*
X1430702Y899027D01*
X1430729Y899114D01*
X1430763Y899199D01*
X1430767Y899240D01*
X1430774Y899263D01*
X1430773Y899295D01*
X1430781Y899366D01*
X1430781Y899596D01*
X1430767Y899686D01*
X1430759Y899777D01*
X1430747Y899807D01*
X1430742Y899839D01*
X1430699Y899919D01*
X1430663Y900003D01*
X1430637Y900035D01*
X1430626Y900056D01*
X1430603Y900078D01*
X1430558Y900134D01*
X1417312Y913380D01*
X1417296Y913392D01*
X1417283Y913408D01*
X1417196Y913464D01*
X1417112Y913524D01*
X1417093Y913530D01*
X1417076Y913541D01*
X1416976Y913566D01*
X1416877Y913596D01*
X1416857Y913596D01*
X1416838Y913601D01*
X1416735Y913593D01*
X1416631Y913590D01*
X1416613Y913583D01*
X1416593Y913582D01*
X1416498Y913541D01*
X1416400Y913506D01*
X1416385Y913493D01*
X1416366Y913485D01*
X1416235Y913380D01*
X1415168Y912313D01*
X1411620Y910843D01*
X1407780Y910843D01*
X1404232Y912313D01*
X1401517Y915028D01*
X1400047Y918576D01*
X1400047Y935624D01*
X1401517Y939172D01*
X1404232Y941887D01*
X1407780Y943357D01*
X1411620Y943357D01*
X1415168Y941887D01*
X1417883Y939172D01*
X1419353Y935624D01*
X1419353Y923870D01*
X1419367Y923780D01*
X1419375Y923689D01*
X1419387Y923659D01*
X1419392Y923627D01*
X1419435Y923547D01*
X1419471Y923463D01*
X1419497Y923431D01*
X1419508Y923410D01*
X1419531Y923388D01*
X1419576Y923332D01*
X1424837Y918071D01*
X1424856Y918057D01*
X1424870Y918039D01*
X1424955Y917986D01*
X1425037Y917927D01*
X1425059Y917920D01*
X1425078Y917908D01*
X1425176Y917884D01*
X1425272Y917855D01*
X1425295Y917855D01*
X1425317Y917850D01*
X1425417Y917858D01*
X1425518Y917861D01*
X1425539Y917869D01*
X1425562Y917871D01*
X1425654Y917911D01*
X1425749Y917945D01*
X1425767Y917960D01*
X1425788Y917969D01*
X1425862Y918036D01*
X1425941Y918099D01*
X1425953Y918119D01*
X1425970Y918134D01*
X1426019Y918222D01*
X1426074Y918306D01*
X1426079Y918328D01*
X1426091Y918349D01*
X1426109Y918447D01*
X1426134Y918545D01*
X1426132Y918568D01*
X1426136Y918590D01*
X1426122Y918757D01*
X1425955Y919595D01*
X1425955Y925577D01*
X1433577Y925577D01*
X1433577Y911475D01*
X1433361Y911518D01*
X1433338Y911519D01*
X1433316Y911526D01*
X1433216Y911523D01*
X1433116Y911526D01*
X1433094Y911520D01*
X1433070Y911519D01*
X1432976Y911485D01*
X1432880Y911456D01*
X1432861Y911443D01*
X1432839Y911435D01*
X1432761Y911372D01*
X1432679Y911314D01*
X1432665Y911295D01*
X1432647Y911281D01*
X1432593Y911197D01*
X1432534Y911115D01*
X1432527Y911094D01*
X1432514Y911074D01*
X1432490Y910977D01*
X1432460Y910881D01*
X1432460Y910858D01*
X1432454Y910836D01*
X1432462Y910735D01*
X1432464Y910635D01*
X1432472Y910613D01*
X1432473Y910590D01*
X1432513Y910498D01*
X1432546Y910403D01*
X1432561Y910385D01*
X1432570Y910364D01*
X1432675Y910233D01*
X1439419Y903489D01*
X1439419Y899366D01*
X1439433Y899276D01*
X1439441Y899185D01*
X1439453Y899155D01*
X1439458Y899123D01*
X1439501Y899043D01*
X1439537Y898959D01*
X1439563Y898927D01*
X1439574Y898906D01*
X1439597Y898884D01*
X1439642Y898828D01*
X1445261Y893209D01*
X1445261Y884791D01*
X1439642Y879172D01*
X1439589Y879098D01*
X1439529Y879029D01*
X1439517Y878999D01*
X1439498Y878973D01*
X1439471Y878886D01*
X1439437Y878801D01*
X1439433Y878760D01*
X1439426Y878737D01*
X1439427Y878705D01*
X1439419Y878634D01*
X1439419Y874511D01*
X1436666Y871758D01*
X1433364Y868456D01*
X1433322Y868398D01*
X1433273Y868346D01*
X1433251Y868299D01*
X1433220Y868257D01*
X1433199Y868188D01*
X1433169Y868123D01*
X1433163Y868071D01*
X1433148Y868021D01*
X1433150Y867950D01*
X1433142Y867879D01*
X1433153Y867828D01*
X1433154Y867776D01*
X1433179Y867708D01*
X1433194Y867638D01*
X1433221Y867593D01*
X1433239Y867545D01*
X1433284Y867489D01*
X1433320Y867427D01*
X1433360Y867393D01*
X1433392Y867353D01*
X1433453Y867314D01*
X1433507Y867267D01*
X1433556Y867248D01*
X1433599Y867220D01*
X1433669Y867202D01*
X1433735Y867175D01*
X1433807Y867167D01*
X1433838Y867159D01*
X1433861Y867161D01*
X1433902Y867157D01*
X1437020Y867157D01*
X1440568Y865687D01*
X1443283Y862972D01*
X1444753Y859424D01*
X1444753Y842376D01*
X1443283Y838828D01*
X1440568Y836113D01*
X1437020Y834643D01*
X1433180Y834643D01*
X1429632Y836113D01*
X1428565Y837180D01*
X1428548Y837192D01*
X1428536Y837208D01*
X1428449Y837264D01*
X1428365Y837324D01*
X1428346Y837330D01*
X1428329Y837341D01*
X1428229Y837366D01*
X1428130Y837396D01*
X1428110Y837396D01*
X1428091Y837401D01*
X1427988Y837393D01*
X1427884Y837390D01*
X1427865Y837383D01*
X1427845Y837382D01*
X1427750Y837341D01*
X1427653Y837306D01*
X1427637Y837293D01*
X1427619Y837285D01*
X1427488Y837180D01*
X1385667Y795359D01*
X1385614Y795285D01*
X1385554Y795216D01*
X1385542Y795186D01*
X1385523Y795159D01*
X1385496Y795072D01*
X1385462Y794988D01*
X1385458Y794947D01*
X1385451Y794924D01*
X1385452Y794892D01*
X1385444Y794821D01*
X1385444Y790056D01*
X1385455Y789985D01*
X1385458Y789912D01*
X1385475Y789864D01*
X1385483Y789814D01*
X1385517Y789749D01*
X1385543Y789681D01*
X1385575Y789641D01*
X1385599Y789596D01*
X1385651Y789546D01*
X1385697Y789489D01*
X1385740Y789462D01*
X1385777Y789427D01*
X1385843Y789396D01*
X1385904Y789357D01*
X1385954Y789345D01*
X1386000Y789323D01*
X1386072Y789315D01*
X1386143Y789298D01*
X1386194Y789302D01*
X1386244Y789296D01*
X1386316Y789312D01*
X1386388Y789317D01*
X1386453Y789342D01*
X1386485Y789348D01*
X1386505Y789361D01*
X1386545Y789375D01*
X1459316Y825761D01*
X1459389Y825814D01*
X1459467Y825860D01*
X1459489Y825885D01*
X1459516Y825905D01*
X1459568Y825978D01*
X1459627Y826047D01*
X1459639Y826078D01*
X1459659Y826105D01*
X1459685Y826191D01*
X1459719Y826275D01*
X1459723Y826318D01*
X1459730Y826340D01*
X1459730Y826372D01*
X1459737Y826442D01*
X1459737Y914716D01*
X1460184Y915163D01*
X1460500Y915163D01*
X1460520Y915166D01*
X1460539Y915164D01*
X1460641Y915186D01*
X1460743Y915202D01*
X1460760Y915212D01*
X1460780Y915216D01*
X1460869Y915269D01*
X1460960Y915318D01*
X1460974Y915332D01*
X1460991Y915342D01*
X1461058Y915421D01*
X1461130Y915496D01*
X1461138Y915514D01*
X1461151Y915529D01*
X1461190Y915625D01*
X1461233Y915719D01*
X1461235Y915739D01*
X1461243Y915757D01*
X1461261Y915924D01*
X1461261Y965200D01*
X1461258Y965220D01*
X1461260Y965239D01*
X1461238Y965341D01*
X1461222Y965443D01*
X1461212Y965460D01*
X1461208Y965480D01*
X1461155Y965569D01*
X1461106Y965660D01*
X1461092Y965674D01*
X1461082Y965691D01*
X1461003Y965758D01*
X1460928Y965830D01*
X1460910Y965838D01*
X1460895Y965851D01*
X1460799Y965890D01*
X1460705Y965933D01*
X1460685Y965935D01*
X1460667Y965943D01*
X1460500Y965961D01*
X1277184Y965961D01*
X1277094Y965947D01*
X1277003Y965939D01*
X1276973Y965927D01*
X1276941Y965922D01*
X1276861Y965879D01*
X1276777Y965843D01*
X1276745Y965817D01*
X1276724Y965806D01*
X1276702Y965783D01*
X1276646Y965738D01*
X1274868Y963960D01*
X1274826Y963902D01*
X1274777Y963850D01*
X1274755Y963803D01*
X1274724Y963761D01*
X1274703Y963692D01*
X1274673Y963627D01*
X1274667Y963575D01*
X1274652Y963525D01*
X1274654Y963454D01*
X1274646Y963383D01*
X1274657Y963332D01*
X1274658Y963280D01*
X1274683Y963212D01*
X1274698Y963142D01*
X1274725Y963098D01*
X1274743Y963049D01*
X1274788Y962993D01*
X1274824Y962931D01*
X1274864Y962897D01*
X1274896Y962857D01*
X1274957Y962818D01*
X1275011Y962771D01*
X1275060Y962752D01*
X1275103Y962724D01*
X1275173Y962706D01*
X1275239Y962679D01*
X1275311Y962671D01*
X1275342Y962663D01*
X1275365Y962665D01*
X1275406Y962661D01*
X1291071Y962661D01*
X1294806Y961114D01*
X1310364Y945556D01*
X1311414Y943021D01*
X1311462Y942943D01*
X1311503Y942862D01*
X1311526Y942839D01*
X1311543Y942812D01*
X1311614Y942754D01*
X1311679Y942690D01*
X1311715Y942670D01*
X1311733Y942655D01*
X1311763Y942643D01*
X1311826Y942609D01*
X1313568Y941887D01*
X1316283Y939172D01*
X1317753Y935624D01*
X1317753Y930499D01*
X1317763Y930438D01*
X1317763Y930437D01*
X1317763Y930434D01*
X1317764Y930369D01*
X1317787Y930289D01*
X1317792Y930256D01*
X1317802Y930239D01*
X1317811Y930208D01*
X1318261Y929121D01*
X1318261Y925079D01*
X1317811Y923992D01*
X1317796Y923929D01*
X1317771Y923868D01*
X1317762Y923785D01*
X1317755Y923753D01*
X1317756Y923734D01*
X1317753Y923701D01*
X1317753Y919298D01*
X1317764Y919227D01*
X1317766Y919156D01*
X1317784Y919107D01*
X1317792Y919055D01*
X1317826Y918992D01*
X1317851Y918925D01*
X1317883Y918884D01*
X1317908Y918838D01*
X1317959Y918789D01*
X1318004Y918733D01*
X1318048Y918704D01*
X1318086Y918669D01*
X1318151Y918638D01*
X1318211Y918600D01*
X1318262Y918587D01*
X1318309Y918565D01*
X1318380Y918557D01*
X1318450Y918540D01*
X1318502Y918544D01*
X1318553Y918538D01*
X1318624Y918553D01*
X1318695Y918559D01*
X1318743Y918579D01*
X1318794Y918590D01*
X1318855Y918627D01*
X1318921Y918655D01*
X1318977Y918700D01*
X1319005Y918716D01*
X1319020Y918734D01*
X1319052Y918760D01*
X1323624Y923332D01*
X1323677Y923406D01*
X1323737Y923475D01*
X1323749Y923505D01*
X1323768Y923532D01*
X1323795Y923619D01*
X1323829Y923703D01*
X1323833Y923744D01*
X1323840Y923767D01*
X1323839Y923799D01*
X1323847Y923870D01*
X1323847Y935624D01*
X1325317Y939172D01*
X1328032Y941887D01*
X1331580Y943357D01*
X1335420Y943357D01*
X1338968Y941887D01*
X1341683Y939172D01*
X1343153Y935624D01*
X1343153Y919298D01*
X1343164Y919227D01*
X1343166Y919156D01*
X1343184Y919107D01*
X1343192Y919055D01*
X1343226Y918992D01*
X1343251Y918925D01*
X1343283Y918884D01*
X1343308Y918838D01*
X1343359Y918789D01*
X1343404Y918733D01*
X1343448Y918704D01*
X1343486Y918669D01*
X1343551Y918638D01*
X1343611Y918600D01*
X1343662Y918587D01*
X1343709Y918565D01*
X1343780Y918557D01*
X1343850Y918540D01*
X1343902Y918544D01*
X1343953Y918538D01*
X1344024Y918553D01*
X1344095Y918559D01*
X1344143Y918579D01*
X1344194Y918590D01*
X1344255Y918627D01*
X1344321Y918655D01*
X1344377Y918700D01*
X1344405Y918716D01*
X1344420Y918734D01*
X1344452Y918760D01*
X1349024Y923332D01*
X1349077Y923406D01*
X1349137Y923475D01*
X1349149Y923505D01*
X1349168Y923532D01*
X1349195Y923619D01*
X1349229Y923703D01*
X1349233Y923744D01*
X1349240Y923767D01*
X1349239Y923799D01*
X1349247Y923870D01*
X1349247Y935624D01*
X1350717Y939172D01*
X1353432Y941887D01*
X1356980Y943357D01*
X1360820Y943357D01*
X1364368Y941887D01*
X1367083Y939172D01*
X1368553Y935624D01*
X1368553Y919298D01*
X1368564Y919227D01*
X1368566Y919156D01*
X1368584Y919107D01*
X1368592Y919055D01*
X1368626Y918992D01*
X1368651Y918925D01*
X1368683Y918884D01*
X1368708Y918838D01*
X1368759Y918789D01*
X1368804Y918733D01*
X1368848Y918704D01*
X1368886Y918669D01*
X1368951Y918638D01*
X1369011Y918600D01*
X1369062Y918587D01*
X1369109Y918565D01*
X1369180Y918557D01*
X1369250Y918540D01*
X1369302Y918544D01*
X1369353Y918538D01*
X1369424Y918553D01*
X1369495Y918559D01*
X1369543Y918579D01*
X1369594Y918590D01*
X1369655Y918627D01*
X1369721Y918655D01*
X1369777Y918700D01*
X1369805Y918716D01*
X1369820Y918734D01*
X1369852Y918760D01*
X1374424Y923332D01*
X1374477Y923406D01*
X1374537Y923475D01*
X1374549Y923505D01*
X1374568Y923532D01*
X1374595Y923619D01*
X1374629Y923703D01*
X1374633Y923744D01*
X1374640Y923767D01*
X1374639Y923799D01*
X1374647Y923870D01*
X1374647Y935624D01*
X1376117Y939172D01*
X1378832Y941887D01*
X1382380Y943357D01*
X1386220Y943357D01*
X1389768Y941887D01*
X1392483Y939172D01*
X1393953Y935624D01*
X1393953Y918576D01*
X1392483Y915028D01*
X1389768Y912313D01*
X1386220Y910843D01*
X1382380Y910843D01*
X1378832Y912313D01*
X1377765Y913380D01*
X1377748Y913392D01*
X1377736Y913408D01*
X1377649Y913464D01*
X1377565Y913524D01*
X1377546Y913530D01*
X1377529Y913541D01*
X1377429Y913566D01*
X1377330Y913596D01*
X1377310Y913596D01*
X1377291Y913601D01*
X1377188Y913593D01*
X1377084Y913590D01*
X1377065Y913583D01*
X1377045Y913582D01*
X1376950Y913541D01*
X1376853Y913506D01*
X1376837Y913493D01*
X1376819Y913485D01*
X1376688Y913380D01*
X1363442Y900134D01*
X1363389Y900060D01*
X1363329Y899991D01*
X1363317Y899961D01*
X1363298Y899934D01*
X1363271Y899847D01*
X1363237Y899763D01*
X1363233Y899722D01*
X1363226Y899699D01*
X1363227Y899667D01*
X1363219Y899596D01*
X1363219Y899366D01*
X1363233Y899276D01*
X1363241Y899185D01*
X1363253Y899155D01*
X1363258Y899123D01*
X1363301Y899043D01*
X1363337Y898959D01*
X1363363Y898927D01*
X1363374Y898906D01*
X1363397Y898884D01*
X1363442Y898828D01*
X1369061Y893209D01*
X1369061Y884791D01*
X1363442Y879172D01*
X1363389Y879098D01*
X1363329Y879029D01*
X1363317Y878999D01*
X1363298Y878973D01*
X1363271Y878886D01*
X1363237Y878801D01*
X1363233Y878760D01*
X1363226Y878737D01*
X1363227Y878705D01*
X1363219Y878634D01*
X1363219Y866672D01*
X1363238Y866557D01*
X1363255Y866441D01*
X1363257Y866435D01*
X1363258Y866429D01*
X1363313Y866327D01*
X1363366Y866222D01*
X1363371Y866217D01*
X1363374Y866212D01*
X1363458Y866132D01*
X1363542Y866049D01*
X1363548Y866046D01*
X1363552Y866042D01*
X1363569Y866034D01*
X1363689Y865968D01*
X1364368Y865687D01*
X1367083Y862972D01*
X1368553Y859424D01*
X1368553Y842376D01*
X1367083Y838828D01*
X1364368Y836113D01*
X1360820Y834643D01*
X1356980Y834643D01*
X1353432Y836113D01*
X1350717Y838828D01*
X1349247Y842376D01*
X1349247Y859424D01*
X1350717Y862972D01*
X1353432Y865687D01*
X1354111Y865968D01*
X1354211Y866030D01*
X1354311Y866090D01*
X1354315Y866095D01*
X1354320Y866098D01*
X1354395Y866189D01*
X1354471Y866277D01*
X1354473Y866283D01*
X1354477Y866288D01*
X1354519Y866396D01*
X1354563Y866505D01*
X1354564Y866513D01*
X1354565Y866517D01*
X1354566Y866535D01*
X1354581Y866672D01*
X1354581Y878634D01*
X1354567Y878724D01*
X1354559Y878815D01*
X1354547Y878845D01*
X1354542Y878877D01*
X1354499Y878957D01*
X1354463Y879041D01*
X1354437Y879073D01*
X1354426Y879094D01*
X1354403Y879116D01*
X1354358Y879172D01*
X1348739Y884791D01*
X1348739Y893209D01*
X1354358Y898828D01*
X1354411Y898902D01*
X1354471Y898971D01*
X1354483Y899001D01*
X1354502Y899027D01*
X1354529Y899114D01*
X1354563Y899199D01*
X1354567Y899240D01*
X1354574Y899263D01*
X1354573Y899295D01*
X1354581Y899366D01*
X1354581Y903489D01*
X1357334Y906242D01*
X1360636Y909544D01*
X1360678Y909602D01*
X1360727Y909654D01*
X1360749Y909701D01*
X1360780Y909743D01*
X1360801Y909812D01*
X1360831Y909877D01*
X1360837Y909929D01*
X1360852Y909979D01*
X1360850Y910050D01*
X1360858Y910121D01*
X1360847Y910172D01*
X1360846Y910224D01*
X1360821Y910292D01*
X1360806Y910362D01*
X1360779Y910407D01*
X1360761Y910455D01*
X1360716Y910511D01*
X1360680Y910573D01*
X1360640Y910607D01*
X1360608Y910647D01*
X1360547Y910686D01*
X1360493Y910733D01*
X1360444Y910752D01*
X1360401Y910780D01*
X1360331Y910798D01*
X1360265Y910825D01*
X1360193Y910833D01*
X1360162Y910841D01*
X1360139Y910839D01*
X1360098Y910843D01*
X1356980Y910843D01*
X1353432Y912313D01*
X1352365Y913380D01*
X1352348Y913392D01*
X1352336Y913408D01*
X1352249Y913464D01*
X1352165Y913524D01*
X1352146Y913530D01*
X1352129Y913541D01*
X1352029Y913566D01*
X1351930Y913596D01*
X1351910Y913596D01*
X1351891Y913601D01*
X1351788Y913593D01*
X1351684Y913590D01*
X1351665Y913583D01*
X1351645Y913582D01*
X1351550Y913541D01*
X1351453Y913506D01*
X1351437Y913493D01*
X1351419Y913485D01*
X1351288Y913380D01*
X1338042Y900134D01*
X1337989Y900060D01*
X1337929Y899991D01*
X1337917Y899961D01*
X1337898Y899934D01*
X1337871Y899847D01*
X1337837Y899763D01*
X1337833Y899722D01*
X1337826Y899699D01*
X1337827Y899667D01*
X1337819Y899596D01*
X1337819Y899366D01*
X1337833Y899276D01*
X1337841Y899185D01*
X1337853Y899155D01*
X1337858Y899123D01*
X1337901Y899043D01*
X1337937Y898959D01*
X1337963Y898927D01*
X1337974Y898906D01*
X1337997Y898884D01*
X1338042Y898828D01*
X1343661Y893209D01*
X1343661Y884791D01*
X1338042Y879172D01*
X1337989Y879098D01*
X1337929Y879029D01*
X1337917Y878999D01*
X1337898Y878973D01*
X1337871Y878886D01*
X1337837Y878801D01*
X1337833Y878760D01*
X1337826Y878737D01*
X1337827Y878705D01*
X1337819Y878634D01*
X1337819Y874511D01*
X1335066Y871758D01*
X1331764Y868456D01*
X1331722Y868398D01*
X1331673Y868346D01*
X1331651Y868299D01*
X1331620Y868257D01*
X1331599Y868188D01*
X1331569Y868123D01*
X1331563Y868071D01*
X1331548Y868021D01*
X1331550Y867950D01*
X1331542Y867879D01*
X1331553Y867828D01*
X1331554Y867776D01*
X1331579Y867708D01*
X1331594Y867638D01*
X1331621Y867593D01*
X1331639Y867545D01*
X1331684Y867489D01*
X1331720Y867427D01*
X1331760Y867393D01*
X1331792Y867353D01*
X1331853Y867314D01*
X1331907Y867267D01*
X1331956Y867248D01*
X1331999Y867220D01*
X1332069Y867202D01*
X1332135Y867175D01*
X1332207Y867167D01*
X1332238Y867159D01*
X1332261Y867161D01*
X1332302Y867157D01*
X1335420Y867157D01*
X1338968Y865687D01*
X1341683Y862972D01*
X1343153Y859424D01*
X1343153Y842376D01*
X1341683Y838828D01*
X1338968Y836113D01*
X1338289Y835832D01*
X1338189Y835770D01*
X1338089Y835710D01*
X1338085Y835705D01*
X1338080Y835702D01*
X1338005Y835611D01*
X1337929Y835523D01*
X1337927Y835517D01*
X1337923Y835512D01*
X1337881Y835403D01*
X1337837Y835295D01*
X1337836Y835287D01*
X1337835Y835283D01*
X1337834Y835265D01*
X1337819Y835128D01*
X1337819Y788412D01*
X1337830Y788341D01*
X1337832Y788269D01*
X1337850Y788220D01*
X1337858Y788169D01*
X1337892Y788105D01*
X1337917Y788038D01*
X1337949Y787997D01*
X1337974Y787951D01*
X1338026Y787902D01*
X1338070Y787846D01*
X1338114Y787818D01*
X1338152Y787782D01*
X1338217Y787752D01*
X1338277Y787713D01*
X1338328Y787700D01*
X1338375Y787678D01*
X1338446Y787671D01*
X1338516Y787653D01*
X1338568Y787657D01*
X1338619Y787651D01*
X1338690Y787667D01*
G37*
G36*
X1382796Y748542D02*
X1382796Y748542D01*
X1382815Y748540D01*
X1382917Y748562D01*
X1383019Y748579D01*
X1383036Y748588D01*
X1383056Y748592D01*
X1383145Y748645D01*
X1383236Y748694D01*
X1383250Y748708D01*
X1383267Y748718D01*
X1383334Y748797D01*
X1383406Y748872D01*
X1383414Y748890D01*
X1383427Y748905D01*
X1383466Y749001D01*
X1383509Y749095D01*
X1383511Y749115D01*
X1383519Y749133D01*
X1383537Y749300D01*
X1383537Y778692D01*
X1383526Y778763D01*
X1383524Y778834D01*
X1383506Y778883D01*
X1383498Y778935D01*
X1383464Y778998D01*
X1383439Y779065D01*
X1383407Y779106D01*
X1383382Y779152D01*
X1383331Y779201D01*
X1383286Y779257D01*
X1383242Y779286D01*
X1383204Y779321D01*
X1383139Y779352D01*
X1383079Y779390D01*
X1383028Y779403D01*
X1382981Y779425D01*
X1382910Y779433D01*
X1382840Y779450D01*
X1382788Y779446D01*
X1382737Y779452D01*
X1382666Y779437D01*
X1382595Y779431D01*
X1382547Y779411D01*
X1382496Y779400D01*
X1382435Y779363D01*
X1382369Y779335D01*
X1382313Y779290D01*
X1382285Y779274D01*
X1382270Y779256D01*
X1382238Y779230D01*
X1381476Y778468D01*
X1381423Y778394D01*
X1381363Y778325D01*
X1381351Y778295D01*
X1381332Y778268D01*
X1381305Y778181D01*
X1381271Y778097D01*
X1381267Y778056D01*
X1381260Y778033D01*
X1381261Y778001D01*
X1381253Y777930D01*
X1381253Y766176D01*
X1379783Y762628D01*
X1377068Y759913D01*
X1373520Y758443D01*
X1369680Y758443D01*
X1366132Y759913D01*
X1363417Y762628D01*
X1361947Y766176D01*
X1361947Y782502D01*
X1361936Y782573D01*
X1361934Y782644D01*
X1361916Y782693D01*
X1361908Y782745D01*
X1361874Y782808D01*
X1361849Y782875D01*
X1361817Y782916D01*
X1361792Y782962D01*
X1361741Y783011D01*
X1361696Y783067D01*
X1361652Y783096D01*
X1361614Y783131D01*
X1361549Y783162D01*
X1361489Y783200D01*
X1361438Y783213D01*
X1361391Y783235D01*
X1361320Y783243D01*
X1361250Y783260D01*
X1361198Y783256D01*
X1361147Y783262D01*
X1361076Y783247D01*
X1361005Y783241D01*
X1360957Y783221D01*
X1360906Y783210D01*
X1360845Y783173D01*
X1360779Y783145D01*
X1360723Y783100D01*
X1360695Y783084D01*
X1360680Y783066D01*
X1360648Y783040D01*
X1356076Y778468D01*
X1356023Y778394D01*
X1355963Y778325D01*
X1355951Y778295D01*
X1355932Y778268D01*
X1355905Y778181D01*
X1355871Y778097D01*
X1355867Y778056D01*
X1355860Y778033D01*
X1355861Y778001D01*
X1355853Y777930D01*
X1355853Y766176D01*
X1354383Y762628D01*
X1351668Y759913D01*
X1348120Y758443D01*
X1344280Y758443D01*
X1340732Y759913D01*
X1338017Y762628D01*
X1336547Y766176D01*
X1336547Y782502D01*
X1336536Y782573D01*
X1336534Y782644D01*
X1336516Y782693D01*
X1336508Y782745D01*
X1336474Y782808D01*
X1336449Y782875D01*
X1336417Y782916D01*
X1336392Y782962D01*
X1336340Y783011D01*
X1336296Y783067D01*
X1336252Y783095D01*
X1336214Y783131D01*
X1336149Y783162D01*
X1336089Y783200D01*
X1336038Y783213D01*
X1335991Y783235D01*
X1335920Y783243D01*
X1335850Y783260D01*
X1335798Y783256D01*
X1335747Y783262D01*
X1335676Y783247D01*
X1335605Y783241D01*
X1335557Y783221D01*
X1335506Y783210D01*
X1335445Y783173D01*
X1335379Y783145D01*
X1335323Y783100D01*
X1335295Y783084D01*
X1335280Y783066D01*
X1335248Y783040D01*
X1335066Y782858D01*
X1330676Y778468D01*
X1330623Y778394D01*
X1330563Y778325D01*
X1330551Y778295D01*
X1330532Y778268D01*
X1330505Y778181D01*
X1330471Y778097D01*
X1330467Y778056D01*
X1330460Y778033D01*
X1330461Y778001D01*
X1330453Y777930D01*
X1330453Y766176D01*
X1328983Y762628D01*
X1326268Y759913D01*
X1322720Y758443D01*
X1318880Y758443D01*
X1315332Y759913D01*
X1312617Y762628D01*
X1311147Y766176D01*
X1311147Y783224D01*
X1312617Y786772D01*
X1315332Y789487D01*
X1318880Y790957D01*
X1322720Y790957D01*
X1326268Y789487D01*
X1327335Y788420D01*
X1327352Y788408D01*
X1327364Y788392D01*
X1327451Y788337D01*
X1327535Y788276D01*
X1327554Y788270D01*
X1327571Y788259D01*
X1327671Y788234D01*
X1327770Y788204D01*
X1327790Y788204D01*
X1327809Y788199D01*
X1327912Y788207D01*
X1328016Y788210D01*
X1328035Y788217D01*
X1328055Y788218D01*
X1328150Y788259D01*
X1328247Y788294D01*
X1328263Y788307D01*
X1328281Y788315D01*
X1328412Y788420D01*
X1328958Y788966D01*
X1329012Y789040D01*
X1329071Y789109D01*
X1329083Y789139D01*
X1329102Y789166D01*
X1329129Y789253D01*
X1329163Y789337D01*
X1329167Y789378D01*
X1329174Y789401D01*
X1329173Y789433D01*
X1329181Y789504D01*
X1329181Y835128D01*
X1329162Y835243D01*
X1329145Y835359D01*
X1329143Y835365D01*
X1329142Y835371D01*
X1329087Y835473D01*
X1329034Y835578D01*
X1329029Y835583D01*
X1329026Y835588D01*
X1328942Y835668D01*
X1328858Y835751D01*
X1328852Y835754D01*
X1328848Y835758D01*
X1328831Y835766D01*
X1328711Y835832D01*
X1328032Y836113D01*
X1325317Y838828D01*
X1323847Y842376D01*
X1323847Y858702D01*
X1323836Y858773D01*
X1323834Y858844D01*
X1323816Y858893D01*
X1323808Y858945D01*
X1323774Y859008D01*
X1323749Y859075D01*
X1323717Y859116D01*
X1323692Y859162D01*
X1323640Y859211D01*
X1323596Y859267D01*
X1323552Y859296D01*
X1323514Y859331D01*
X1323449Y859362D01*
X1323389Y859400D01*
X1323338Y859413D01*
X1323291Y859435D01*
X1323220Y859443D01*
X1323150Y859460D01*
X1323098Y859456D01*
X1323047Y859462D01*
X1322976Y859447D01*
X1322905Y859441D01*
X1322857Y859421D01*
X1322806Y859410D01*
X1322745Y859373D01*
X1322679Y859345D01*
X1322623Y859300D01*
X1322595Y859284D01*
X1322580Y859266D01*
X1322548Y859240D01*
X1317976Y854668D01*
X1317923Y854594D01*
X1317863Y854525D01*
X1317851Y854495D01*
X1317832Y854468D01*
X1317805Y854381D01*
X1317771Y854297D01*
X1317767Y854256D01*
X1317760Y854233D01*
X1317761Y854201D01*
X1317753Y854130D01*
X1317753Y842376D01*
X1316283Y838828D01*
X1313568Y836113D01*
X1310020Y834643D01*
X1306180Y834643D01*
X1302632Y836113D01*
X1299917Y838828D01*
X1298447Y842376D01*
X1298447Y859424D01*
X1299917Y862972D01*
X1302632Y865687D01*
X1306180Y867157D01*
X1310020Y867157D01*
X1313568Y865687D01*
X1314635Y864620D01*
X1314652Y864608D01*
X1314664Y864592D01*
X1314751Y864536D01*
X1314835Y864476D01*
X1314854Y864470D01*
X1314871Y864459D01*
X1314971Y864434D01*
X1315070Y864404D01*
X1315090Y864404D01*
X1315109Y864399D01*
X1315212Y864407D01*
X1315316Y864410D01*
X1315335Y864417D01*
X1315355Y864418D01*
X1315450Y864459D01*
X1315547Y864494D01*
X1315563Y864507D01*
X1315581Y864515D01*
X1315712Y864620D01*
X1328958Y877866D01*
X1329011Y877940D01*
X1329071Y878009D01*
X1329083Y878039D01*
X1329102Y878066D01*
X1329129Y878153D01*
X1329163Y878237D01*
X1329167Y878278D01*
X1329174Y878301D01*
X1329173Y878333D01*
X1329181Y878404D01*
X1329181Y878634D01*
X1329167Y878724D01*
X1329159Y878815D01*
X1329147Y878845D01*
X1329142Y878877D01*
X1329099Y878957D01*
X1329063Y879041D01*
X1329037Y879073D01*
X1329026Y879094D01*
X1329003Y879116D01*
X1328958Y879172D01*
X1323339Y884791D01*
X1323339Y893209D01*
X1328958Y898828D01*
X1329011Y898902D01*
X1329071Y898971D01*
X1329083Y899001D01*
X1329102Y899027D01*
X1329129Y899114D01*
X1329163Y899199D01*
X1329167Y899240D01*
X1329174Y899263D01*
X1329173Y899295D01*
X1329181Y899366D01*
X1329181Y903489D01*
X1331934Y906242D01*
X1335236Y909544D01*
X1335278Y909602D01*
X1335327Y909654D01*
X1335349Y909701D01*
X1335380Y909743D01*
X1335401Y909812D01*
X1335431Y909877D01*
X1335437Y909929D01*
X1335452Y909979D01*
X1335450Y910050D01*
X1335458Y910121D01*
X1335447Y910172D01*
X1335446Y910224D01*
X1335421Y910292D01*
X1335406Y910362D01*
X1335379Y910407D01*
X1335361Y910455D01*
X1335316Y910511D01*
X1335280Y910573D01*
X1335240Y910607D01*
X1335208Y910647D01*
X1335147Y910686D01*
X1335093Y910733D01*
X1335044Y910752D01*
X1335001Y910780D01*
X1334931Y910798D01*
X1334865Y910825D01*
X1334793Y910833D01*
X1334762Y910841D01*
X1334739Y910839D01*
X1334698Y910843D01*
X1331580Y910843D01*
X1328032Y912313D01*
X1326965Y913380D01*
X1326948Y913392D01*
X1326936Y913408D01*
X1326849Y913464D01*
X1326765Y913524D01*
X1326746Y913530D01*
X1326729Y913541D01*
X1326629Y913566D01*
X1326530Y913596D01*
X1326510Y913596D01*
X1326491Y913601D01*
X1326388Y913593D01*
X1326284Y913590D01*
X1326265Y913583D01*
X1326245Y913582D01*
X1326150Y913541D01*
X1326053Y913506D01*
X1326037Y913493D01*
X1326019Y913485D01*
X1325888Y913380D01*
X1280964Y868456D01*
X1280922Y868398D01*
X1280873Y868346D01*
X1280851Y868299D01*
X1280820Y868257D01*
X1280799Y868188D01*
X1280769Y868123D01*
X1280763Y868071D01*
X1280748Y868021D01*
X1280750Y867950D01*
X1280742Y867879D01*
X1280753Y867828D01*
X1280754Y867776D01*
X1280779Y867708D01*
X1280794Y867638D01*
X1280821Y867594D01*
X1280839Y867545D01*
X1280884Y867489D01*
X1280920Y867427D01*
X1280960Y867393D01*
X1280992Y867353D01*
X1281053Y867314D01*
X1281107Y867267D01*
X1281156Y867248D01*
X1281199Y867220D01*
X1281269Y867202D01*
X1281335Y867175D01*
X1281407Y867167D01*
X1281438Y867159D01*
X1281461Y867161D01*
X1281502Y867157D01*
X1284620Y867157D01*
X1288168Y865687D01*
X1290883Y862972D01*
X1292353Y859424D01*
X1292353Y842376D01*
X1290883Y838828D01*
X1290417Y838362D01*
X1290364Y838288D01*
X1290304Y838218D01*
X1290292Y838188D01*
X1290273Y838162D01*
X1290246Y838075D01*
X1290212Y837990D01*
X1290208Y837949D01*
X1290201Y837927D01*
X1290202Y837895D01*
X1290194Y837823D01*
X1290194Y790735D01*
X1290201Y790690D01*
X1290199Y790644D01*
X1290221Y790569D01*
X1290233Y790492D01*
X1290255Y790452D01*
X1290268Y790407D01*
X1290312Y790343D01*
X1290349Y790275D01*
X1290382Y790243D01*
X1290408Y790205D01*
X1290470Y790159D01*
X1290527Y790105D01*
X1290569Y790086D01*
X1290605Y790059D01*
X1290679Y790034D01*
X1290750Y790002D01*
X1290796Y789997D01*
X1290839Y789982D01*
X1290917Y789983D01*
X1290994Y789975D01*
X1291039Y789984D01*
X1291085Y789985D01*
X1291217Y790023D01*
X1291235Y790027D01*
X1291239Y790029D01*
X1291246Y790031D01*
X1293480Y790957D01*
X1297320Y790957D01*
X1300868Y789487D01*
X1303583Y786772D01*
X1305053Y783224D01*
X1305053Y766176D01*
X1303583Y762628D01*
X1300868Y759913D01*
X1297320Y758443D01*
X1293480Y758443D01*
X1289932Y759913D01*
X1287217Y762628D01*
X1285747Y766176D01*
X1285747Y777930D01*
X1285733Y778020D01*
X1285725Y778111D01*
X1285713Y778141D01*
X1285708Y778173D01*
X1285665Y778253D01*
X1285629Y778337D01*
X1285603Y778369D01*
X1285592Y778390D01*
X1285569Y778412D01*
X1285524Y778468D01*
X1284762Y779230D01*
X1284704Y779272D01*
X1284652Y779321D01*
X1284605Y779343D01*
X1284563Y779374D01*
X1284494Y779395D01*
X1284429Y779425D01*
X1284377Y779431D01*
X1284327Y779446D01*
X1284256Y779444D01*
X1284185Y779452D01*
X1284134Y779441D01*
X1284082Y779440D01*
X1284014Y779415D01*
X1283944Y779400D01*
X1283900Y779373D01*
X1283851Y779355D01*
X1283795Y779310D01*
X1283733Y779274D01*
X1283699Y779234D01*
X1283659Y779202D01*
X1283620Y779141D01*
X1283573Y779087D01*
X1283554Y779038D01*
X1283526Y778995D01*
X1283508Y778925D01*
X1283481Y778859D01*
X1283473Y778787D01*
X1283465Y778756D01*
X1283467Y778733D01*
X1283463Y778692D01*
X1283463Y749300D01*
X1283466Y749280D01*
X1283464Y749261D01*
X1283486Y749159D01*
X1283502Y749057D01*
X1283512Y749040D01*
X1283516Y749020D01*
X1283569Y748931D01*
X1283618Y748840D01*
X1283632Y748826D01*
X1283642Y748809D01*
X1283721Y748742D01*
X1283796Y748671D01*
X1283814Y748662D01*
X1283829Y748649D01*
X1283925Y748610D01*
X1284019Y748567D01*
X1284039Y748565D01*
X1284057Y748557D01*
X1284224Y748539D01*
X1382776Y748539D01*
X1382796Y748542D01*
G37*
G36*
X1280885Y790711D02*
X1280885Y790711D01*
X1280937Y790712D01*
X1281005Y790737D01*
X1281075Y790752D01*
X1281119Y790779D01*
X1281168Y790797D01*
X1281224Y790842D01*
X1281286Y790878D01*
X1281320Y790918D01*
X1281360Y790951D01*
X1281399Y791011D01*
X1281446Y791065D01*
X1281465Y791114D01*
X1281493Y791157D01*
X1281511Y791227D01*
X1281538Y791293D01*
X1281546Y791365D01*
X1281554Y791396D01*
X1281552Y791419D01*
X1281556Y791460D01*
X1281556Y833882D01*
X1281553Y833902D01*
X1281555Y833921D01*
X1281533Y834023D01*
X1281517Y834125D01*
X1281507Y834142D01*
X1281503Y834162D01*
X1281450Y834251D01*
X1281401Y834342D01*
X1281387Y834356D01*
X1281377Y834373D01*
X1281298Y834440D01*
X1281223Y834512D01*
X1281205Y834520D01*
X1281190Y834533D01*
X1281094Y834572D01*
X1281000Y834615D01*
X1280980Y834617D01*
X1280962Y834625D01*
X1280795Y834643D01*
X1280780Y834643D01*
X1277232Y836113D01*
X1274517Y838828D01*
X1273047Y842376D01*
X1273047Y858702D01*
X1273036Y858773D01*
X1273034Y858844D01*
X1273016Y858893D01*
X1273008Y858945D01*
X1272974Y859008D01*
X1272949Y859075D01*
X1272917Y859116D01*
X1272892Y859162D01*
X1272840Y859211D01*
X1272796Y859267D01*
X1272752Y859296D01*
X1272714Y859331D01*
X1272649Y859362D01*
X1272589Y859400D01*
X1272538Y859413D01*
X1272491Y859435D01*
X1272420Y859443D01*
X1272350Y859460D01*
X1272298Y859456D01*
X1272247Y859462D01*
X1272176Y859447D01*
X1272105Y859441D01*
X1272057Y859421D01*
X1272006Y859410D01*
X1271945Y859373D01*
X1271879Y859345D01*
X1271823Y859300D01*
X1271795Y859284D01*
X1271780Y859266D01*
X1271748Y859240D01*
X1267176Y854668D01*
X1267123Y854594D01*
X1267063Y854525D01*
X1267051Y854495D01*
X1267032Y854468D01*
X1267005Y854381D01*
X1266971Y854297D01*
X1266967Y854256D01*
X1266960Y854233D01*
X1266961Y854201D01*
X1266953Y854130D01*
X1266953Y842376D01*
X1265483Y838828D01*
X1262768Y836113D01*
X1259220Y834643D01*
X1255380Y834643D01*
X1251832Y836113D01*
X1249117Y838828D01*
X1247647Y842376D01*
X1247647Y859424D01*
X1249117Y862972D01*
X1251832Y865687D01*
X1252511Y865968D01*
X1252611Y866030D01*
X1252711Y866090D01*
X1252715Y866095D01*
X1252720Y866098D01*
X1252795Y866189D01*
X1252871Y866277D01*
X1252873Y866283D01*
X1252877Y866288D01*
X1252919Y866396D01*
X1252963Y866505D01*
X1252964Y866513D01*
X1252965Y866517D01*
X1252966Y866535D01*
X1252981Y866672D01*
X1252981Y878634D01*
X1252967Y878724D01*
X1252959Y878815D01*
X1252947Y878845D01*
X1252942Y878877D01*
X1252899Y878957D01*
X1252863Y879041D01*
X1252837Y879073D01*
X1252826Y879094D01*
X1252803Y879116D01*
X1252758Y879172D01*
X1247139Y884791D01*
X1247139Y893209D01*
X1253091Y899161D01*
X1261509Y899161D01*
X1267461Y893209D01*
X1267461Y884791D01*
X1261842Y879172D01*
X1261789Y879098D01*
X1261729Y879029D01*
X1261717Y878999D01*
X1261698Y878973D01*
X1261671Y878886D01*
X1261637Y878801D01*
X1261633Y878760D01*
X1261626Y878737D01*
X1261627Y878705D01*
X1261619Y878634D01*
X1261619Y866672D01*
X1261638Y866557D01*
X1261655Y866441D01*
X1261657Y866435D01*
X1261658Y866429D01*
X1261713Y866327D01*
X1261766Y866222D01*
X1261771Y866217D01*
X1261774Y866212D01*
X1261858Y866132D01*
X1261942Y866049D01*
X1261948Y866046D01*
X1261952Y866042D01*
X1261969Y866034D01*
X1262089Y865968D01*
X1262768Y865687D01*
X1263835Y864620D01*
X1263852Y864608D01*
X1263864Y864592D01*
X1263951Y864536D01*
X1264035Y864476D01*
X1264054Y864470D01*
X1264071Y864459D01*
X1264171Y864434D01*
X1264270Y864404D01*
X1264290Y864404D01*
X1264309Y864399D01*
X1264412Y864407D01*
X1264516Y864410D01*
X1264535Y864417D01*
X1264555Y864418D01*
X1264650Y864459D01*
X1264747Y864494D01*
X1264763Y864507D01*
X1264781Y864515D01*
X1264912Y864620D01*
X1309836Y909544D01*
X1309878Y909602D01*
X1309927Y909654D01*
X1309949Y909701D01*
X1309980Y909743D01*
X1310001Y909812D01*
X1310031Y909877D01*
X1310037Y909929D01*
X1310052Y909979D01*
X1310050Y910050D01*
X1310058Y910121D01*
X1310047Y910172D01*
X1310046Y910224D01*
X1310021Y910292D01*
X1310006Y910362D01*
X1309979Y910406D01*
X1309961Y910455D01*
X1309916Y910511D01*
X1309880Y910573D01*
X1309840Y910607D01*
X1309808Y910647D01*
X1309747Y910686D01*
X1309693Y910733D01*
X1309644Y910752D01*
X1309601Y910780D01*
X1309531Y910798D01*
X1309465Y910825D01*
X1309393Y910833D01*
X1309362Y910841D01*
X1309339Y910839D01*
X1309298Y910843D01*
X1306180Y910843D01*
X1302632Y912313D01*
X1299917Y915028D01*
X1298447Y918576D01*
X1298447Y922068D01*
X1298433Y922158D01*
X1298425Y922249D01*
X1298413Y922279D01*
X1298408Y922311D01*
X1298365Y922391D01*
X1298329Y922475D01*
X1298303Y922507D01*
X1298292Y922528D01*
X1298269Y922550D01*
X1298224Y922606D01*
X1296101Y924729D01*
X1293652Y927178D01*
X1293594Y927220D01*
X1293542Y927270D01*
X1293495Y927291D01*
X1293453Y927322D01*
X1293384Y927343D01*
X1293319Y927373D01*
X1293267Y927379D01*
X1293217Y927394D01*
X1293146Y927392D01*
X1293075Y927400D01*
X1293024Y927389D01*
X1292972Y927388D01*
X1292904Y927363D01*
X1292834Y927348D01*
X1292789Y927321D01*
X1292741Y927303D01*
X1292685Y927259D01*
X1292623Y927222D01*
X1292589Y927182D01*
X1292549Y927150D01*
X1292510Y927089D01*
X1292463Y927035D01*
X1292444Y926987D01*
X1292416Y926943D01*
X1292398Y926873D01*
X1292371Y926807D01*
X1292363Y926735D01*
X1292355Y926704D01*
X1292357Y926681D01*
X1292353Y926640D01*
X1292353Y918576D01*
X1291141Y915650D01*
X1291126Y915586D01*
X1291101Y915525D01*
X1291092Y915442D01*
X1291085Y915410D01*
X1291086Y915391D01*
X1291083Y915358D01*
X1291083Y914588D01*
X1291084Y914578D01*
X1291083Y914569D01*
X1291105Y914403D01*
X1291144Y914250D01*
X1291101Y914145D01*
X1291101Y914142D01*
X1291100Y914141D01*
X1291100Y914134D01*
X1291096Y914097D01*
X1290992Y913993D01*
X1290987Y913986D01*
X1290979Y913980D01*
X1290878Y913847D01*
X1290796Y913712D01*
X1290692Y913667D01*
X1290690Y913666D01*
X1290689Y913665D01*
X1290684Y913660D01*
X1290655Y913637D01*
X1290508Y913637D01*
X1290498Y913636D01*
X1290489Y913637D01*
X1290323Y913615D01*
X1289390Y913381D01*
X1289276Y913332D01*
X1289167Y913286D01*
X1289165Y913284D01*
X1289164Y913284D01*
X1289158Y913279D01*
X1289036Y913181D01*
X1288168Y912313D01*
X1284620Y910843D01*
X1280780Y910843D01*
X1280432Y910988D01*
X1280397Y910996D01*
X1280366Y911011D01*
X1280278Y911024D01*
X1280192Y911044D01*
X1280157Y911040D01*
X1280122Y911045D01*
X1279956Y911023D01*
X1240859Y901249D01*
X1240813Y901229D01*
X1240764Y901218D01*
X1240701Y901180D01*
X1240634Y901151D01*
X1240596Y901118D01*
X1240553Y901092D01*
X1240505Y901036D01*
X1240451Y900987D01*
X1240426Y900943D01*
X1240393Y900905D01*
X1240366Y900837D01*
X1240329Y900773D01*
X1240320Y900723D01*
X1240301Y900677D01*
X1240288Y900556D01*
X1240283Y900531D01*
X1240284Y900523D01*
X1240283Y900510D01*
X1240283Y826284D01*
X1240288Y826254D01*
X1240285Y826223D01*
X1240308Y826133D01*
X1240322Y826042D01*
X1240337Y826014D01*
X1240344Y825984D01*
X1240394Y825906D01*
X1240438Y825824D01*
X1240460Y825803D01*
X1240477Y825777D01*
X1240602Y825665D01*
X1257346Y813705D01*
X1257372Y813692D01*
X1257394Y813673D01*
X1257482Y813638D01*
X1257567Y813596D01*
X1257585Y813593D01*
X1257750Y813429D01*
X1257777Y813410D01*
X1257846Y813347D01*
X1258039Y813209D01*
X1258051Y813174D01*
X1258069Y813151D01*
X1258080Y813125D01*
X1258185Y812994D01*
X1280257Y790922D01*
X1280315Y790880D01*
X1280367Y790831D01*
X1280414Y790809D01*
X1280456Y790778D01*
X1280525Y790757D01*
X1280590Y790727D01*
X1280642Y790721D01*
X1280692Y790706D01*
X1280763Y790708D01*
X1280834Y790700D01*
X1280885Y790711D01*
G37*
%LPC*%
G36*
X1436623Y928623D02*
X1436623Y928623D01*
X1436623Y942725D01*
X1437767Y942497D01*
X1439432Y941808D01*
X1440930Y940807D01*
X1442203Y939534D01*
X1443204Y938036D01*
X1443893Y936371D01*
X1444245Y934605D01*
X1444245Y928623D01*
X1436623Y928623D01*
G37*
%LPD*%
%LPC*%
G36*
X1436623Y925577D02*
X1436623Y925577D01*
X1444245Y925577D01*
X1444245Y919595D01*
X1443893Y917829D01*
X1443204Y916164D01*
X1442203Y914666D01*
X1440930Y913393D01*
X1439432Y912392D01*
X1437767Y911703D01*
X1436623Y911475D01*
X1436623Y925577D01*
G37*
%LPD*%
%LPC*%
G36*
X1425955Y928623D02*
X1425955Y928623D01*
X1425955Y934605D01*
X1426307Y936371D01*
X1426996Y938036D01*
X1427997Y939534D01*
X1429270Y940807D01*
X1430768Y941808D01*
X1432433Y942497D01*
X1433577Y942725D01*
X1433577Y928623D01*
X1425955Y928623D01*
G37*
%LPD*%
%LPC*%
G36*
X1435099Y927099D02*
X1435099Y927099D01*
X1435099Y927101D01*
X1435101Y927101D01*
X1435101Y927099D01*
X1435099Y927099D01*
G37*
%LPD*%
D10*
X1795018Y1016000D02*
X1811782Y1016000D01*
X1811782Y990600D02*
X1795018Y990600D01*
X1795018Y965200D02*
X1811782Y965200D01*
D11*
X1689100Y965200D03*
D12*
X1689100Y990600D03*
D13*
X1765300Y1016000D03*
X1765300Y965200D03*
D14*
X1752600Y1066800D03*
X1701800Y1066800D03*
D15*
X1035304Y241300D02*
X1022096Y241300D01*
X1022096Y266700D02*
X1035304Y266700D01*
X1035304Y393700D02*
X1022096Y393700D01*
X1022096Y419100D02*
X1035304Y419100D01*
X1035304Y292100D02*
X1022096Y292100D01*
X1022096Y317500D02*
X1035304Y317500D01*
X1035304Y368300D02*
X1022096Y368300D01*
X1022096Y342900D02*
X1035304Y342900D01*
X1035304Y444500D02*
X1022096Y444500D01*
X1022096Y469900D02*
X1035304Y469900D01*
X1035304Y495300D02*
X1022096Y495300D01*
X1022096Y520700D02*
X1035304Y520700D01*
X1035304Y546100D02*
X1022096Y546100D01*
X1022096Y571500D02*
X1035304Y571500D01*
X1035304Y596900D02*
X1022096Y596900D01*
X1022096Y622300D02*
X1035304Y622300D01*
X1035304Y647700D02*
X1022096Y647700D01*
X1022096Y673100D02*
X1035304Y673100D01*
X1035304Y698500D02*
X1022096Y698500D01*
X1022096Y723900D02*
X1035304Y723900D01*
X882904Y723900D02*
X869696Y723900D01*
X869696Y698500D02*
X882904Y698500D01*
X882904Y673100D02*
X869696Y673100D01*
X869696Y647700D02*
X882904Y647700D01*
X882904Y622300D02*
X869696Y622300D01*
X869696Y596900D02*
X882904Y596900D01*
X882904Y571500D02*
X869696Y571500D01*
X869696Y546100D02*
X882904Y546100D01*
X882904Y520700D02*
X869696Y520700D01*
X869696Y495300D02*
X882904Y495300D01*
X882904Y469900D02*
X869696Y469900D01*
X869696Y444500D02*
X882904Y444500D01*
X882904Y419100D02*
X869696Y419100D01*
X869696Y393700D02*
X882904Y393700D01*
X882904Y368300D02*
X869696Y368300D01*
X869696Y342900D02*
X882904Y342900D01*
X882904Y317500D02*
X869696Y317500D01*
X869696Y292100D02*
X882904Y292100D01*
X882904Y266700D02*
X869696Y266700D01*
X869696Y241300D02*
X882904Y241300D01*
X1270000Y95504D02*
X1270000Y82296D01*
X1295400Y82296D02*
X1295400Y95504D01*
X1320800Y95504D02*
X1320800Y82296D01*
X1346200Y82296D02*
X1346200Y95504D01*
X1371600Y95504D02*
X1371600Y82296D01*
X1397000Y82296D02*
X1397000Y95504D01*
X1422400Y95504D02*
X1422400Y82296D01*
X1447800Y82296D02*
X1447800Y95504D01*
X1473200Y95504D02*
X1473200Y82296D01*
X1498600Y82296D02*
X1498600Y95504D01*
X1524000Y95504D02*
X1524000Y82296D01*
X1524000Y183896D02*
X1524000Y197104D01*
X1498600Y197104D02*
X1498600Y183896D01*
X1473200Y183896D02*
X1473200Y197104D01*
X1447800Y197104D02*
X1447800Y183896D01*
X1422400Y183896D02*
X1422400Y197104D01*
X1397000Y197104D02*
X1397000Y183896D01*
X1371600Y183896D02*
X1371600Y197104D01*
X1346200Y197104D02*
X1346200Y183896D01*
X1320800Y183896D02*
X1320800Y197104D01*
X1295400Y197104D02*
X1295400Y183896D01*
X1270000Y183896D02*
X1270000Y197104D01*
X1206500Y920496D02*
X1206500Y933704D01*
X1231900Y933704D02*
X1231900Y920496D01*
X1358900Y920496D02*
X1358900Y933704D01*
X1384300Y933704D02*
X1384300Y920496D01*
X1257300Y920496D02*
X1257300Y933704D01*
X1282700Y933704D02*
X1282700Y920496D01*
X1333500Y920496D02*
X1333500Y933704D01*
X1308100Y933704D02*
X1308100Y920496D01*
X1409700Y920496D02*
X1409700Y933704D01*
X1435100Y933704D02*
X1435100Y920496D01*
X1435100Y996696D02*
X1435100Y1009904D01*
X1409700Y1009904D02*
X1409700Y996696D01*
X1384300Y996696D02*
X1384300Y1009904D01*
X1358900Y1009904D02*
X1358900Y996696D01*
X1333500Y996696D02*
X1333500Y1009904D01*
X1308100Y1009904D02*
X1308100Y996696D01*
X1282700Y996696D02*
X1282700Y1009904D01*
X1257300Y1009904D02*
X1257300Y996696D01*
X1231900Y996696D02*
X1231900Y1009904D01*
X1206500Y1009904D02*
X1206500Y996696D01*
D16*
X850900Y762000D03*
X850900Y838200D03*
D13*
X914400Y838200D03*
X914400Y762000D03*
D17*
X1498600Y50800D03*
X1524000Y50800D03*
D16*
X1143000Y901700D03*
X1143000Y927100D03*
X1104900Y787400D03*
X1104900Y863600D03*
D15*
X1270000Y400304D02*
X1270000Y387096D01*
X1295400Y387096D02*
X1295400Y400304D01*
X1422400Y400304D02*
X1422400Y387096D01*
X1447800Y387096D02*
X1447800Y400304D01*
X1320800Y400304D02*
X1320800Y387096D01*
X1346200Y387096D02*
X1346200Y400304D01*
X1397000Y400304D02*
X1397000Y387096D01*
X1371600Y387096D02*
X1371600Y400304D01*
X1473200Y400304D02*
X1473200Y387096D01*
X1498600Y387096D02*
X1498600Y400304D01*
X1498600Y768096D02*
X1498600Y781304D01*
X1473200Y781304D02*
X1473200Y768096D01*
X1447800Y768096D02*
X1447800Y781304D01*
X1422400Y781304D02*
X1422400Y768096D01*
X1397000Y768096D02*
X1397000Y781304D01*
X1371600Y781304D02*
X1371600Y768096D01*
X1346200Y768096D02*
X1346200Y781304D01*
X1320800Y781304D02*
X1320800Y768096D01*
X1295400Y768096D02*
X1295400Y781304D01*
X1270000Y781304D02*
X1270000Y768096D01*
D18*
X1511300Y856488D02*
X1511300Y870712D01*
X1536700Y870712D02*
X1536700Y856488D01*
D13*
X1587500Y304800D03*
X1587500Y228600D03*
D19*
X1257300Y889000D03*
X1333500Y889000D03*
D20*
X1435100Y889000D03*
X1358900Y889000D03*
D16*
X1143000Y838200D03*
X1143000Y863600D03*
D13*
X1104900Y749300D03*
X1104900Y673100D03*
X1130300Y749300D03*
X1130300Y673100D03*
D15*
X1257300Y844296D02*
X1257300Y857504D01*
X1282700Y857504D02*
X1282700Y844296D01*
X1308100Y844296D02*
X1308100Y857504D01*
X1333500Y857504D02*
X1333500Y844296D01*
X1358900Y844296D02*
X1358900Y857504D01*
X1384300Y857504D02*
X1384300Y844296D01*
X1409700Y844296D02*
X1409700Y857504D01*
X1435100Y857504D02*
X1435100Y844296D01*
X1707896Y457200D02*
X1721104Y457200D01*
X1721104Y482600D02*
X1707896Y482600D01*
X1707896Y609600D02*
X1721104Y609600D01*
X1721104Y635000D02*
X1707896Y635000D01*
X1707896Y508000D02*
X1721104Y508000D01*
X1721104Y533400D02*
X1707896Y533400D01*
X1707896Y584200D02*
X1721104Y584200D01*
X1721104Y558800D02*
X1707896Y558800D01*
X1644904Y635000D02*
X1631696Y635000D01*
X1631696Y609600D02*
X1644904Y609600D01*
X1644904Y584200D02*
X1631696Y584200D01*
X1631696Y558800D02*
X1644904Y558800D01*
X1644904Y533400D02*
X1631696Y533400D01*
X1631696Y508000D02*
X1644904Y508000D01*
X1644904Y482600D02*
X1631696Y482600D01*
X1631696Y457200D02*
X1644904Y457200D01*
X1707896Y203200D02*
X1721104Y203200D01*
X1721104Y228600D02*
X1707896Y228600D01*
X1707896Y355600D02*
X1721104Y355600D01*
X1644904Y355600D02*
X1631696Y355600D01*
X1707896Y254000D02*
X1721104Y254000D01*
X1721104Y279400D02*
X1707896Y279400D01*
X1707896Y330200D02*
X1721104Y330200D01*
X1721104Y304800D02*
X1707896Y304800D01*
X1644904Y330200D02*
X1631696Y330200D01*
X1631696Y304800D02*
X1644904Y304800D01*
X1644904Y279400D02*
X1631696Y279400D01*
X1631696Y254000D02*
X1644904Y254000D01*
X1644904Y228600D02*
X1631696Y228600D01*
X1631696Y203200D02*
X1644904Y203200D01*
X1707896Y736600D02*
X1721104Y736600D01*
X1721104Y762000D02*
X1707896Y762000D01*
X1707896Y889000D02*
X1721104Y889000D01*
X1644904Y889000D02*
X1631696Y889000D01*
X1707896Y787400D02*
X1721104Y787400D01*
X1721104Y812800D02*
X1707896Y812800D01*
X1707896Y863600D02*
X1721104Y863600D01*
X1721104Y838200D02*
X1707896Y838200D01*
X1644904Y863600D02*
X1631696Y863600D01*
X1631696Y838200D02*
X1644904Y838200D01*
X1644904Y812800D02*
X1631696Y812800D01*
X1631696Y787400D02*
X1644904Y787400D01*
X1644904Y762000D02*
X1631696Y762000D01*
X1631696Y736600D02*
X1644904Y736600D01*
D16*
X965200Y762000D03*
X965200Y838200D03*
D15*
X863600Y82804D02*
X863600Y69596D01*
X889000Y69596D02*
X889000Y82804D01*
X914400Y82804D02*
X914400Y69596D01*
X939800Y69596D02*
X939800Y82804D01*
X939800Y145796D02*
X939800Y159004D01*
X914400Y159004D02*
X914400Y145796D01*
X889000Y145796D02*
X889000Y159004D01*
X863600Y159004D02*
X863600Y145796D01*
D13*
X1041400Y152400D03*
X1041400Y76200D03*
D16*
X990600Y76200D03*
X990600Y152400D03*
D13*
X939800Y838200D03*
X939800Y762000D03*
D15*
X1016000Y159004D02*
X1016000Y145796D01*
X1016000Y82804D02*
X1016000Y69596D01*
D16*
X1066800Y76200D03*
X1066800Y152400D03*
D15*
X1092200Y82804D02*
X1092200Y69596D01*
X1092200Y145796D02*
X1092200Y159004D01*
D17*
X1016000Y38100D03*
X1092200Y38100D03*
X1066800Y203200D03*
X1092200Y203200D03*
X1066800Y241300D03*
X1092200Y241300D03*
D16*
X1066800Y393700D03*
X1066800Y469900D03*
D15*
X901700Y882396D02*
X901700Y895604D01*
X850900Y895604D02*
X850900Y882396D01*
X876300Y882396D02*
X876300Y895604D01*
D16*
X952500Y901700D03*
X933450Y889000D03*
X952500Y876300D03*
D17*
X1066800Y330200D03*
X1092200Y330200D03*
X1066800Y279400D03*
X1092200Y279400D03*
D21*
X1231900Y279400D03*
D22*
X1536700Y279400D03*
D21*
X1803400Y698500D03*
D23*
X1803400Y393700D03*
D13*
X1638300Y698500D03*
X1638300Y673100D03*
X1638300Y419100D03*
X1638300Y393700D03*
D11*
X1701800Y673100D03*
D12*
X1701800Y698500D03*
D11*
X1701800Y393700D03*
D12*
X1701800Y419100D03*
D24*
X1600200Y939800D03*
D12*
X1625600Y939800D03*
D25*
X1600200Y165100D03*
D12*
X1574800Y165100D03*
D25*
X1600200Y88900D03*
D12*
X1574800Y88900D03*
D17*
X901700Y38100D03*
X927100Y38100D03*
D11*
X1181100Y165100D03*
D12*
X1181100Y190500D03*
D17*
X1282700Y63500D03*
X1308100Y63500D03*
D13*
X1219200Y114300D03*
X1219200Y88900D03*
D25*
X1130300Y571500D03*
D12*
X1104900Y571500D03*
D17*
X1104900Y508000D03*
X1130300Y508000D03*
X1104900Y635000D03*
X1130300Y635000D03*
D26*
X1092200Y927100D03*
D12*
X1092200Y901700D03*
D11*
X1143000Y977900D03*
D12*
X1143000Y1003300D03*
D13*
X1092200Y1003300D03*
X1092200Y977900D03*
X990600Y965200D03*
X990600Y939800D03*
D26*
X914400Y977900D03*
D12*
X914400Y952500D03*
D26*
X1193800Y876300D03*
D12*
X1193800Y850900D03*
D13*
X1638300Y152400D03*
X1638300Y127000D03*
D17*
X1689100Y152400D03*
X1714500Y152400D03*
D14*
X1625600Y990600D03*
X1600200Y990600D03*
D16*
X1943100Y660400D03*
X1943100Y685800D03*
X1943100Y749300D03*
X1943100Y774700D03*
D17*
X1765300Y749300D03*
X1841500Y749300D03*
X1765300Y800100D03*
X1841500Y800100D03*
D10*
X1811782Y304800D02*
X1795018Y304800D01*
X1795018Y279400D02*
X1811782Y279400D01*
X1811782Y254000D02*
X1795018Y254000D01*
D11*
X1803400Y25400D03*
D12*
X1803400Y50800D03*
D16*
X1765300Y304800D03*
X1765300Y355600D03*
D13*
X1765300Y254000D03*
X1765300Y203200D03*
D15*
X794004Y685800D02*
X780796Y685800D01*
X780796Y711200D02*
X794004Y711200D01*
X794004Y838200D02*
X780796Y838200D01*
X717804Y838200D02*
X704596Y838200D01*
X780796Y736600D02*
X794004Y736600D01*
X794004Y762000D02*
X780796Y762000D01*
X780796Y812800D02*
X794004Y812800D01*
X794004Y787400D02*
X780796Y787400D01*
X717804Y812800D02*
X704596Y812800D01*
X704596Y787400D02*
X717804Y787400D01*
X717804Y762000D02*
X704596Y762000D01*
X704596Y736600D02*
X717804Y736600D01*
X717804Y711200D02*
X704596Y711200D01*
X704596Y685800D02*
X717804Y685800D01*
D27*
X698500Y977900D03*
X698500Y901700D03*
X774700Y901700D03*
X774700Y977900D03*
D16*
X825500Y952500D03*
X825500Y977900D03*
D17*
X711200Y660400D03*
X736600Y660400D03*
D15*
X1936496Y558800D02*
X1949704Y558800D01*
X1949704Y533400D02*
X1936496Y533400D01*
X1936496Y457200D02*
X1949704Y457200D01*
X1949704Y431800D02*
X1936496Y431800D01*
X1936496Y406400D02*
X1949704Y406400D01*
X1949704Y508000D02*
X1936496Y508000D01*
X1936496Y381000D02*
X1949704Y381000D01*
X616204Y736600D02*
X602996Y736600D01*
X602996Y762000D02*
X616204Y762000D01*
X616204Y787400D02*
X602996Y787400D01*
X602996Y812800D02*
X616204Y812800D01*
X616204Y838200D02*
X602996Y838200D01*
X602996Y863600D02*
X616204Y863600D01*
X616204Y889000D02*
X602996Y889000D01*
X602996Y914400D02*
X616204Y914400D01*
X616204Y939800D02*
X602996Y939800D01*
X602996Y965200D02*
X616204Y965200D01*
X616204Y990600D02*
X602996Y990600D01*
X602996Y1016000D02*
X616204Y1016000D01*
X616204Y1041400D02*
X602996Y1041400D01*
X602996Y1066800D02*
X616204Y1066800D01*
X463804Y1066800D02*
X450596Y1066800D01*
X450596Y1041400D02*
X463804Y1041400D01*
X463804Y1016000D02*
X450596Y1016000D01*
X450596Y990600D02*
X463804Y990600D01*
X463804Y965200D02*
X450596Y965200D01*
X450596Y939800D02*
X463804Y939800D01*
X463804Y914400D02*
X450596Y914400D01*
X450596Y889000D02*
X463804Y889000D01*
X463804Y863600D02*
X450596Y863600D01*
X450596Y838200D02*
X463804Y838200D01*
X463804Y812800D02*
X450596Y812800D01*
X450596Y787400D02*
X463804Y787400D01*
X463804Y762000D02*
X450596Y762000D01*
X450596Y736600D02*
X463804Y736600D01*
X400304Y736600D02*
X387096Y736600D01*
X387096Y762000D02*
X400304Y762000D01*
X400304Y889000D02*
X387096Y889000D01*
X387096Y914400D02*
X400304Y914400D01*
X400304Y787400D02*
X387096Y787400D01*
X387096Y812800D02*
X400304Y812800D01*
X400304Y863600D02*
X387096Y863600D01*
X387096Y838200D02*
X400304Y838200D01*
X400304Y939800D02*
X387096Y939800D01*
X387096Y965200D02*
X400304Y965200D01*
X400304Y990600D02*
X387096Y990600D01*
X387096Y1016000D02*
X400304Y1016000D01*
X400304Y1041400D02*
X387096Y1041400D01*
X387096Y1066800D02*
X400304Y1066800D01*
X247904Y1066800D02*
X234696Y1066800D01*
X234696Y1041400D02*
X247904Y1041400D01*
X247904Y1016000D02*
X234696Y1016000D01*
X234696Y990600D02*
X247904Y990600D01*
X247904Y965200D02*
X234696Y965200D01*
X234696Y939800D02*
X247904Y939800D01*
X247904Y914400D02*
X234696Y914400D01*
X234696Y889000D02*
X247904Y889000D01*
X247904Y863600D02*
X234696Y863600D01*
X234696Y838200D02*
X247904Y838200D01*
X247904Y812800D02*
X234696Y812800D01*
X234696Y787400D02*
X247904Y787400D01*
X247904Y762000D02*
X234696Y762000D01*
X234696Y736600D02*
X247904Y736600D01*
X602996Y177800D02*
X616204Y177800D01*
X616204Y203200D02*
X602996Y203200D01*
X602996Y330200D02*
X616204Y330200D01*
X616204Y355600D02*
X602996Y355600D01*
X602996Y228600D02*
X616204Y228600D01*
X616204Y254000D02*
X602996Y254000D01*
X602996Y304800D02*
X616204Y304800D01*
X616204Y279400D02*
X602996Y279400D01*
X602996Y381000D02*
X616204Y381000D01*
X616204Y406400D02*
X602996Y406400D01*
X602996Y431800D02*
X616204Y431800D01*
X616204Y457200D02*
X602996Y457200D01*
X602996Y482600D02*
X616204Y482600D01*
X616204Y508000D02*
X602996Y508000D01*
X602996Y533400D02*
X616204Y533400D01*
X616204Y558800D02*
X602996Y558800D01*
X602996Y584200D02*
X616204Y584200D01*
X616204Y609600D02*
X602996Y609600D01*
X602996Y635000D02*
X616204Y635000D01*
X616204Y660400D02*
X602996Y660400D01*
X463804Y660400D02*
X450596Y660400D01*
X450596Y635000D02*
X463804Y635000D01*
X463804Y609600D02*
X450596Y609600D01*
X450596Y584200D02*
X463804Y584200D01*
X463804Y558800D02*
X450596Y558800D01*
X450596Y533400D02*
X463804Y533400D01*
X463804Y508000D02*
X450596Y508000D01*
X450596Y482600D02*
X463804Y482600D01*
X463804Y457200D02*
X450596Y457200D01*
X450596Y431800D02*
X463804Y431800D01*
X463804Y406400D02*
X450596Y406400D01*
X450596Y381000D02*
X463804Y381000D01*
X463804Y355600D02*
X450596Y355600D01*
X450596Y330200D02*
X463804Y330200D01*
X463804Y304800D02*
X450596Y304800D01*
X450596Y279400D02*
X463804Y279400D01*
X463804Y254000D02*
X450596Y254000D01*
X450596Y228600D02*
X463804Y228600D01*
X463804Y203200D02*
X450596Y203200D01*
X450596Y177800D02*
X463804Y177800D01*
D28*
X279400Y58420D02*
X279400Y43180D01*
X304800Y43180D02*
X304800Y58420D01*
X330200Y58420D02*
X330200Y43180D01*
X355600Y43180D02*
X355600Y58420D01*
X381000Y58420D02*
X381000Y43180D01*
X406400Y43180D02*
X406400Y58420D01*
D13*
X279400Y114300D03*
X279400Y88900D03*
X368300Y114300D03*
X368300Y88900D03*
X393700Y114300D03*
X393700Y88900D03*
D18*
X324612Y88900D02*
X310388Y88900D01*
X310388Y114300D02*
X324612Y114300D01*
D28*
X457200Y58420D02*
X457200Y43180D01*
X482600Y43180D02*
X482600Y58420D01*
X508000Y58420D02*
X508000Y43180D01*
X533400Y43180D02*
X533400Y58420D01*
X558800Y58420D02*
X558800Y43180D01*
X584200Y43180D02*
X584200Y58420D01*
D13*
X457200Y114300D03*
X457200Y88900D03*
X533400Y114300D03*
X533400Y88900D03*
X558800Y114300D03*
X558800Y88900D03*
D18*
X502412Y88900D02*
X488188Y88900D01*
X488188Y114300D02*
X502412Y114300D01*
D15*
X362204Y177800D02*
X348996Y177800D01*
X348996Y203200D02*
X362204Y203200D01*
X362204Y330200D02*
X348996Y330200D01*
X348996Y355600D02*
X362204Y355600D01*
X362204Y228600D02*
X348996Y228600D01*
X348996Y254000D02*
X362204Y254000D01*
X362204Y304800D02*
X348996Y304800D01*
X348996Y279400D02*
X362204Y279400D01*
X362204Y381000D02*
X348996Y381000D01*
X348996Y406400D02*
X362204Y406400D01*
X362204Y431800D02*
X348996Y431800D01*
X348996Y457200D02*
X362204Y457200D01*
X362204Y482600D02*
X348996Y482600D01*
X348996Y508000D02*
X362204Y508000D01*
X362204Y533400D02*
X348996Y533400D01*
X348996Y558800D02*
X362204Y558800D01*
X362204Y584200D02*
X348996Y584200D01*
X348996Y609600D02*
X362204Y609600D01*
X362204Y635000D02*
X348996Y635000D01*
X348996Y660400D02*
X362204Y660400D01*
X209804Y660400D02*
X196596Y660400D01*
X196596Y635000D02*
X209804Y635000D01*
X209804Y609600D02*
X196596Y609600D01*
X196596Y584200D02*
X209804Y584200D01*
X209804Y558800D02*
X196596Y558800D01*
X196596Y533400D02*
X209804Y533400D01*
X209804Y508000D02*
X196596Y508000D01*
X196596Y482600D02*
X209804Y482600D01*
X209804Y457200D02*
X196596Y457200D01*
X196596Y431800D02*
X209804Y431800D01*
X209804Y406400D02*
X196596Y406400D01*
X196596Y381000D02*
X209804Y381000D01*
X209804Y355600D02*
X196596Y355600D01*
X196596Y330200D02*
X209804Y330200D01*
X209804Y304800D02*
X196596Y304800D01*
X196596Y279400D02*
X209804Y279400D01*
X209804Y254000D02*
X196596Y254000D01*
X196596Y228600D02*
X209804Y228600D01*
X209804Y203200D02*
X196596Y203200D01*
X196596Y177800D02*
X209804Y177800D01*
D27*
X660400Y38100D03*
X736600Y38100D03*
X736600Y114300D03*
X660400Y114300D03*
D29*
X25654Y428879D03*
X25654Y383921D03*
D30*
X50546Y441452D03*
X50546Y371348D03*
D17*
X88900Y431800D03*
X114300Y431800D03*
D31*
X1861300Y127000D03*
D32*
X1922300Y127000D03*
X1892300Y175000D03*
D33*
X1092200Y1066800D03*
D34*
X101600Y596392D03*
X101600Y624078D03*
X101600Y651510D03*
X101600Y679196D03*
X101600Y706882D03*
X101600Y734314D03*
X101600Y762000D03*
X101600Y789686D03*
X101600Y817118D03*
X101600Y844804D03*
X101600Y872490D03*
X101600Y899922D03*
X101600Y927608D03*
X76200Y610108D03*
X76200Y637794D03*
X76200Y665480D03*
X76200Y692912D03*
X76200Y720598D03*
X76200Y748284D03*
X76200Y775716D03*
X76200Y803402D03*
X76200Y831088D03*
X76200Y858520D03*
X76200Y886206D03*
X76200Y913892D03*
D35*
X88900Y526796D03*
X88900Y997204D03*
D15*
X158496Y101600D02*
X171704Y101600D01*
X171704Y127000D02*
X158496Y127000D01*
X158496Y254000D02*
X171704Y254000D01*
X171704Y279400D02*
X158496Y279400D01*
X158496Y152400D02*
X171704Y152400D01*
X171704Y177800D02*
X158496Y177800D01*
X158496Y228600D02*
X171704Y228600D01*
X171704Y203200D02*
X158496Y203200D01*
X95504Y279400D02*
X82296Y279400D01*
X82296Y254000D02*
X95504Y254000D01*
X95504Y228600D02*
X82296Y228600D01*
X82296Y203200D02*
X95504Y203200D01*
X95504Y177800D02*
X82296Y177800D01*
X82296Y152400D02*
X95504Y152400D01*
X95504Y127000D02*
X82296Y127000D01*
X82296Y101600D02*
X95504Y101600D01*
D14*
X177800Y63500D03*
X152400Y63500D03*
X114300Y63500D03*
X88900Y63500D03*
D13*
X190500Y139700D03*
X190500Y114300D03*
D17*
X114300Y304800D03*
X139700Y304800D03*
D16*
X63500Y101600D03*
X63500Y127000D03*
D19*
X139700Y711200D03*
X165100Y711200D03*
X139700Y736600D03*
X165100Y736600D03*
X139700Y787400D03*
X165100Y787400D03*
X139700Y812800D03*
X165100Y812800D03*
D18*
X157988Y406400D02*
X172212Y406400D01*
X172212Y381000D02*
X157988Y381000D01*
X157988Y355600D02*
X172212Y355600D01*
D19*
X139700Y863600D03*
X165100Y863600D03*
X139700Y889000D03*
X165100Y889000D03*
D18*
X139700Y932688D02*
X139700Y946912D01*
X165100Y946912D02*
X165100Y932688D01*
X157988Y495300D02*
X172212Y495300D01*
X172212Y469900D02*
X157988Y469900D01*
X157988Y444500D02*
X172212Y444500D01*
D13*
X419100Y114300D03*
X419100Y88900D03*
D16*
X825500Y330200D03*
X825500Y355600D03*
D13*
X596900Y127000D03*
X596900Y101600D03*
D17*
X876300Y203200D03*
X901700Y203200D03*
D16*
X424815Y393700D03*
X424815Y419100D03*
X647700Y419100D03*
X647700Y444500D03*
D17*
X241300Y711200D03*
X266700Y711200D03*
X457200Y711200D03*
X482600Y711200D03*
D25*
X685800Y1054100D03*
D12*
X660400Y1054100D03*
D26*
X152400Y596900D03*
D12*
X152400Y571500D03*
D11*
X1778000Y114300D03*
D12*
X1778000Y139700D03*
D33*
X1155700Y279400D03*
D21*
X1041400Y1066800D03*
D36*
X736600Y1066800D03*
D34*
X812800Y114300D03*
X812800Y38100D03*
D15*
X794004Y342900D02*
X780796Y342900D01*
X780796Y368300D02*
X794004Y368300D01*
X794004Y393700D02*
X780796Y393700D01*
X780796Y419100D02*
X794004Y419100D01*
X794004Y444500D02*
X780796Y444500D01*
X780796Y469900D02*
X794004Y469900D01*
X794004Y495300D02*
X780796Y495300D01*
X780796Y520700D02*
X794004Y520700D01*
X794004Y546100D02*
X780796Y546100D01*
X780796Y571500D02*
X794004Y571500D01*
X794004Y596900D02*
X780796Y596900D01*
X780796Y622300D02*
X794004Y622300D01*
X717804Y622300D02*
X704596Y622300D01*
X704596Y596900D02*
X717804Y596900D01*
X717804Y571500D02*
X704596Y571500D01*
X704596Y546100D02*
X717804Y546100D01*
X717804Y520700D02*
X704596Y520700D01*
X704596Y495300D02*
X717804Y495300D01*
X717804Y469900D02*
X704596Y469900D01*
X704596Y444500D02*
X717804Y444500D01*
X717804Y419100D02*
X704596Y419100D01*
X704596Y393700D02*
X717804Y393700D01*
X717804Y368300D02*
X704596Y368300D01*
X704596Y342900D02*
X717804Y342900D01*
D13*
X38100Y292100D03*
X38100Y266700D03*
X38100Y190500D03*
X38100Y165100D03*
D17*
X88900Y393700D03*
X114300Y393700D03*
X88900Y355600D03*
X114300Y355600D03*
D37*
X825500Y596900D03*
X825500Y622300D03*
X609600Y1092200D03*
D38*
X1905000Y584200D03*
X1930400Y584200D03*
X1955800Y584200D03*
D31*
X1861300Y863600D03*
D32*
X1922300Y863600D03*
X1892300Y911600D03*
D10*
X1735582Y38100D02*
X1718818Y38100D01*
X1608582Y38100D02*
X1591818Y38100D01*
D15*
X400304Y177800D02*
X387096Y177800D01*
X387096Y203200D02*
X400304Y203200D01*
X400304Y330200D02*
X387096Y330200D01*
X387096Y355600D02*
X400304Y355600D01*
X400304Y228600D02*
X387096Y228600D01*
X387096Y254000D02*
X400304Y254000D01*
X400304Y304800D02*
X387096Y304800D01*
X387096Y279400D02*
X400304Y279400D01*
X400304Y381000D02*
X387096Y381000D01*
X387096Y406400D02*
X400304Y406400D01*
X400304Y431800D02*
X387096Y431800D01*
X387096Y457200D02*
X400304Y457200D01*
X400304Y482600D02*
X387096Y482600D01*
X387096Y508000D02*
X400304Y508000D01*
X400304Y533400D02*
X387096Y533400D01*
X387096Y558800D02*
X400304Y558800D01*
X400304Y584200D02*
X387096Y584200D01*
X387096Y609600D02*
X400304Y609600D01*
X400304Y635000D02*
X387096Y635000D01*
X387096Y660400D02*
X400304Y660400D01*
X247904Y660400D02*
X234696Y660400D01*
X234696Y635000D02*
X247904Y635000D01*
X247904Y609600D02*
X234696Y609600D01*
X234696Y584200D02*
X247904Y584200D01*
X247904Y558800D02*
X234696Y558800D01*
X234696Y533400D02*
X247904Y533400D01*
X247904Y508000D02*
X234696Y508000D01*
X234696Y482600D02*
X247904Y482600D01*
X247904Y457200D02*
X234696Y457200D01*
X234696Y431800D02*
X247904Y431800D01*
X247904Y406400D02*
X234696Y406400D01*
X234696Y381000D02*
X247904Y381000D01*
X247904Y355600D02*
X234696Y355600D01*
X234696Y330200D02*
X247904Y330200D01*
X247904Y304800D02*
X234696Y304800D01*
X234696Y279400D02*
X247904Y279400D01*
X247904Y254000D02*
X234696Y254000D01*
X234696Y228600D02*
X247904Y228600D01*
X247904Y203200D02*
X234696Y203200D01*
X234696Y177800D02*
X247904Y177800D01*
D27*
X660400Y190500D03*
X736600Y190500D03*
X736600Y266700D03*
X660400Y266700D03*
D37*
X812800Y266700D03*
X812800Y190500D03*
D18*
X654812Y330200D02*
X640588Y330200D01*
X640588Y355600D02*
X654812Y355600D01*
X654812Y381000D02*
X640588Y381000D01*
D39*
X1308100Y812800D03*
X1270000Y825500D03*
X1358900Y812800D03*
D15*
X654304Y508000D02*
X641096Y508000D01*
X641096Y533400D02*
X654304Y533400D01*
X654304Y558800D02*
X641096Y558800D01*
X641096Y584200D02*
X654304Y584200D01*
X654304Y609600D02*
X641096Y609600D01*
X641096Y635000D02*
X654304Y635000D01*
X654304Y660400D02*
X641096Y660400D01*
D40*
X647700Y787400D03*
X647700Y739775D03*
D41*
X241300Y177800D02*
X203200Y177800D01*
X241300Y177800D02*
X250825Y168275D01*
X250825Y165100D01*
X276225Y139700D01*
X298450Y139700D01*
X298450Y708025D01*
X311150Y720725D01*
X311150Y974725D01*
X536575Y812800D02*
X536575Y498475D01*
X536575Y812800D02*
X549275Y825500D01*
X549275Y993775D01*
D40*
X311150Y974725D03*
X536575Y498475D03*
X549275Y993775D03*
D41*
X565150Y542925D02*
X574675Y533400D01*
X565150Y850900D02*
X565150Y971550D01*
X565150Y850900D02*
X565150Y542925D01*
X565150Y971550D02*
X609600Y1016000D01*
X908050Y555625D02*
X930275Y533400D01*
X908050Y555625D02*
X908050Y752475D01*
X901700Y758825D01*
X901700Y796925D01*
X593725Y850900D02*
X565150Y850900D01*
X317500Y193675D02*
X327025Y184150D01*
X317500Y193675D02*
X317500Y403225D01*
X314325Y406400D01*
X314325Y641350D01*
X317500Y644525D01*
X317500Y936625D01*
X393700Y1012825D01*
X393700Y1016000D01*
D40*
X574675Y533400D03*
X930275Y533400D03*
X901700Y796925D03*
X593725Y850900D03*
X327025Y184150D03*
D41*
X241300Y203200D02*
X203200Y203200D01*
X555625Y460375D02*
X555625Y987425D01*
X609600Y1041400D01*
X927100Y549275D02*
X930275Y546100D01*
X927100Y549275D02*
X927100Y784225D01*
X889000Y822325D01*
X889000Y1000125D01*
X555625Y460375D02*
X555625Y190500D01*
D40*
X555625Y460375D03*
X930275Y546100D03*
X889000Y1000125D03*
X555625Y190500D03*
D41*
X419100Y339725D02*
X422275Y342900D01*
X419100Y339725D02*
X419100Y231775D01*
X422275Y228600D01*
X1009650Y590550D02*
X1028700Y571500D01*
X1009650Y590550D02*
X1009650Y936625D01*
X939800Y231775D02*
X930275Y222250D01*
X939800Y231775D02*
X939800Y555625D01*
D40*
X422275Y342900D03*
X422275Y228600D03*
X1009650Y936625D03*
X930275Y222250D03*
X939800Y555625D03*
D41*
X241300Y228600D02*
X203200Y228600D01*
X428625Y257175D02*
X428625Y317500D01*
X1000125Y625475D02*
X1003300Y628650D01*
X1003300Y908050D01*
X911225Y1000125D01*
X638175Y314325D02*
X638175Y212725D01*
X952500Y212725D02*
X996950Y257175D01*
X996950Y622300D01*
X1000125Y625475D01*
D40*
X428625Y317500D03*
X428625Y257175D03*
X1000125Y625475D03*
X911225Y1000125D03*
X638175Y314325D03*
X638175Y212725D03*
X952500Y212725D03*
D41*
X517525Y377825D02*
X514350Y374650D01*
X514350Y304800D01*
X523875Y295275D01*
X523875Y250825D01*
X1028700Y622300D02*
X1047750Y603250D01*
X1047750Y339725D01*
X1038225Y330200D01*
X1003300Y330200D01*
X1003300Y244475D01*
X1047750Y990600D02*
X936625Y990600D01*
X1047750Y990600D02*
X1047750Y603250D01*
D40*
X517525Y377825D03*
X523875Y250825D03*
X1003300Y244475D03*
X936625Y990600D03*
D41*
X241300Y254000D02*
X203200Y254000D01*
X565150Y400050D02*
X568325Y403225D01*
X565150Y400050D02*
X565150Y269875D01*
X974725Y625475D02*
X993775Y644525D01*
X974725Y625475D02*
X974725Y457200D01*
X539750Y990600D02*
X457200Y990600D01*
X539750Y990600D02*
X539750Y828675D01*
X898525Y825500D02*
X977900Y825500D01*
X977900Y758825D01*
X971550Y752475D01*
X971550Y666750D01*
X993775Y644525D01*
D40*
X568325Y403225D03*
X565150Y269875D03*
X993775Y644525D03*
X974725Y457200D03*
X539750Y828675D03*
X898525Y825500D03*
D41*
X536575Y485775D02*
X527050Y495300D01*
X527050Y647700D01*
X530225Y650875D01*
X530225Y955675D01*
X520700Y965200D01*
X457200Y965200D01*
X977900Y720725D02*
X993775Y704850D01*
X977900Y720725D02*
X977900Y749300D01*
X984250Y755650D01*
X984250Y898525D01*
X968375Y914400D01*
X968375Y917575D01*
X327025Y352425D02*
X327025Y257175D01*
X536575Y368300D02*
X536575Y485775D01*
D40*
X536575Y485775D03*
X993775Y704850D03*
X968375Y917575D03*
X327025Y257175D03*
X327025Y352425D03*
X536575Y368300D03*
D18*
X1863725Y828675D02*
X1916113Y776288D01*
X1943100Y749300D01*
X1863725Y828675D02*
X1863725Y863600D01*
X1861300Y863600D01*
X1911350Y590550D02*
X1905000Y584200D01*
X1911350Y590550D02*
X1911350Y771525D01*
X1916113Y776288D01*
X1143000Y1003300D02*
X1092200Y1003300D01*
X1143000Y1003300D02*
X1206500Y1003300D01*
X1092200Y444500D02*
X1155700Y381000D01*
X1155700Y279400D01*
X1092200Y1003300D02*
X1092200Y1066800D01*
X1803400Y927100D02*
X1860550Y869950D01*
X1803400Y927100D02*
X1803400Y965200D01*
X1860550Y869950D02*
X1861300Y863600D01*
D40*
X1092200Y444500D03*
D18*
X1765300Y304800D02*
X1803400Y304800D01*
X1860550Y107950D02*
X1803400Y50800D01*
X1860550Y107950D02*
X1860550Y127000D01*
X1861300Y127000D01*
X1857375Y139700D02*
X1778000Y139700D01*
X1857375Y139700D02*
X1857375Y133350D01*
X1861300Y127000D01*
X1746250Y282575D02*
X1762125Y298450D01*
X1746250Y282575D02*
X1746250Y174625D01*
X1774825Y146050D01*
X1762125Y298450D02*
X1765300Y304800D01*
X1774825Y146050D02*
X1778000Y139700D01*
D41*
X876300Y368300D02*
X857250Y349250D01*
X857250Y180975D01*
X876300Y161925D01*
X876300Y60325D01*
D40*
X876300Y60325D03*
D41*
X1187450Y377825D02*
X1184275Y381000D01*
X1187450Y377825D02*
X1187450Y222250D01*
X1320800Y88900D01*
D40*
X1184275Y381000D03*
D41*
X876300Y469900D02*
X857250Y450850D01*
X857250Y358775D01*
X844550Y346075D01*
X844550Y73025D01*
X908050Y9525D01*
X1397000Y9525D01*
X1397000Y88900D01*
X1193800Y396875D02*
X1184275Y406400D01*
X1193800Y396875D02*
X1193800Y241300D01*
X1311275Y123825D01*
D40*
X1184275Y406400D03*
X1311275Y123825D03*
D41*
X1333500Y307975D02*
X1184275Y457200D01*
X1333500Y307975D02*
X1333500Y123825D01*
D40*
X1184275Y457200D03*
X1333500Y123825D03*
D41*
X898525Y422275D02*
X876300Y444500D01*
X898525Y422275D02*
X898525Y330200D01*
X920750Y307975D01*
X920750Y206375D01*
X1003300Y123825D01*
D40*
X1003300Y123825D03*
D41*
X987425Y733425D02*
X990600Y736600D01*
X990600Y904875D01*
D40*
X987425Y733425D03*
X990600Y904875D03*
D41*
X1095375Y692150D02*
X1235075Y831850D01*
X1235075Y904875D01*
X1257300Y927100D01*
D40*
X1095375Y692150D03*
D41*
X876300Y673100D02*
X857250Y692150D01*
X857250Y752475D01*
X863600Y758825D01*
X863600Y987425D01*
X977900Y1101725D01*
X1231900Y1101725D01*
X1231900Y1003300D01*
X1069975Y762000D02*
X1063625Y755650D01*
X1069975Y762000D02*
X1069975Y898525D01*
X1085850Y914400D01*
X1111250Y914400D01*
X1111250Y927100D01*
X1162050Y977900D01*
X1270000Y977900D01*
X1270000Y1012825D01*
X1279525Y1022350D01*
X1333500Y1022350D01*
X1333500Y1003300D01*
D40*
X1063625Y755650D03*
D41*
X876300Y571500D02*
X850900Y596900D01*
X850900Y762000D01*
X1054100Y317500D02*
X1028700Y292100D01*
X1054100Y787400D02*
X1054100Y908050D01*
X1054100Y787400D02*
X1054100Y317500D01*
X1054100Y908050D02*
X1136650Y990600D01*
X1196975Y990600D01*
X1203325Y984250D01*
X1257300Y984250D01*
X1257300Y1003300D01*
X1057275Y787400D02*
X1054100Y787400D01*
D40*
X1057275Y787400D03*
D18*
X1765300Y1016000D02*
X1803400Y1016000D01*
X1104900Y863600D02*
X1092200Y876300D01*
X1092200Y901700D01*
X1301750Y933450D02*
X1308100Y927100D01*
X1301750Y933450D02*
X1301750Y939800D01*
X1289050Y952500D01*
X1171575Y952500D01*
X1171575Y930275D01*
X1143000Y901700D01*
D41*
X1403350Y196850D02*
X1397000Y190500D01*
X1403350Y196850D02*
X1403350Y222250D01*
X1409700Y228600D01*
X1409700Y403225D01*
X1435100Y428625D01*
X1552575Y428625D01*
X1552575Y742950D01*
X1511300Y784225D01*
X1511300Y863600D01*
X1422400Y774700D01*
X1422400Y190500D02*
X1416050Y184150D01*
X1416050Y168275D01*
X1412875Y165100D01*
X1358900Y165100D01*
X1358900Y330200D01*
X1295400Y393700D01*
X1435100Y203200D02*
X1447800Y190500D01*
X1435100Y203200D02*
X1435100Y377825D01*
D40*
X1435100Y377825D03*
D41*
X1460500Y228600D02*
X1498600Y190500D01*
X1460500Y228600D02*
X1460500Y377825D01*
D40*
X1460500Y377825D03*
D41*
X1371600Y238125D02*
X1387475Y222250D01*
X1371600Y238125D02*
X1371600Y393700D01*
D40*
X1387475Y222250D03*
D41*
X1371600Y190500D02*
X1390650Y171450D01*
X1409700Y171450D01*
X1409700Y219075D01*
X1422400Y231775D01*
X1422400Y393700D01*
X1447800Y215900D02*
X1444625Y212725D01*
X1447800Y215900D02*
X1447800Y393700D01*
D40*
X1444625Y212725D03*
D18*
X1574800Y215900D02*
X1587500Y228600D01*
X1574800Y215900D02*
X1574800Y165100D01*
X1276350Y400050D02*
X1270000Y393700D01*
X1276350Y400050D02*
X1276350Y406400D01*
X1289050Y419100D01*
X1397000Y419100D01*
X1397000Y393700D01*
X1397000Y241300D01*
D40*
X1397000Y241300D03*
D41*
X1377950Y95250D02*
X1371600Y88900D01*
X1377950Y95250D02*
X1377950Y101600D01*
X1447800Y171450D01*
X1562100Y171450D01*
X1562100Y377825D01*
X1568450Y384175D01*
X1568450Y869950D01*
X1435100Y1003300D01*
X1384300Y812800D02*
X1346200Y774700D01*
X1384300Y812800D02*
X1384300Y850900D01*
X1295400Y774700D02*
X1285875Y784225D01*
X1285875Y847725D01*
X1282700Y850900D01*
X1333500Y787400D02*
X1320800Y774700D01*
X1333500Y787400D02*
X1333500Y850900D01*
X1381125Y784225D02*
X1371600Y774700D01*
X1381125Y784225D02*
X1381125Y796925D01*
X1435100Y850900D01*
X1435100Y876300D02*
X1409700Y850900D01*
X1435100Y876300D02*
X1435100Y889000D01*
X1435100Y901700D02*
X1409700Y927100D01*
X1435100Y901700D02*
X1435100Y889000D01*
X1358900Y889000D02*
X1358900Y850900D01*
X1358900Y901700D02*
X1384300Y927100D01*
X1358900Y901700D02*
X1358900Y889000D01*
X1333500Y876300D02*
X1308100Y850900D01*
X1333500Y876300D02*
X1333500Y889000D01*
X1333500Y901700D02*
X1358900Y927100D01*
X1333500Y901700D02*
X1333500Y889000D01*
X1257300Y889000D02*
X1257300Y850900D01*
X1333500Y927100D01*
D18*
X1162050Y781050D02*
X1130300Y749300D01*
X1162050Y781050D02*
X1162050Y844550D01*
X1143000Y863600D01*
X1146175Y876300D02*
X1193800Y876300D01*
X1146175Y876300D02*
X1146175Y869950D01*
X1143000Y863600D01*
X1143000Y787400D02*
X1104900Y749300D01*
X1143000Y787400D02*
X1143000Y838200D01*
D41*
X876300Y292100D02*
X901700Y266700D01*
X901700Y219075D01*
X914400Y206375D01*
X914400Y174625D01*
X927100Y161925D01*
X927100Y111125D01*
X996950Y41275D01*
X996950Y31750D01*
X1012825Y15875D01*
X1384300Y15875D01*
X1384300Y98425D01*
X1393825Y107950D01*
X1409700Y107950D01*
X1409700Y79375D01*
X1419225Y69850D01*
X1733550Y69850D01*
X1733550Y514350D01*
X1714500Y533400D01*
X911225Y352425D02*
X908050Y349250D01*
X911225Y352425D02*
X911225Y415925D01*
D40*
X908050Y349250D03*
X911225Y415925D03*
D41*
X876300Y342900D02*
X911225Y307975D01*
X911225Y260350D01*
D40*
X911225Y260350D03*
D41*
X1422400Y88900D02*
X1473200Y139700D01*
X1660525Y139700D01*
X1660525Y317500D01*
X1670050Y327025D01*
X1670050Y412750D01*
X1676400Y419100D02*
X1714500Y457200D01*
X1676400Y419100D02*
X1670050Y412750D01*
X1384300Y1003300D02*
X1403350Y1022350D01*
X1676400Y1022350D01*
X1676400Y419100D01*
X1619250Y273050D02*
X1638300Y254000D01*
X1619250Y273050D02*
X1619250Y463550D01*
X1638300Y482600D01*
X1657350Y323850D02*
X1638300Y304800D01*
X1657350Y323850D02*
X1657350Y488950D01*
X1638300Y508000D01*
X1638300Y584200D02*
X1619250Y603250D01*
X1619250Y768350D01*
X1638300Y787400D01*
X1733550Y628650D02*
X1714500Y609600D01*
X1733550Y628650D02*
X1733550Y768350D01*
X1714500Y787400D01*
X1657350Y628650D02*
X1638300Y609600D01*
X1657350Y628650D02*
X1657350Y819150D01*
X1638300Y838200D01*
D18*
X1473200Y393700D02*
X1479550Y387350D01*
X1479550Y355600D01*
D40*
X1479550Y355600D03*
D18*
X1508125Y384175D02*
X1498600Y393700D01*
X1508125Y384175D02*
X1508125Y254000D01*
X1549400Y212725D01*
D40*
X1549400Y212725D03*
D41*
X965200Y244475D02*
X942975Y222250D01*
X965200Y244475D02*
X965200Y762000D01*
D40*
X942975Y222250D03*
D41*
X889000Y152400D02*
X889000Y76200D01*
X889000Y152400D02*
X914400Y152400D01*
X1041400Y152400D02*
X1047750Y158750D01*
X1047750Y247650D01*
X1028700Y266700D01*
X1016000Y152400D02*
X990600Y152400D01*
X1066800Y203200D02*
X1066800Y241300D01*
X1016000Y76200D02*
X1016000Y38100D01*
X1028700Y88900D02*
X1028700Y241300D01*
X1028700Y88900D02*
X1016000Y76200D01*
X1092200Y76200D02*
X1092200Y38100D01*
X822325Y406400D02*
X841375Y425450D01*
X841375Y533400D01*
X866775Y558800D01*
X895350Y558800D01*
X895350Y704850D01*
X876300Y723900D01*
D40*
X822325Y406400D03*
D41*
X965200Y838200D02*
X965200Y889000D01*
X952500Y901700D01*
X933450Y844550D02*
X939800Y838200D01*
X933450Y844550D02*
X933450Y889000D01*
X939800Y152400D02*
X990600Y101600D01*
X990600Y76200D01*
X1066800Y282575D02*
X1066800Y330200D01*
X990600Y76200D02*
X1003300Y63500D01*
X1003300Y34925D01*
X1012825Y25400D01*
X1104900Y25400D01*
X1104900Y244475D01*
X1066800Y282575D01*
X1066800Y279400D01*
X1270000Y965200D02*
X1308100Y1003300D01*
X1270000Y965200D02*
X1158875Y965200D01*
X1158875Y958850D01*
X1117600Y917575D01*
X1117600Y847725D01*
X1076325Y806450D01*
X1076325Y476250D01*
X1079500Y473075D01*
X1079500Y342900D01*
X1066800Y330200D01*
X787400Y711200D02*
X768350Y730250D01*
X768350Y793750D01*
X787400Y812800D01*
X806450Y755650D02*
X787400Y736600D01*
X806450Y755650D02*
X806450Y869950D01*
X774700Y901700D01*
X273050Y390525D02*
X260350Y377825D01*
X260350Y349250D01*
X241300Y330200D01*
X517525Y460375D02*
X520700Y463550D01*
X527050Y469900D01*
X517525Y460375D02*
X517525Y434975D01*
X523875Y949325D02*
X520700Y952500D01*
X523875Y949325D02*
X523875Y654050D01*
X520700Y650875D01*
X520700Y463550D01*
D40*
X273050Y390525D03*
X527050Y469900D03*
X517525Y434975D03*
X520700Y952500D03*
D41*
X393700Y939800D02*
X323850Y869950D01*
X323850Y479425D01*
X320675Y476250D01*
X320675Y412750D01*
X323850Y409575D01*
D40*
X323850Y409575D03*
D41*
X527050Y387350D02*
X527050Y361950D01*
X536575Y352425D01*
X530225Y320675D02*
X533400Y317500D01*
X533400Y158750D01*
X1114425Y190500D02*
X1174750Y250825D01*
X1174750Y549275D01*
X1085850Y638175D01*
X1085850Y803275D01*
D40*
X527050Y387350D03*
X536575Y352425D03*
X530225Y320675D03*
X533400Y158750D03*
X1114425Y190500D03*
X1085850Y803275D03*
D41*
X539750Y336550D02*
X523875Y352425D01*
X539750Y336550D02*
X539750Y165100D01*
X546100Y158750D01*
X546100Y19050D01*
X101600Y22225D02*
X6350Y117475D01*
X6350Y860425D01*
X174625Y1028700D01*
X412750Y1028700D01*
X412750Y908050D01*
X393700Y889000D01*
D40*
X523875Y352425D03*
X546100Y19050D03*
X101600Y22225D03*
D41*
X428625Y330200D02*
X431800Y333375D01*
X431800Y374650D01*
X428625Y377825D01*
X517525Y422275D02*
X527050Y431800D01*
X527050Y454025D01*
X422275Y517525D02*
X419100Y520700D01*
X419100Y552450D01*
X425450Y558800D01*
X425450Y831850D01*
X393700Y863600D01*
D40*
X428625Y330200D03*
X428625Y377825D03*
X517525Y422275D03*
X527050Y454025D03*
X428625Y485775D03*
X422275Y517525D03*
D41*
X565150Y250825D02*
X577850Y238125D01*
X577850Y212725D01*
X600075Y190500D01*
X628650Y190500D01*
X628650Y88900D01*
X73025Y76200D02*
X12700Y136525D01*
X12700Y730250D01*
X41275Y758825D01*
D40*
X574675Y298450D03*
X565150Y250825D03*
X628650Y88900D03*
X73025Y76200D03*
X41275Y758825D03*
D41*
X742950Y288925D02*
X746125Y285750D01*
X742950Y288925D02*
X742950Y441325D01*
X692150Y793750D02*
X676275Y809625D01*
X692150Y793750D02*
X692150Y708025D01*
X701675Y698500D01*
X730250Y698500D01*
X730250Y669925D01*
X723900Y663575D01*
X723900Y631825D01*
X733425Y622300D01*
X733425Y450850D01*
X742950Y441325D01*
D40*
X746125Y285750D03*
X742950Y441325D03*
X676275Y809625D03*
D41*
X574675Y285750D02*
X574675Y260350D01*
X812800Y298450D02*
X815975Y295275D01*
X812800Y298450D02*
X812800Y444500D01*
X787400Y469900D01*
X749300Y746125D02*
X739775Y755650D01*
X749300Y746125D02*
X749300Y641350D01*
X742950Y635000D01*
X742950Y473075D01*
D40*
X574675Y260350D03*
X574675Y285750D03*
X815975Y295275D03*
X739775Y755650D03*
X742950Y473075D03*
D41*
X457200Y228600D02*
X438150Y247650D01*
X438150Y793750D01*
X457200Y812800D01*
X514350Y215900D02*
X504825Y206375D01*
X514350Y215900D02*
X514350Y295275D01*
X508000Y301625D01*
X508000Y482600D01*
X514350Y488950D01*
X514350Y654050D01*
X517525Y657225D01*
X517525Y815975D01*
X485775Y847725D01*
D40*
X504825Y206375D03*
X485775Y847725D03*
D41*
X476250Y196850D02*
X457200Y177800D01*
X476250Y196850D02*
X476250Y669925D01*
X501650Y695325D01*
X501650Y819150D01*
X476250Y844550D01*
X476250Y895350D01*
X457200Y914400D01*
X609600Y177800D02*
X584200Y152400D01*
X584200Y117475D01*
X263525Y101600D02*
X200025Y165100D01*
X184150Y165100D01*
X184150Y206375D01*
X174625Y215900D01*
X111125Y215900D01*
X111125Y228600D01*
X98425Y241300D01*
X69850Y241300D01*
X69850Y314325D01*
X101600Y346075D01*
X101600Y498475D01*
X149225Y546100D01*
X149225Y549275D01*
X219075Y571500D02*
X222250Y574675D01*
X222250Y844550D01*
X241300Y863600D01*
D40*
X584200Y117475D03*
X263525Y101600D03*
X149225Y549275D03*
X219075Y571500D03*
D41*
X584200Y228600D02*
X609600Y203200D01*
X584200Y228600D02*
X584200Y733425D01*
X609600Y758825D01*
X609600Y762000D01*
X609600Y228600D02*
X628650Y228600D01*
X628650Y244475D01*
X949325Y279400D02*
X949325Y708025D01*
D40*
X628650Y244475D03*
X949325Y279400D03*
X949325Y708025D03*
D41*
X590550Y273050D02*
X609600Y254000D01*
X590550Y688975D02*
X590550Y717550D01*
X590550Y688975D02*
X590550Y520700D01*
X590550Y273050D01*
X590550Y717550D02*
X609600Y736600D01*
X593725Y688975D02*
X590550Y688975D01*
X590550Y520700D02*
X631825Y520700D01*
D40*
X593725Y688975D03*
X631825Y520700D03*
D41*
X628650Y298450D02*
X609600Y279400D01*
X628650Y298450D02*
X628650Y466725D01*
X669925Y508000D01*
X669925Y520700D01*
X628650Y1073150D02*
X609600Y1092200D01*
X628650Y1073150D02*
X628650Y555625D01*
X638175Y546100D01*
X669925Y546100D01*
X669925Y520700D01*
D40*
X669925Y520700D03*
D41*
X762000Y419100D02*
X774700Y406400D01*
X806450Y406400D01*
X806450Y276225D01*
X781050Y250825D01*
X781050Y142875D01*
D40*
X762000Y419100D03*
X781050Y142875D03*
D41*
X733425Y422275D02*
X711200Y444500D01*
X733425Y422275D02*
X733425Y371475D01*
X822325Y381000D02*
X850900Y409575D01*
X850900Y492125D01*
X841375Y682625D02*
X812800Y711200D01*
X812800Y908050D01*
X673100Y1047750D01*
X673100Y1060450D01*
X628650Y1104900D01*
X438150Y1104900D01*
X438150Y958850D01*
X457200Y939800D01*
D40*
X733425Y371475D03*
X822325Y381000D03*
X850900Y492125D03*
X841375Y682625D03*
D41*
X260350Y260350D02*
X241300Y279400D01*
X260350Y260350D02*
X260350Y168275D01*
X682625Y304800D02*
X682625Y333375D01*
X682625Y304800D02*
X682625Y184150D01*
X682625Y333375D02*
X676275Y339725D01*
X676275Y434975D01*
X711200Y469900D01*
D40*
X260350Y168275D03*
X682625Y184150D03*
X682625Y304800D03*
D41*
X288925Y257175D02*
X241300Y304800D01*
X288925Y257175D02*
X288925Y149225D01*
X657225Y142875D02*
X673100Y158750D01*
X673100Y317500D02*
X673100Y333375D01*
X673100Y317500D02*
X673100Y158750D01*
X673100Y333375D02*
X669925Y336550D01*
X669925Y454025D01*
X711200Y495300D01*
D40*
X288925Y149225D03*
X657225Y142875D03*
X673100Y317500D03*
D41*
X495300Y723900D02*
X457200Y762000D01*
X495300Y723900D02*
X495300Y701675D01*
X473075Y679450D01*
X688975Y679450D02*
X692150Y676275D01*
X692150Y568325D01*
X711200Y549275D01*
X711200Y546100D01*
D40*
X473075Y679450D03*
X688975Y679450D03*
D41*
X688975Y542925D02*
X711200Y520700D01*
X688975Y542925D02*
X688975Y561975D01*
X673100Y577850D01*
X673100Y619125D01*
X666750Y625475D01*
X666750Y860425D01*
D40*
X666750Y860425D03*
D41*
X222250Y323850D02*
X203200Y304800D01*
X222250Y323850D02*
X222250Y336550D01*
X241300Y355600D01*
X685800Y342900D02*
X692150Y336550D01*
X692150Y206375D01*
D40*
X685800Y342900D03*
X692150Y206375D03*
D41*
X504825Y292100D02*
X501650Y295275D01*
X501650Y485775D01*
X508000Y492125D01*
X508000Y660400D01*
X765175Y568325D02*
X787400Y546100D01*
X765175Y568325D02*
X765175Y635000D01*
D40*
X504825Y292100D03*
X508000Y660400D03*
X765175Y635000D03*
D41*
X752475Y377825D02*
X787400Y342900D01*
X752475Y377825D02*
X752475Y631825D01*
D40*
X752475Y631825D03*
D41*
X374650Y374650D02*
X355600Y355600D01*
X374650Y374650D02*
X374650Y441325D01*
X419100Y447675D02*
X422275Y444500D01*
X419100Y447675D02*
X419100Y495300D01*
X428625Y504825D01*
X762000Y393700D02*
X787400Y368300D01*
X762000Y393700D02*
X762000Y396875D01*
X568325Y419100D02*
X565150Y422275D01*
X565150Y508000D01*
D40*
X374650Y441325D03*
X422275Y444500D03*
X428625Y504825D03*
X762000Y396875D03*
X568325Y419100D03*
X565150Y508000D03*
D41*
X222250Y400050D02*
X203200Y381000D01*
X222250Y400050D02*
X222250Y460375D01*
X231775Y469900D01*
X263525Y469900D01*
X263525Y622300D01*
X822325Y422275D02*
X835025Y434975D01*
X835025Y536575D01*
X844550Y546100D01*
X844550Y654050D01*
X838200Y660400D01*
X828675Y660400D01*
X473075Y698500D02*
X457200Y682625D01*
X457200Y660400D01*
D40*
X263525Y622300D03*
X822325Y422275D03*
X828675Y660400D03*
X473075Y698500D03*
D41*
X492125Y644525D02*
X485775Y638175D01*
X492125Y644525D02*
X492125Y657225D01*
X806450Y650875D02*
X838200Y650875D01*
X838200Y549275D01*
X796925Y508000D01*
X768350Y508000D01*
X768350Y438150D01*
X787400Y419100D01*
D40*
X485775Y638175D03*
X492125Y657225D03*
X806450Y650875D03*
D41*
X393700Y584200D02*
X355600Y584200D01*
X336550Y479425D02*
X330200Y473075D01*
X336550Y479425D02*
X336550Y565150D01*
X355600Y584200D01*
D40*
X330200Y473075D03*
D41*
X355600Y457200D02*
X381000Y482600D01*
X393700Y482600D01*
X107950Y184150D02*
X88900Y203200D01*
X107950Y184150D02*
X107950Y98425D01*
X76200Y66675D01*
X76200Y60325D01*
X107950Y28575D01*
X342900Y28575D01*
X342900Y88900D01*
X368300Y114300D01*
X336550Y438150D02*
X355600Y457200D01*
X336550Y438150D02*
X336550Y146050D01*
X368300Y114300D01*
X355600Y533400D02*
X393700Y533400D01*
X88900Y228600D02*
X123825Y193675D01*
X123825Y149225D01*
X412750Y514350D02*
X393700Y533400D01*
X412750Y514350D02*
X412750Y133350D01*
X393700Y114300D01*
D40*
X123825Y149225D03*
D41*
X279400Y88900D02*
X304800Y63500D01*
X304800Y50800D01*
X355600Y76200D02*
X368300Y88900D01*
X355600Y76200D02*
X355600Y50800D01*
X381000Y76200D02*
X393700Y88900D01*
X381000Y76200D02*
X381000Y50800D01*
D18*
X330200Y76200D02*
X317500Y88900D01*
X330200Y76200D02*
X330200Y50800D01*
D41*
X457200Y88900D02*
X482600Y63500D01*
X482600Y50800D01*
X533400Y50800D02*
X533400Y88900D01*
X558800Y88900D02*
X558800Y50800D01*
D18*
X508000Y76200D02*
X495300Y88900D01*
X508000Y76200D02*
X508000Y50800D01*
D41*
X533400Y114300D02*
X495300Y152400D01*
X495300Y492125D01*
X498475Y495300D01*
D40*
X498475Y495300D03*
D41*
X482600Y152400D02*
X463550Y133350D01*
X482600Y152400D02*
X482600Y568325D01*
X485775Y571500D01*
D40*
X463550Y133350D03*
X485775Y571500D03*
D41*
X488950Y146050D02*
X457200Y114300D01*
X488950Y146050D02*
X488950Y561975D01*
X495300Y568325D01*
X495300Y593725D01*
D40*
X495300Y593725D03*
D41*
X1066800Y152400D02*
X1092200Y152400D01*
X1009650Y298450D02*
X1028700Y317500D01*
X1009650Y298450D02*
X1009650Y288925D01*
X1019175Y279400D01*
X1054100Y279400D01*
X1054100Y165100D01*
X1066800Y152400D01*
X882650Y882650D02*
X876300Y889000D01*
X882650Y882650D02*
X882650Y739775D01*
X901700Y720725D01*
X901700Y498475D01*
X920750Y479425D01*
X920750Y358775D01*
X431800Y533400D02*
X428625Y530225D01*
X431800Y533400D02*
X431800Y911225D01*
X447675Y927100D01*
X479425Y927100D01*
D40*
X920750Y358775D03*
X428625Y530225D03*
X479425Y927100D03*
D41*
X736600Y114300D02*
X812800Y114300D01*
X393700Y660400D02*
X355600Y660400D01*
X393700Y660400D02*
X415925Y638175D01*
X415925Y561975D01*
X565150Y520700D02*
X577850Y508000D01*
X577850Y323850D01*
X574675Y320675D01*
X673100Y114300D02*
X736600Y114300D01*
X673100Y114300D02*
X673100Y111125D01*
X663575Y101600D01*
X647700Y101600D01*
X647700Y330200D01*
D40*
X415925Y561975D03*
X565150Y520700D03*
X574675Y320675D03*
D41*
X393700Y279400D02*
X374650Y279400D01*
X355600Y279400D01*
X663575Y571500D02*
X666750Y574675D01*
X666750Y590550D01*
X647700Y609600D01*
X374650Y279400D02*
X374650Y123825D01*
X381000Y117475D01*
X381000Y111125D01*
X390525Y101600D01*
X520700Y101600D01*
X520700Y31750D01*
X542925Y9525D01*
X571500Y9525D01*
X571500Y161925D01*
X546100Y187325D01*
X546100Y593725D01*
D40*
X663575Y571500D03*
X546100Y593725D03*
D41*
X574675Y568325D02*
X574675Y546100D01*
D40*
X574675Y546100D03*
X574675Y568325D03*
D41*
X152400Y723900D02*
X139700Y736600D01*
X152400Y723900D02*
X177800Y723900D01*
X177800Y701675D01*
X101600Y625475D01*
X101600Y624078D01*
X107950Y654050D02*
X165100Y711200D01*
X107950Y654050D02*
X101600Y654050D01*
X101600Y651510D01*
X165100Y76200D02*
X177800Y63500D01*
X165100Y76200D02*
X165100Y101600D01*
X139700Y88900D02*
X114300Y63500D01*
X139700Y88900D02*
X139700Y152400D01*
X165100Y177800D01*
X146050Y69850D02*
X152400Y63500D01*
X146050Y69850D02*
X146050Y133350D01*
X165100Y152400D01*
X133350Y107950D02*
X88900Y63500D01*
X133350Y107950D02*
X133350Y171450D01*
X165100Y203200D01*
X165100Y228600D02*
X139700Y254000D01*
X139700Y304800D01*
X25400Y241300D02*
X88900Y177800D01*
X25400Y241300D02*
X25400Y317500D01*
X66675Y358775D01*
X66675Y508000D01*
X57150Y517525D01*
X57150Y717550D01*
X76200Y736600D01*
X88900Y736600D01*
X88900Y739775D01*
X98425Y749300D01*
X165100Y749300D01*
X165100Y736600D01*
X184150Y273050D02*
X165100Y254000D01*
X184150Y273050D02*
X184150Y742950D01*
X152400Y774700D02*
X139700Y787400D01*
X152400Y774700D02*
X184150Y742950D01*
X152400Y850900D02*
X139700Y863600D01*
X152400Y850900D02*
X152400Y774700D01*
X152400Y927100D02*
X165100Y939800D01*
X152400Y927100D02*
X152400Y850900D01*
X152400Y292100D02*
X165100Y279400D01*
X152400Y292100D02*
X152400Y314325D01*
X136525Y330200D01*
X136525Y523875D01*
X171450Y558800D01*
X171450Y650875D01*
X177800Y876300D02*
X165100Y889000D01*
X177800Y876300D02*
X177800Y825500D01*
X165100Y812800D01*
D40*
X171450Y650875D03*
D41*
X127000Y292100D02*
X88900Y254000D01*
X127000Y292100D02*
X127000Y365125D01*
X260350Y133350D02*
X279400Y114300D01*
X260350Y133350D02*
X260350Y142875D01*
D40*
X127000Y365125D03*
X260350Y142875D03*
D41*
X120650Y869950D02*
X139700Y889000D01*
X120650Y869950D02*
X120650Y790575D01*
X107950Y777875D01*
X76200Y777875D01*
X76200Y775716D01*
X114300Y914400D02*
X139700Y939800D01*
X114300Y914400D02*
X114300Y803275D01*
X101600Y790575D01*
X101600Y789686D01*
X355600Y609600D02*
X393700Y609600D01*
X165100Y495300D02*
X146050Y476250D01*
X146050Y333375D01*
D40*
X146050Y333375D03*
D41*
X406400Y76200D02*
X419100Y88900D01*
X406400Y76200D02*
X406400Y50800D01*
X76200Y330200D02*
X38100Y292100D01*
X76200Y330200D02*
X76200Y381000D01*
X88900Y393700D01*
X657225Y130175D02*
X755650Y228600D01*
X755650Y361950D01*
X752475Y365125D01*
X663575Y400050D02*
X660400Y396875D01*
X663575Y400050D02*
X663575Y492125D01*
X679450Y508000D01*
X679450Y542925D01*
D40*
X657225Y130175D03*
X752475Y365125D03*
X660400Y396875D03*
X679450Y542925D03*
D41*
X301625Y723900D02*
X288925Y711200D01*
X288925Y361950D01*
D40*
X301625Y723900D03*
X288925Y361950D03*
D41*
X787400Y596900D02*
X825500Y596900D01*
X647700Y660400D02*
X638175Y669925D01*
X638175Y752475D01*
X587375Y749300D02*
X574675Y736600D01*
X574675Y638175D01*
X282575Y619125D02*
X279400Y622300D01*
X282575Y619125D02*
X282575Y368300D01*
X279400Y365125D01*
X279400Y352425D01*
D40*
X638175Y752475D03*
X587375Y749300D03*
X574675Y638175D03*
X279400Y622300D03*
X279400Y352425D03*
D41*
X203200Y482600D02*
X203200Y508000D01*
X203200Y482600D02*
X241300Y482600D01*
X355600Y482600D02*
X355600Y508000D01*
X701675Y327025D02*
X736600Y292100D01*
X736600Y266700D01*
D40*
X701675Y327025D03*
D41*
X307975Y333375D02*
X307975Y647700D01*
D40*
X307975Y647700D03*
X307975Y333375D03*
M02*
