G04 EAGLE Gerber RS-274X export*
G75*
%MOMM*%
%FSLAX34Y34*%
%LPD*%
%INSilkscreen Bottom*%
%IPPOS*%
%AMOC8*
5,1,8,0,0,1.08239X$1,22.5*%
G01*
%ADD10C,0.152400*%
%ADD11C,0.127000*%


D10*
X687070Y797560D02*
X659130Y797560D01*
X687070Y777240D02*
X687170Y777242D01*
X687269Y777248D01*
X687369Y777258D01*
X687467Y777271D01*
X687566Y777289D01*
X687663Y777310D01*
X687759Y777335D01*
X687855Y777364D01*
X687949Y777397D01*
X688042Y777433D01*
X688133Y777473D01*
X688223Y777517D01*
X688311Y777564D01*
X688397Y777614D01*
X688481Y777668D01*
X688563Y777725D01*
X688642Y777785D01*
X688720Y777849D01*
X688794Y777915D01*
X688866Y777984D01*
X688935Y778056D01*
X689001Y778130D01*
X689065Y778208D01*
X689125Y778287D01*
X689182Y778369D01*
X689236Y778453D01*
X689286Y778539D01*
X689333Y778627D01*
X689377Y778717D01*
X689417Y778808D01*
X689453Y778901D01*
X689486Y778995D01*
X689515Y779091D01*
X689540Y779187D01*
X689561Y779284D01*
X689579Y779383D01*
X689592Y779481D01*
X689602Y779581D01*
X689608Y779680D01*
X689610Y779780D01*
X659130Y777240D02*
X659030Y777242D01*
X658931Y777248D01*
X658831Y777258D01*
X658733Y777271D01*
X658634Y777289D01*
X658537Y777310D01*
X658441Y777335D01*
X658345Y777364D01*
X658251Y777397D01*
X658158Y777433D01*
X658067Y777473D01*
X657977Y777517D01*
X657889Y777564D01*
X657803Y777614D01*
X657719Y777668D01*
X657637Y777725D01*
X657558Y777785D01*
X657480Y777849D01*
X657406Y777915D01*
X657334Y777984D01*
X657265Y778056D01*
X657199Y778130D01*
X657135Y778208D01*
X657075Y778287D01*
X657018Y778369D01*
X656964Y778453D01*
X656914Y778539D01*
X656867Y778627D01*
X656823Y778717D01*
X656783Y778808D01*
X656747Y778901D01*
X656714Y778995D01*
X656685Y779091D01*
X656660Y779187D01*
X656639Y779284D01*
X656621Y779383D01*
X656608Y779481D01*
X656598Y779581D01*
X656592Y779680D01*
X656590Y779780D01*
X656590Y795020D02*
X656592Y795120D01*
X656598Y795219D01*
X656608Y795319D01*
X656621Y795417D01*
X656639Y795516D01*
X656660Y795613D01*
X656685Y795709D01*
X656714Y795805D01*
X656747Y795899D01*
X656783Y795992D01*
X656823Y796083D01*
X656867Y796173D01*
X656914Y796261D01*
X656964Y796347D01*
X657018Y796431D01*
X657075Y796513D01*
X657135Y796592D01*
X657199Y796670D01*
X657265Y796744D01*
X657334Y796816D01*
X657406Y796885D01*
X657480Y796951D01*
X657558Y797015D01*
X657637Y797075D01*
X657719Y797132D01*
X657803Y797186D01*
X657889Y797236D01*
X657977Y797283D01*
X658067Y797327D01*
X658158Y797367D01*
X658251Y797403D01*
X658345Y797436D01*
X658441Y797465D01*
X658537Y797490D01*
X658634Y797511D01*
X658733Y797529D01*
X658831Y797542D01*
X658931Y797552D01*
X659030Y797558D01*
X659130Y797560D01*
X687070Y797560D02*
X687170Y797558D01*
X687269Y797552D01*
X687369Y797542D01*
X687467Y797529D01*
X687566Y797511D01*
X687663Y797490D01*
X687759Y797465D01*
X687855Y797436D01*
X687949Y797403D01*
X688042Y797367D01*
X688133Y797327D01*
X688223Y797283D01*
X688311Y797236D01*
X688397Y797186D01*
X688481Y797132D01*
X688563Y797075D01*
X688642Y797015D01*
X688720Y796951D01*
X688794Y796885D01*
X688866Y796816D01*
X688935Y796744D01*
X689001Y796670D01*
X689065Y796592D01*
X689125Y796513D01*
X689182Y796431D01*
X689236Y796347D01*
X689286Y796261D01*
X689333Y796173D01*
X689377Y796083D01*
X689417Y795992D01*
X689453Y795899D01*
X689486Y795805D01*
X689515Y795709D01*
X689540Y795613D01*
X689561Y795516D01*
X689579Y795417D01*
X689592Y795319D01*
X689602Y795219D01*
X689608Y795120D01*
X689610Y795020D01*
X689610Y779780D01*
X656590Y779780D02*
X656590Y795020D01*
X659130Y777240D02*
X687070Y777240D01*
X687070Y746760D02*
X659130Y746760D01*
X687070Y726440D02*
X687170Y726442D01*
X687269Y726448D01*
X687369Y726458D01*
X687467Y726471D01*
X687566Y726489D01*
X687663Y726510D01*
X687759Y726535D01*
X687855Y726564D01*
X687949Y726597D01*
X688042Y726633D01*
X688133Y726673D01*
X688223Y726717D01*
X688311Y726764D01*
X688397Y726814D01*
X688481Y726868D01*
X688563Y726925D01*
X688642Y726985D01*
X688720Y727049D01*
X688794Y727115D01*
X688866Y727184D01*
X688935Y727256D01*
X689001Y727330D01*
X689065Y727408D01*
X689125Y727487D01*
X689182Y727569D01*
X689236Y727653D01*
X689286Y727739D01*
X689333Y727827D01*
X689377Y727917D01*
X689417Y728008D01*
X689453Y728101D01*
X689486Y728195D01*
X689515Y728291D01*
X689540Y728387D01*
X689561Y728484D01*
X689579Y728583D01*
X689592Y728681D01*
X689602Y728781D01*
X689608Y728880D01*
X689610Y728980D01*
X659130Y726440D02*
X659030Y726442D01*
X658931Y726448D01*
X658831Y726458D01*
X658733Y726471D01*
X658634Y726489D01*
X658537Y726510D01*
X658441Y726535D01*
X658345Y726564D01*
X658251Y726597D01*
X658158Y726633D01*
X658067Y726673D01*
X657977Y726717D01*
X657889Y726764D01*
X657803Y726814D01*
X657719Y726868D01*
X657637Y726925D01*
X657558Y726985D01*
X657480Y727049D01*
X657406Y727115D01*
X657334Y727184D01*
X657265Y727256D01*
X657199Y727330D01*
X657135Y727408D01*
X657075Y727487D01*
X657018Y727569D01*
X656964Y727653D01*
X656914Y727739D01*
X656867Y727827D01*
X656823Y727917D01*
X656783Y728008D01*
X656747Y728101D01*
X656714Y728195D01*
X656685Y728291D01*
X656660Y728387D01*
X656639Y728484D01*
X656621Y728583D01*
X656608Y728681D01*
X656598Y728781D01*
X656592Y728880D01*
X656590Y728980D01*
X656590Y744220D02*
X656592Y744320D01*
X656598Y744419D01*
X656608Y744519D01*
X656621Y744617D01*
X656639Y744716D01*
X656660Y744813D01*
X656685Y744909D01*
X656714Y745005D01*
X656747Y745099D01*
X656783Y745192D01*
X656823Y745283D01*
X656867Y745373D01*
X656914Y745461D01*
X656964Y745547D01*
X657018Y745631D01*
X657075Y745713D01*
X657135Y745792D01*
X657199Y745870D01*
X657265Y745944D01*
X657334Y746016D01*
X657406Y746085D01*
X657480Y746151D01*
X657558Y746215D01*
X657637Y746275D01*
X657719Y746332D01*
X657803Y746386D01*
X657889Y746436D01*
X657977Y746483D01*
X658067Y746527D01*
X658158Y746567D01*
X658251Y746603D01*
X658345Y746636D01*
X658441Y746665D01*
X658537Y746690D01*
X658634Y746711D01*
X658733Y746729D01*
X658831Y746742D01*
X658931Y746752D01*
X659030Y746758D01*
X659130Y746760D01*
X687070Y746760D02*
X687170Y746758D01*
X687269Y746752D01*
X687369Y746742D01*
X687467Y746729D01*
X687566Y746711D01*
X687663Y746690D01*
X687759Y746665D01*
X687855Y746636D01*
X687949Y746603D01*
X688042Y746567D01*
X688133Y746527D01*
X688223Y746483D01*
X688311Y746436D01*
X688397Y746386D01*
X688481Y746332D01*
X688563Y746275D01*
X688642Y746215D01*
X688720Y746151D01*
X688794Y746085D01*
X688866Y746016D01*
X688935Y745944D01*
X689001Y745870D01*
X689065Y745792D01*
X689125Y745713D01*
X689182Y745631D01*
X689236Y745547D01*
X689286Y745461D01*
X689333Y745373D01*
X689377Y745283D01*
X689417Y745192D01*
X689453Y745099D01*
X689486Y745005D01*
X689515Y744909D01*
X689540Y744813D01*
X689561Y744716D01*
X689579Y744617D01*
X689592Y744519D01*
X689602Y744419D01*
X689608Y744320D01*
X689610Y744220D01*
X689610Y728980D01*
X656590Y728980D02*
X656590Y744220D01*
X659130Y726440D02*
X687070Y726440D01*
X687070Y772160D02*
X659130Y772160D01*
X687070Y751840D02*
X687170Y751842D01*
X687269Y751848D01*
X687369Y751858D01*
X687467Y751871D01*
X687566Y751889D01*
X687663Y751910D01*
X687759Y751935D01*
X687855Y751964D01*
X687949Y751997D01*
X688042Y752033D01*
X688133Y752073D01*
X688223Y752117D01*
X688311Y752164D01*
X688397Y752214D01*
X688481Y752268D01*
X688563Y752325D01*
X688642Y752385D01*
X688720Y752449D01*
X688794Y752515D01*
X688866Y752584D01*
X688935Y752656D01*
X689001Y752730D01*
X689065Y752808D01*
X689125Y752887D01*
X689182Y752969D01*
X689236Y753053D01*
X689286Y753139D01*
X689333Y753227D01*
X689377Y753317D01*
X689417Y753408D01*
X689453Y753501D01*
X689486Y753595D01*
X689515Y753691D01*
X689540Y753787D01*
X689561Y753884D01*
X689579Y753983D01*
X689592Y754081D01*
X689602Y754181D01*
X689608Y754280D01*
X689610Y754380D01*
X659130Y751840D02*
X659030Y751842D01*
X658931Y751848D01*
X658831Y751858D01*
X658733Y751871D01*
X658634Y751889D01*
X658537Y751910D01*
X658441Y751935D01*
X658345Y751964D01*
X658251Y751997D01*
X658158Y752033D01*
X658067Y752073D01*
X657977Y752117D01*
X657889Y752164D01*
X657803Y752214D01*
X657719Y752268D01*
X657637Y752325D01*
X657558Y752385D01*
X657480Y752449D01*
X657406Y752515D01*
X657334Y752584D01*
X657265Y752656D01*
X657199Y752730D01*
X657135Y752808D01*
X657075Y752887D01*
X657018Y752969D01*
X656964Y753053D01*
X656914Y753139D01*
X656867Y753227D01*
X656823Y753317D01*
X656783Y753408D01*
X656747Y753501D01*
X656714Y753595D01*
X656685Y753691D01*
X656660Y753787D01*
X656639Y753884D01*
X656621Y753983D01*
X656608Y754081D01*
X656598Y754181D01*
X656592Y754280D01*
X656590Y754380D01*
X656590Y769620D02*
X656592Y769720D01*
X656598Y769819D01*
X656608Y769919D01*
X656621Y770017D01*
X656639Y770116D01*
X656660Y770213D01*
X656685Y770309D01*
X656714Y770405D01*
X656747Y770499D01*
X656783Y770592D01*
X656823Y770683D01*
X656867Y770773D01*
X656914Y770861D01*
X656964Y770947D01*
X657018Y771031D01*
X657075Y771113D01*
X657135Y771192D01*
X657199Y771270D01*
X657265Y771344D01*
X657334Y771416D01*
X657406Y771485D01*
X657480Y771551D01*
X657558Y771615D01*
X657637Y771675D01*
X657719Y771732D01*
X657803Y771786D01*
X657889Y771836D01*
X657977Y771883D01*
X658067Y771927D01*
X658158Y771967D01*
X658251Y772003D01*
X658345Y772036D01*
X658441Y772065D01*
X658537Y772090D01*
X658634Y772111D01*
X658733Y772129D01*
X658831Y772142D01*
X658931Y772152D01*
X659030Y772158D01*
X659130Y772160D01*
X687070Y772160D02*
X687170Y772158D01*
X687269Y772152D01*
X687369Y772142D01*
X687467Y772129D01*
X687566Y772111D01*
X687663Y772090D01*
X687759Y772065D01*
X687855Y772036D01*
X687949Y772003D01*
X688042Y771967D01*
X688133Y771927D01*
X688223Y771883D01*
X688311Y771836D01*
X688397Y771786D01*
X688481Y771732D01*
X688563Y771675D01*
X688642Y771615D01*
X688720Y771551D01*
X688794Y771485D01*
X688866Y771416D01*
X688935Y771344D01*
X689001Y771270D01*
X689065Y771192D01*
X689125Y771113D01*
X689182Y771031D01*
X689236Y770947D01*
X689286Y770861D01*
X689333Y770773D01*
X689377Y770683D01*
X689417Y770592D01*
X689453Y770499D01*
X689486Y770405D01*
X689515Y770309D01*
X689540Y770213D01*
X689561Y770116D01*
X689579Y770017D01*
X689592Y769919D01*
X689602Y769819D01*
X689608Y769720D01*
X689610Y769620D01*
X689610Y754380D01*
X656590Y754380D02*
X656590Y769620D01*
X659130Y751840D02*
X687070Y751840D01*
X687070Y721360D02*
X659130Y721360D01*
X687070Y701040D02*
X687170Y701042D01*
X687269Y701048D01*
X687369Y701058D01*
X687467Y701071D01*
X687566Y701089D01*
X687663Y701110D01*
X687759Y701135D01*
X687855Y701164D01*
X687949Y701197D01*
X688042Y701233D01*
X688133Y701273D01*
X688223Y701317D01*
X688311Y701364D01*
X688397Y701414D01*
X688481Y701468D01*
X688563Y701525D01*
X688642Y701585D01*
X688720Y701649D01*
X688794Y701715D01*
X688866Y701784D01*
X688935Y701856D01*
X689001Y701930D01*
X689065Y702008D01*
X689125Y702087D01*
X689182Y702169D01*
X689236Y702253D01*
X689286Y702339D01*
X689333Y702427D01*
X689377Y702517D01*
X689417Y702608D01*
X689453Y702701D01*
X689486Y702795D01*
X689515Y702891D01*
X689540Y702987D01*
X689561Y703084D01*
X689579Y703183D01*
X689592Y703281D01*
X689602Y703381D01*
X689608Y703480D01*
X689610Y703580D01*
X659130Y701040D02*
X659030Y701042D01*
X658931Y701048D01*
X658831Y701058D01*
X658733Y701071D01*
X658634Y701089D01*
X658537Y701110D01*
X658441Y701135D01*
X658345Y701164D01*
X658251Y701197D01*
X658158Y701233D01*
X658067Y701273D01*
X657977Y701317D01*
X657889Y701364D01*
X657803Y701414D01*
X657719Y701468D01*
X657637Y701525D01*
X657558Y701585D01*
X657480Y701649D01*
X657406Y701715D01*
X657334Y701784D01*
X657265Y701856D01*
X657199Y701930D01*
X657135Y702008D01*
X657075Y702087D01*
X657018Y702169D01*
X656964Y702253D01*
X656914Y702339D01*
X656867Y702427D01*
X656823Y702517D01*
X656783Y702608D01*
X656747Y702701D01*
X656714Y702795D01*
X656685Y702891D01*
X656660Y702987D01*
X656639Y703084D01*
X656621Y703183D01*
X656608Y703281D01*
X656598Y703381D01*
X656592Y703480D01*
X656590Y703580D01*
X656590Y718820D02*
X656592Y718920D01*
X656598Y719019D01*
X656608Y719119D01*
X656621Y719217D01*
X656639Y719316D01*
X656660Y719413D01*
X656685Y719509D01*
X656714Y719605D01*
X656747Y719699D01*
X656783Y719792D01*
X656823Y719883D01*
X656867Y719973D01*
X656914Y720061D01*
X656964Y720147D01*
X657018Y720231D01*
X657075Y720313D01*
X657135Y720392D01*
X657199Y720470D01*
X657265Y720544D01*
X657334Y720616D01*
X657406Y720685D01*
X657480Y720751D01*
X657558Y720815D01*
X657637Y720875D01*
X657719Y720932D01*
X657803Y720986D01*
X657889Y721036D01*
X657977Y721083D01*
X658067Y721127D01*
X658158Y721167D01*
X658251Y721203D01*
X658345Y721236D01*
X658441Y721265D01*
X658537Y721290D01*
X658634Y721311D01*
X658733Y721329D01*
X658831Y721342D01*
X658931Y721352D01*
X659030Y721358D01*
X659130Y721360D01*
X687070Y721360D02*
X687170Y721358D01*
X687269Y721352D01*
X687369Y721342D01*
X687467Y721329D01*
X687566Y721311D01*
X687663Y721290D01*
X687759Y721265D01*
X687855Y721236D01*
X687949Y721203D01*
X688042Y721167D01*
X688133Y721127D01*
X688223Y721083D01*
X688311Y721036D01*
X688397Y720986D01*
X688481Y720932D01*
X688563Y720875D01*
X688642Y720815D01*
X688720Y720751D01*
X688794Y720685D01*
X688866Y720616D01*
X688935Y720544D01*
X689001Y720470D01*
X689065Y720392D01*
X689125Y720313D01*
X689182Y720231D01*
X689236Y720147D01*
X689286Y720061D01*
X689333Y719973D01*
X689377Y719883D01*
X689417Y719792D01*
X689453Y719699D01*
X689486Y719605D01*
X689515Y719509D01*
X689540Y719413D01*
X689561Y719316D01*
X689579Y719217D01*
X689592Y719119D01*
X689602Y719019D01*
X689608Y718920D01*
X689610Y718820D01*
X689610Y703580D01*
X656590Y703580D02*
X656590Y718820D01*
X659130Y701040D02*
X687070Y701040D01*
X314960Y369570D02*
X314960Y341630D01*
X297180Y339090D02*
X297080Y339092D01*
X296981Y339098D01*
X296881Y339108D01*
X296783Y339121D01*
X296684Y339139D01*
X296587Y339160D01*
X296491Y339185D01*
X296395Y339214D01*
X296301Y339247D01*
X296208Y339283D01*
X296117Y339323D01*
X296027Y339367D01*
X295939Y339414D01*
X295853Y339464D01*
X295769Y339518D01*
X295687Y339575D01*
X295608Y339635D01*
X295530Y339699D01*
X295456Y339765D01*
X295384Y339834D01*
X295315Y339906D01*
X295249Y339980D01*
X295185Y340058D01*
X295125Y340137D01*
X295068Y340219D01*
X295014Y340303D01*
X294964Y340389D01*
X294917Y340477D01*
X294873Y340567D01*
X294833Y340658D01*
X294797Y340751D01*
X294764Y340845D01*
X294735Y340941D01*
X294710Y341037D01*
X294689Y341134D01*
X294671Y341233D01*
X294658Y341331D01*
X294648Y341431D01*
X294642Y341530D01*
X294640Y341630D01*
X294640Y369570D02*
X294642Y369670D01*
X294648Y369769D01*
X294658Y369869D01*
X294671Y369967D01*
X294689Y370066D01*
X294710Y370163D01*
X294735Y370259D01*
X294764Y370355D01*
X294797Y370449D01*
X294833Y370542D01*
X294873Y370633D01*
X294917Y370723D01*
X294964Y370811D01*
X295014Y370897D01*
X295068Y370981D01*
X295125Y371063D01*
X295185Y371142D01*
X295249Y371220D01*
X295315Y371294D01*
X295384Y371366D01*
X295456Y371435D01*
X295530Y371501D01*
X295608Y371565D01*
X295687Y371625D01*
X295769Y371682D01*
X295853Y371736D01*
X295939Y371786D01*
X296027Y371833D01*
X296117Y371877D01*
X296208Y371917D01*
X296301Y371953D01*
X296395Y371986D01*
X296491Y372015D01*
X296587Y372040D01*
X296684Y372061D01*
X296783Y372079D01*
X296881Y372092D01*
X296981Y372102D01*
X297080Y372108D01*
X297180Y372110D01*
X312420Y372110D02*
X312520Y372108D01*
X312619Y372102D01*
X312719Y372092D01*
X312817Y372079D01*
X312916Y372061D01*
X313013Y372040D01*
X313109Y372015D01*
X313205Y371986D01*
X313299Y371953D01*
X313392Y371917D01*
X313483Y371877D01*
X313573Y371833D01*
X313661Y371786D01*
X313747Y371736D01*
X313831Y371682D01*
X313913Y371625D01*
X313992Y371565D01*
X314070Y371501D01*
X314144Y371435D01*
X314216Y371366D01*
X314285Y371294D01*
X314351Y371220D01*
X314415Y371142D01*
X314475Y371063D01*
X314532Y370981D01*
X314586Y370897D01*
X314636Y370811D01*
X314683Y370723D01*
X314727Y370633D01*
X314767Y370542D01*
X314803Y370449D01*
X314836Y370355D01*
X314865Y370259D01*
X314890Y370163D01*
X314911Y370066D01*
X314929Y369967D01*
X314942Y369869D01*
X314952Y369769D01*
X314958Y369670D01*
X314960Y369570D01*
X314960Y341630D02*
X314958Y341530D01*
X314952Y341431D01*
X314942Y341331D01*
X314929Y341233D01*
X314911Y341134D01*
X314890Y341037D01*
X314865Y340941D01*
X314836Y340845D01*
X314803Y340751D01*
X314767Y340658D01*
X314727Y340567D01*
X314683Y340477D01*
X314636Y340389D01*
X314586Y340303D01*
X314532Y340219D01*
X314475Y340137D01*
X314415Y340058D01*
X314351Y339980D01*
X314285Y339906D01*
X314216Y339834D01*
X314144Y339765D01*
X314070Y339699D01*
X313992Y339635D01*
X313913Y339575D01*
X313831Y339518D01*
X313747Y339464D01*
X313661Y339414D01*
X313573Y339367D01*
X313483Y339323D01*
X313392Y339283D01*
X313299Y339247D01*
X313205Y339214D01*
X313109Y339185D01*
X313013Y339160D01*
X312916Y339139D01*
X312817Y339121D01*
X312719Y339108D01*
X312619Y339098D01*
X312520Y339092D01*
X312420Y339090D01*
X297180Y339090D01*
X297180Y372110D02*
X312420Y372110D01*
X294640Y369570D02*
X294640Y341630D01*
D11*
X292745Y343383D02*
X290838Y345290D01*
X292745Y343383D02*
X292745Y339570D01*
X290838Y337663D01*
X288932Y337663D01*
X287025Y339570D01*
X287025Y343383D01*
X285118Y345290D01*
X283212Y345290D01*
X281305Y343383D01*
X281305Y339570D01*
X283212Y337663D01*
X283212Y349357D02*
X281305Y351264D01*
X281305Y353170D01*
X283212Y355077D01*
X292745Y355077D01*
X292745Y353170D02*
X292745Y356984D01*
X292745Y361051D02*
X292745Y368677D01*
X292745Y361051D02*
X287025Y361051D01*
X288932Y364864D01*
X288932Y366771D01*
X287025Y368677D01*
X283212Y368677D01*
X281305Y366771D01*
X281305Y362958D01*
X283212Y361051D01*
M02*
