G04 EAGLE Gerber RS-274X export*
G75*
%MOMM*%
%FSLAX34Y34*%
%LPD*%
%INSilkscreen Bottom*%
%IPPOS*%
%AMOC8*
5,1,8,0,0,1.08239X$1,22.5*%
G01*
%ADD10C,0.152400*%


D10*
X773430Y650240D02*
X801370Y650240D01*
X773430Y670560D02*
X773330Y670558D01*
X773231Y670552D01*
X773131Y670542D01*
X773033Y670529D01*
X772934Y670511D01*
X772837Y670490D01*
X772741Y670465D01*
X772645Y670436D01*
X772551Y670403D01*
X772458Y670367D01*
X772367Y670327D01*
X772277Y670283D01*
X772189Y670236D01*
X772103Y670186D01*
X772019Y670132D01*
X771937Y670075D01*
X771858Y670015D01*
X771780Y669951D01*
X771706Y669885D01*
X771634Y669816D01*
X771565Y669744D01*
X771499Y669670D01*
X771435Y669592D01*
X771375Y669513D01*
X771318Y669431D01*
X771264Y669347D01*
X771214Y669261D01*
X771167Y669173D01*
X771123Y669083D01*
X771083Y668992D01*
X771047Y668899D01*
X771014Y668805D01*
X770985Y668709D01*
X770960Y668613D01*
X770939Y668516D01*
X770921Y668417D01*
X770908Y668319D01*
X770898Y668219D01*
X770892Y668120D01*
X770890Y668020D01*
X801370Y670560D02*
X801470Y670558D01*
X801569Y670552D01*
X801669Y670542D01*
X801767Y670529D01*
X801866Y670511D01*
X801963Y670490D01*
X802059Y670465D01*
X802155Y670436D01*
X802249Y670403D01*
X802342Y670367D01*
X802433Y670327D01*
X802523Y670283D01*
X802611Y670236D01*
X802697Y670186D01*
X802781Y670132D01*
X802863Y670075D01*
X802942Y670015D01*
X803020Y669951D01*
X803094Y669885D01*
X803166Y669816D01*
X803235Y669744D01*
X803301Y669670D01*
X803365Y669592D01*
X803425Y669513D01*
X803482Y669431D01*
X803536Y669347D01*
X803586Y669261D01*
X803633Y669173D01*
X803677Y669083D01*
X803717Y668992D01*
X803753Y668899D01*
X803786Y668805D01*
X803815Y668709D01*
X803840Y668613D01*
X803861Y668516D01*
X803879Y668417D01*
X803892Y668319D01*
X803902Y668219D01*
X803908Y668120D01*
X803910Y668020D01*
X803910Y652780D02*
X803908Y652680D01*
X803902Y652581D01*
X803892Y652481D01*
X803879Y652383D01*
X803861Y652284D01*
X803840Y652187D01*
X803815Y652091D01*
X803786Y651995D01*
X803753Y651901D01*
X803717Y651808D01*
X803677Y651717D01*
X803633Y651627D01*
X803586Y651539D01*
X803536Y651453D01*
X803482Y651369D01*
X803425Y651287D01*
X803365Y651208D01*
X803301Y651130D01*
X803235Y651056D01*
X803166Y650984D01*
X803094Y650915D01*
X803020Y650849D01*
X802942Y650785D01*
X802863Y650725D01*
X802781Y650668D01*
X802697Y650614D01*
X802611Y650564D01*
X802523Y650517D01*
X802433Y650473D01*
X802342Y650433D01*
X802249Y650397D01*
X802155Y650364D01*
X802059Y650335D01*
X801963Y650310D01*
X801866Y650289D01*
X801767Y650271D01*
X801669Y650258D01*
X801569Y650248D01*
X801470Y650242D01*
X801370Y650240D01*
X773430Y650240D02*
X773330Y650242D01*
X773231Y650248D01*
X773131Y650258D01*
X773033Y650271D01*
X772934Y650289D01*
X772837Y650310D01*
X772741Y650335D01*
X772645Y650364D01*
X772551Y650397D01*
X772458Y650433D01*
X772367Y650473D01*
X772277Y650517D01*
X772189Y650564D01*
X772103Y650614D01*
X772019Y650668D01*
X771937Y650725D01*
X771858Y650785D01*
X771780Y650849D01*
X771706Y650915D01*
X771634Y650984D01*
X771565Y651056D01*
X771499Y651130D01*
X771435Y651208D01*
X771375Y651287D01*
X771318Y651369D01*
X771264Y651453D01*
X771214Y651539D01*
X771167Y651627D01*
X771123Y651717D01*
X771083Y651808D01*
X771047Y651901D01*
X771014Y651995D01*
X770985Y652091D01*
X770960Y652187D01*
X770939Y652284D01*
X770921Y652383D01*
X770908Y652481D01*
X770898Y652581D01*
X770892Y652680D01*
X770890Y652780D01*
X770890Y668020D01*
X803910Y668020D02*
X803910Y652780D01*
X801370Y670560D02*
X773430Y670560D01*
X773430Y599440D02*
X801370Y599440D01*
X773430Y619760D02*
X773330Y619758D01*
X773231Y619752D01*
X773131Y619742D01*
X773033Y619729D01*
X772934Y619711D01*
X772837Y619690D01*
X772741Y619665D01*
X772645Y619636D01*
X772551Y619603D01*
X772458Y619567D01*
X772367Y619527D01*
X772277Y619483D01*
X772189Y619436D01*
X772103Y619386D01*
X772019Y619332D01*
X771937Y619275D01*
X771858Y619215D01*
X771780Y619151D01*
X771706Y619085D01*
X771634Y619016D01*
X771565Y618944D01*
X771499Y618870D01*
X771435Y618792D01*
X771375Y618713D01*
X771318Y618631D01*
X771264Y618547D01*
X771214Y618461D01*
X771167Y618373D01*
X771123Y618283D01*
X771083Y618192D01*
X771047Y618099D01*
X771014Y618005D01*
X770985Y617909D01*
X770960Y617813D01*
X770939Y617716D01*
X770921Y617617D01*
X770908Y617519D01*
X770898Y617419D01*
X770892Y617320D01*
X770890Y617220D01*
X801370Y619760D02*
X801470Y619758D01*
X801569Y619752D01*
X801669Y619742D01*
X801767Y619729D01*
X801866Y619711D01*
X801963Y619690D01*
X802059Y619665D01*
X802155Y619636D01*
X802249Y619603D01*
X802342Y619567D01*
X802433Y619527D01*
X802523Y619483D01*
X802611Y619436D01*
X802697Y619386D01*
X802781Y619332D01*
X802863Y619275D01*
X802942Y619215D01*
X803020Y619151D01*
X803094Y619085D01*
X803166Y619016D01*
X803235Y618944D01*
X803301Y618870D01*
X803365Y618792D01*
X803425Y618713D01*
X803482Y618631D01*
X803536Y618547D01*
X803586Y618461D01*
X803633Y618373D01*
X803677Y618283D01*
X803717Y618192D01*
X803753Y618099D01*
X803786Y618005D01*
X803815Y617909D01*
X803840Y617813D01*
X803861Y617716D01*
X803879Y617617D01*
X803892Y617519D01*
X803902Y617419D01*
X803908Y617320D01*
X803910Y617220D01*
X803910Y601980D02*
X803908Y601880D01*
X803902Y601781D01*
X803892Y601681D01*
X803879Y601583D01*
X803861Y601484D01*
X803840Y601387D01*
X803815Y601291D01*
X803786Y601195D01*
X803753Y601101D01*
X803717Y601008D01*
X803677Y600917D01*
X803633Y600827D01*
X803586Y600739D01*
X803536Y600653D01*
X803482Y600569D01*
X803425Y600487D01*
X803365Y600408D01*
X803301Y600330D01*
X803235Y600256D01*
X803166Y600184D01*
X803094Y600115D01*
X803020Y600049D01*
X802942Y599985D01*
X802863Y599925D01*
X802781Y599868D01*
X802697Y599814D01*
X802611Y599764D01*
X802523Y599717D01*
X802433Y599673D01*
X802342Y599633D01*
X802249Y599597D01*
X802155Y599564D01*
X802059Y599535D01*
X801963Y599510D01*
X801866Y599489D01*
X801767Y599471D01*
X801669Y599458D01*
X801569Y599448D01*
X801470Y599442D01*
X801370Y599440D01*
X773430Y599440D02*
X773330Y599442D01*
X773231Y599448D01*
X773131Y599458D01*
X773033Y599471D01*
X772934Y599489D01*
X772837Y599510D01*
X772741Y599535D01*
X772645Y599564D01*
X772551Y599597D01*
X772458Y599633D01*
X772367Y599673D01*
X772277Y599717D01*
X772189Y599764D01*
X772103Y599814D01*
X772019Y599868D01*
X771937Y599925D01*
X771858Y599985D01*
X771780Y600049D01*
X771706Y600115D01*
X771634Y600184D01*
X771565Y600256D01*
X771499Y600330D01*
X771435Y600408D01*
X771375Y600487D01*
X771318Y600569D01*
X771264Y600653D01*
X771214Y600739D01*
X771167Y600827D01*
X771123Y600917D01*
X771083Y601008D01*
X771047Y601101D01*
X771014Y601195D01*
X770985Y601291D01*
X770960Y601387D01*
X770939Y601484D01*
X770921Y601583D01*
X770908Y601681D01*
X770898Y601781D01*
X770892Y601880D01*
X770890Y601980D01*
X770890Y617220D01*
X803910Y617220D02*
X803910Y601980D01*
X801370Y619760D02*
X773430Y619760D01*
X773430Y624840D02*
X801370Y624840D01*
X773430Y645160D02*
X773330Y645158D01*
X773231Y645152D01*
X773131Y645142D01*
X773033Y645129D01*
X772934Y645111D01*
X772837Y645090D01*
X772741Y645065D01*
X772645Y645036D01*
X772551Y645003D01*
X772458Y644967D01*
X772367Y644927D01*
X772277Y644883D01*
X772189Y644836D01*
X772103Y644786D01*
X772019Y644732D01*
X771937Y644675D01*
X771858Y644615D01*
X771780Y644551D01*
X771706Y644485D01*
X771634Y644416D01*
X771565Y644344D01*
X771499Y644270D01*
X771435Y644192D01*
X771375Y644113D01*
X771318Y644031D01*
X771264Y643947D01*
X771214Y643861D01*
X771167Y643773D01*
X771123Y643683D01*
X771083Y643592D01*
X771047Y643499D01*
X771014Y643405D01*
X770985Y643309D01*
X770960Y643213D01*
X770939Y643116D01*
X770921Y643017D01*
X770908Y642919D01*
X770898Y642819D01*
X770892Y642720D01*
X770890Y642620D01*
X801370Y645160D02*
X801470Y645158D01*
X801569Y645152D01*
X801669Y645142D01*
X801767Y645129D01*
X801866Y645111D01*
X801963Y645090D01*
X802059Y645065D01*
X802155Y645036D01*
X802249Y645003D01*
X802342Y644967D01*
X802433Y644927D01*
X802523Y644883D01*
X802611Y644836D01*
X802697Y644786D01*
X802781Y644732D01*
X802863Y644675D01*
X802942Y644615D01*
X803020Y644551D01*
X803094Y644485D01*
X803166Y644416D01*
X803235Y644344D01*
X803301Y644270D01*
X803365Y644192D01*
X803425Y644113D01*
X803482Y644031D01*
X803536Y643947D01*
X803586Y643861D01*
X803633Y643773D01*
X803677Y643683D01*
X803717Y643592D01*
X803753Y643499D01*
X803786Y643405D01*
X803815Y643309D01*
X803840Y643213D01*
X803861Y643116D01*
X803879Y643017D01*
X803892Y642919D01*
X803902Y642819D01*
X803908Y642720D01*
X803910Y642620D01*
X803910Y627380D02*
X803908Y627280D01*
X803902Y627181D01*
X803892Y627081D01*
X803879Y626983D01*
X803861Y626884D01*
X803840Y626787D01*
X803815Y626691D01*
X803786Y626595D01*
X803753Y626501D01*
X803717Y626408D01*
X803677Y626317D01*
X803633Y626227D01*
X803586Y626139D01*
X803536Y626053D01*
X803482Y625969D01*
X803425Y625887D01*
X803365Y625808D01*
X803301Y625730D01*
X803235Y625656D01*
X803166Y625584D01*
X803094Y625515D01*
X803020Y625449D01*
X802942Y625385D01*
X802863Y625325D01*
X802781Y625268D01*
X802697Y625214D01*
X802611Y625164D01*
X802523Y625117D01*
X802433Y625073D01*
X802342Y625033D01*
X802249Y624997D01*
X802155Y624964D01*
X802059Y624935D01*
X801963Y624910D01*
X801866Y624889D01*
X801767Y624871D01*
X801669Y624858D01*
X801569Y624848D01*
X801470Y624842D01*
X801370Y624840D01*
X773430Y624840D02*
X773330Y624842D01*
X773231Y624848D01*
X773131Y624858D01*
X773033Y624871D01*
X772934Y624889D01*
X772837Y624910D01*
X772741Y624935D01*
X772645Y624964D01*
X772551Y624997D01*
X772458Y625033D01*
X772367Y625073D01*
X772277Y625117D01*
X772189Y625164D01*
X772103Y625214D01*
X772019Y625268D01*
X771937Y625325D01*
X771858Y625385D01*
X771780Y625449D01*
X771706Y625515D01*
X771634Y625584D01*
X771565Y625656D01*
X771499Y625730D01*
X771435Y625808D01*
X771375Y625887D01*
X771318Y625969D01*
X771264Y626053D01*
X771214Y626139D01*
X771167Y626227D01*
X771123Y626317D01*
X771083Y626408D01*
X771047Y626501D01*
X771014Y626595D01*
X770985Y626691D01*
X770960Y626787D01*
X770939Y626884D01*
X770921Y626983D01*
X770908Y627081D01*
X770898Y627181D01*
X770892Y627280D01*
X770890Y627380D01*
X770890Y642620D01*
X803910Y642620D02*
X803910Y627380D01*
X801370Y645160D02*
X773430Y645160D01*
X773430Y574040D02*
X801370Y574040D01*
X773430Y594360D02*
X773330Y594358D01*
X773231Y594352D01*
X773131Y594342D01*
X773033Y594329D01*
X772934Y594311D01*
X772837Y594290D01*
X772741Y594265D01*
X772645Y594236D01*
X772551Y594203D01*
X772458Y594167D01*
X772367Y594127D01*
X772277Y594083D01*
X772189Y594036D01*
X772103Y593986D01*
X772019Y593932D01*
X771937Y593875D01*
X771858Y593815D01*
X771780Y593751D01*
X771706Y593685D01*
X771634Y593616D01*
X771565Y593544D01*
X771499Y593470D01*
X771435Y593392D01*
X771375Y593313D01*
X771318Y593231D01*
X771264Y593147D01*
X771214Y593061D01*
X771167Y592973D01*
X771123Y592883D01*
X771083Y592792D01*
X771047Y592699D01*
X771014Y592605D01*
X770985Y592509D01*
X770960Y592413D01*
X770939Y592316D01*
X770921Y592217D01*
X770908Y592119D01*
X770898Y592019D01*
X770892Y591920D01*
X770890Y591820D01*
X801370Y594360D02*
X801470Y594358D01*
X801569Y594352D01*
X801669Y594342D01*
X801767Y594329D01*
X801866Y594311D01*
X801963Y594290D01*
X802059Y594265D01*
X802155Y594236D01*
X802249Y594203D01*
X802342Y594167D01*
X802433Y594127D01*
X802523Y594083D01*
X802611Y594036D01*
X802697Y593986D01*
X802781Y593932D01*
X802863Y593875D01*
X802942Y593815D01*
X803020Y593751D01*
X803094Y593685D01*
X803166Y593616D01*
X803235Y593544D01*
X803301Y593470D01*
X803365Y593392D01*
X803425Y593313D01*
X803482Y593231D01*
X803536Y593147D01*
X803586Y593061D01*
X803633Y592973D01*
X803677Y592883D01*
X803717Y592792D01*
X803753Y592699D01*
X803786Y592605D01*
X803815Y592509D01*
X803840Y592413D01*
X803861Y592316D01*
X803879Y592217D01*
X803892Y592119D01*
X803902Y592019D01*
X803908Y591920D01*
X803910Y591820D01*
X803910Y576580D02*
X803908Y576480D01*
X803902Y576381D01*
X803892Y576281D01*
X803879Y576183D01*
X803861Y576084D01*
X803840Y575987D01*
X803815Y575891D01*
X803786Y575795D01*
X803753Y575701D01*
X803717Y575608D01*
X803677Y575517D01*
X803633Y575427D01*
X803586Y575339D01*
X803536Y575253D01*
X803482Y575169D01*
X803425Y575087D01*
X803365Y575008D01*
X803301Y574930D01*
X803235Y574856D01*
X803166Y574784D01*
X803094Y574715D01*
X803020Y574649D01*
X802942Y574585D01*
X802863Y574525D01*
X802781Y574468D01*
X802697Y574414D01*
X802611Y574364D01*
X802523Y574317D01*
X802433Y574273D01*
X802342Y574233D01*
X802249Y574197D01*
X802155Y574164D01*
X802059Y574135D01*
X801963Y574110D01*
X801866Y574089D01*
X801767Y574071D01*
X801669Y574058D01*
X801569Y574048D01*
X801470Y574042D01*
X801370Y574040D01*
X773430Y574040D02*
X773330Y574042D01*
X773231Y574048D01*
X773131Y574058D01*
X773033Y574071D01*
X772934Y574089D01*
X772837Y574110D01*
X772741Y574135D01*
X772645Y574164D01*
X772551Y574197D01*
X772458Y574233D01*
X772367Y574273D01*
X772277Y574317D01*
X772189Y574364D01*
X772103Y574414D01*
X772019Y574468D01*
X771937Y574525D01*
X771858Y574585D01*
X771780Y574649D01*
X771706Y574715D01*
X771634Y574784D01*
X771565Y574856D01*
X771499Y574930D01*
X771435Y575008D01*
X771375Y575087D01*
X771318Y575169D01*
X771264Y575253D01*
X771214Y575339D01*
X771167Y575427D01*
X771123Y575517D01*
X771083Y575608D01*
X771047Y575701D01*
X771014Y575795D01*
X770985Y575891D01*
X770960Y575987D01*
X770939Y576084D01*
X770921Y576183D01*
X770908Y576281D01*
X770898Y576381D01*
X770892Y576480D01*
X770890Y576580D01*
X770890Y591820D01*
X803910Y591820D02*
X803910Y576580D01*
X801370Y594360D02*
X773430Y594360D01*
M02*
