G04 EAGLE Gerber RS-274X export*
G75*
%MOMM*%
%FSLAX34Y34*%
%LPD*%
%INSoldermask Bottom*%
%IPPOS*%
%AMOC8*
5,1,8,0,0,1.08239X$1,22.5*%
G01*
%ADD10C,1.879600*%
%ADD11C,3.505200*%
%ADD12P,1.951982X8X292.500000*%
%ADD13C,1.803400*%
%ADD14P,1.649562X8X22.500000*%
%ADD15C,1.524000*%
%ADD16P,1.649562X8X112.500000*%
%ADD17P,1.649562X8X292.500000*%
%ADD18C,2.743200*%
%ADD19C,1.625600*%
%ADD20P,1.759533X8X22.500000*%
%ADD21P,1.759533X8X202.500000*%
%ADD22C,3.352800*%
%ADD23P,3.629037X8X22.500000*%
%ADD24P,1.951982X8X202.500000*%
%ADD25P,1.951982X8X22.500000*%
%ADD26P,1.951982X8X112.500000*%
%ADD27P,1.649562X8X202.500000*%
%ADD28C,1.524000*%
%ADD29R,1.371600X1.803400*%
%ADD30R,0.152400X1.828800*%
%ADD31C,4.648200*%
%ADD32C,4.013200*%
%ADD33R,1.511200X1.511200*%
%ADD34C,1.727200*%
%ADD35C,1.411200*%
%ADD36P,2.158177X8X22.500000*%
%ADD37C,1.879600*%
%ADD38P,1.869504X8X22.500000*%


D10*
X762000Y1083818D02*
X762000Y1100582D01*
X787400Y1100582D02*
X787400Y1083818D01*
X812800Y1083818D02*
X812800Y1100582D01*
D11*
X787400Y1242060D03*
D12*
X1689100Y939800D03*
D13*
X1689100Y965200D03*
D14*
X749300Y1054100D03*
X800100Y1054100D03*
X838200Y1054100D03*
X889000Y1054100D03*
D15*
X1022096Y241300D02*
X1035304Y241300D01*
X1035304Y266700D02*
X1022096Y266700D01*
X1022096Y393700D02*
X1035304Y393700D01*
X1035304Y419100D02*
X1022096Y419100D01*
X1022096Y292100D02*
X1035304Y292100D01*
X1035304Y317500D02*
X1022096Y317500D01*
X1022096Y368300D02*
X1035304Y368300D01*
X1035304Y342900D02*
X1022096Y342900D01*
X1022096Y444500D02*
X1035304Y444500D01*
X1035304Y469900D02*
X1022096Y469900D01*
X1022096Y495300D02*
X1035304Y495300D01*
X1035304Y520700D02*
X1022096Y520700D01*
X1022096Y546100D02*
X1035304Y546100D01*
X1035304Y571500D02*
X1022096Y571500D01*
X1022096Y596900D02*
X1035304Y596900D01*
X1035304Y622300D02*
X1022096Y622300D01*
X1022096Y647700D02*
X1035304Y647700D01*
X1035304Y673100D02*
X1022096Y673100D01*
X1022096Y698500D02*
X1035304Y698500D01*
X1035304Y723900D02*
X1022096Y723900D01*
X882904Y723900D02*
X869696Y723900D01*
X869696Y698500D02*
X882904Y698500D01*
X882904Y673100D02*
X869696Y673100D01*
X869696Y647700D02*
X882904Y647700D01*
X882904Y622300D02*
X869696Y622300D01*
X869696Y596900D02*
X882904Y596900D01*
X882904Y571500D02*
X869696Y571500D01*
X869696Y546100D02*
X882904Y546100D01*
X882904Y520700D02*
X869696Y520700D01*
X869696Y495300D02*
X882904Y495300D01*
X882904Y469900D02*
X869696Y469900D01*
X869696Y444500D02*
X882904Y444500D01*
X882904Y419100D02*
X869696Y419100D01*
X869696Y393700D02*
X882904Y393700D01*
X882904Y368300D02*
X869696Y368300D01*
X869696Y342900D02*
X882904Y342900D01*
X882904Y317500D02*
X869696Y317500D01*
X869696Y292100D02*
X882904Y292100D01*
X882904Y266700D02*
X869696Y266700D01*
X869696Y241300D02*
X882904Y241300D01*
X1270000Y95504D02*
X1270000Y82296D01*
X1295400Y82296D02*
X1295400Y95504D01*
X1320800Y95504D02*
X1320800Y82296D01*
X1346200Y82296D02*
X1346200Y95504D01*
X1371600Y95504D02*
X1371600Y82296D01*
X1397000Y82296D02*
X1397000Y95504D01*
X1422400Y95504D02*
X1422400Y82296D01*
X1447800Y82296D02*
X1447800Y95504D01*
X1473200Y95504D02*
X1473200Y82296D01*
X1498600Y82296D02*
X1498600Y95504D01*
X1524000Y95504D02*
X1524000Y82296D01*
X1524000Y183896D02*
X1524000Y197104D01*
X1498600Y197104D02*
X1498600Y183896D01*
X1473200Y183896D02*
X1473200Y197104D01*
X1447800Y197104D02*
X1447800Y183896D01*
X1422400Y183896D02*
X1422400Y197104D01*
X1397000Y197104D02*
X1397000Y183896D01*
X1371600Y183896D02*
X1371600Y197104D01*
X1346200Y197104D02*
X1346200Y183896D01*
X1320800Y183896D02*
X1320800Y197104D01*
X1295400Y197104D02*
X1295400Y183896D01*
X1270000Y183896D02*
X1270000Y197104D01*
X1206500Y920496D02*
X1206500Y933704D01*
X1231900Y933704D02*
X1231900Y920496D01*
X1358900Y920496D02*
X1358900Y933704D01*
X1384300Y933704D02*
X1384300Y920496D01*
X1257300Y920496D02*
X1257300Y933704D01*
X1282700Y933704D02*
X1282700Y920496D01*
X1333500Y920496D02*
X1333500Y933704D01*
X1308100Y933704D02*
X1308100Y920496D01*
X1409700Y920496D02*
X1409700Y933704D01*
X1435100Y933704D02*
X1435100Y920496D01*
X1435100Y996696D02*
X1435100Y1009904D01*
X1409700Y1009904D02*
X1409700Y996696D01*
X1384300Y996696D02*
X1384300Y1009904D01*
X1358900Y1009904D02*
X1358900Y996696D01*
X1333500Y996696D02*
X1333500Y1009904D01*
X1308100Y1009904D02*
X1308100Y996696D01*
X1282700Y996696D02*
X1282700Y1009904D01*
X1257300Y1009904D02*
X1257300Y996696D01*
X1231900Y996696D02*
X1231900Y1009904D01*
X1206500Y1009904D02*
X1206500Y996696D01*
D16*
X914400Y762000D03*
X914400Y838200D03*
D17*
X977900Y838200D03*
X977900Y762000D03*
D14*
X1498600Y50800D03*
X1524000Y50800D03*
D16*
X1143000Y901700D03*
X1143000Y927100D03*
X1104900Y787400D03*
X1104900Y863600D03*
D15*
X1270000Y400304D02*
X1270000Y387096D01*
X1295400Y387096D02*
X1295400Y400304D01*
X1422400Y400304D02*
X1422400Y387096D01*
X1447800Y387096D02*
X1447800Y400304D01*
X1320800Y400304D02*
X1320800Y387096D01*
X1346200Y387096D02*
X1346200Y400304D01*
X1397000Y400304D02*
X1397000Y387096D01*
X1371600Y387096D02*
X1371600Y400304D01*
X1473200Y400304D02*
X1473200Y387096D01*
X1498600Y387096D02*
X1498600Y400304D01*
X1498600Y768096D02*
X1498600Y781304D01*
X1473200Y781304D02*
X1473200Y768096D01*
X1447800Y768096D02*
X1447800Y781304D01*
X1422400Y781304D02*
X1422400Y768096D01*
X1397000Y768096D02*
X1397000Y781304D01*
X1371600Y781304D02*
X1371600Y768096D01*
X1346200Y768096D02*
X1346200Y781304D01*
X1320800Y781304D02*
X1320800Y768096D01*
X1295400Y768096D02*
X1295400Y781304D01*
X1270000Y781304D02*
X1270000Y768096D01*
D18*
X1219200Y774700D03*
X1549400Y774700D03*
X1219200Y393700D03*
X1549400Y393700D03*
D19*
X1511300Y856488D02*
X1511300Y870712D01*
X1536700Y870712D02*
X1536700Y856488D01*
D17*
X1587500Y304800D03*
X1587500Y228600D03*
D20*
X1257300Y889000D03*
X1333500Y889000D03*
D21*
X1435100Y889000D03*
X1358900Y889000D03*
D16*
X1143000Y838200D03*
X1143000Y863600D03*
D17*
X1104900Y749300D03*
X1104900Y673100D03*
X1130300Y749300D03*
X1130300Y673100D03*
D15*
X1257300Y844296D02*
X1257300Y857504D01*
X1282700Y857504D02*
X1282700Y844296D01*
X1308100Y844296D02*
X1308100Y857504D01*
X1333500Y857504D02*
X1333500Y844296D01*
X1358900Y844296D02*
X1358900Y857504D01*
X1384300Y857504D02*
X1384300Y844296D01*
X1409700Y844296D02*
X1409700Y857504D01*
X1435100Y857504D02*
X1435100Y844296D01*
X1707896Y457200D02*
X1721104Y457200D01*
X1721104Y482600D02*
X1707896Y482600D01*
X1707896Y609600D02*
X1721104Y609600D01*
X1721104Y635000D02*
X1707896Y635000D01*
X1707896Y508000D02*
X1721104Y508000D01*
X1721104Y533400D02*
X1707896Y533400D01*
X1707896Y584200D02*
X1721104Y584200D01*
X1721104Y558800D02*
X1707896Y558800D01*
X1644904Y635000D02*
X1631696Y635000D01*
X1631696Y609600D02*
X1644904Y609600D01*
X1644904Y584200D02*
X1631696Y584200D01*
X1631696Y558800D02*
X1644904Y558800D01*
X1644904Y533400D02*
X1631696Y533400D01*
X1631696Y508000D02*
X1644904Y508000D01*
X1644904Y482600D02*
X1631696Y482600D01*
X1631696Y457200D02*
X1644904Y457200D01*
X1707896Y203200D02*
X1721104Y203200D01*
X1721104Y228600D02*
X1707896Y228600D01*
X1707896Y355600D02*
X1721104Y355600D01*
X1644904Y355600D02*
X1631696Y355600D01*
X1707896Y254000D02*
X1721104Y254000D01*
X1721104Y279400D02*
X1707896Y279400D01*
X1707896Y330200D02*
X1721104Y330200D01*
X1721104Y304800D02*
X1707896Y304800D01*
X1644904Y330200D02*
X1631696Y330200D01*
X1631696Y304800D02*
X1644904Y304800D01*
X1644904Y279400D02*
X1631696Y279400D01*
X1631696Y254000D02*
X1644904Y254000D01*
X1644904Y228600D02*
X1631696Y228600D01*
X1631696Y203200D02*
X1644904Y203200D01*
X1707896Y736600D02*
X1721104Y736600D01*
X1721104Y762000D02*
X1707896Y762000D01*
X1707896Y889000D02*
X1721104Y889000D01*
X1644904Y889000D02*
X1631696Y889000D01*
X1707896Y787400D02*
X1721104Y787400D01*
X1721104Y812800D02*
X1707896Y812800D01*
X1707896Y863600D02*
X1721104Y863600D01*
X1721104Y838200D02*
X1707896Y838200D01*
X1644904Y863600D02*
X1631696Y863600D01*
X1631696Y838200D02*
X1644904Y838200D01*
X1644904Y812800D02*
X1631696Y812800D01*
X1631696Y787400D02*
X1644904Y787400D01*
X1644904Y762000D02*
X1631696Y762000D01*
X1631696Y736600D02*
X1644904Y736600D01*
D16*
X1028700Y762000D03*
X1028700Y838200D03*
D15*
X863600Y82804D02*
X863600Y69596D01*
X889000Y69596D02*
X889000Y82804D01*
X914400Y82804D02*
X914400Y69596D01*
X939800Y69596D02*
X939800Y82804D01*
X939800Y145796D02*
X939800Y159004D01*
X914400Y159004D02*
X914400Y145796D01*
X889000Y145796D02*
X889000Y159004D01*
X863600Y159004D02*
X863600Y145796D01*
D17*
X1041400Y152400D03*
X1041400Y76200D03*
D16*
X990600Y76200D03*
X990600Y152400D03*
D17*
X1003300Y838200D03*
X1003300Y762000D03*
D15*
X1016000Y159004D02*
X1016000Y145796D01*
X1016000Y82804D02*
X1016000Y69596D01*
D16*
X1066800Y76200D03*
X1066800Y152400D03*
D15*
X1092200Y82804D02*
X1092200Y69596D01*
X1092200Y145796D02*
X1092200Y159004D01*
D14*
X1016000Y38100D03*
X1092200Y38100D03*
X1066800Y203200D03*
X1092200Y203200D03*
X1066800Y241300D03*
X1092200Y241300D03*
D16*
X1066800Y393700D03*
X1066800Y469900D03*
D15*
X965200Y882396D02*
X965200Y895604D01*
X914400Y895604D02*
X914400Y882396D01*
X939800Y882396D02*
X939800Y895604D01*
D16*
X1016000Y901700D03*
X996950Y889000D03*
X1016000Y876300D03*
D14*
X1066800Y330200D03*
X1092200Y330200D03*
X1066800Y279400D03*
X1092200Y279400D03*
D22*
X1231900Y279400D03*
D23*
X1536700Y279400D03*
D22*
X1066800Y1092200D03*
D23*
X1371600Y1092200D03*
D17*
X1638300Y698500D03*
X1638300Y673100D03*
X1638300Y419100D03*
X1638300Y393700D03*
D12*
X1701800Y673100D03*
D13*
X1701800Y698500D03*
D12*
X1701800Y393700D03*
D13*
X1701800Y419100D03*
D24*
X1600200Y939800D03*
D13*
X1625600Y939800D03*
D25*
X1600200Y165100D03*
D13*
X1574800Y165100D03*
D25*
X1600200Y88900D03*
D13*
X1574800Y88900D03*
D14*
X901700Y38100D03*
X927100Y38100D03*
D12*
X1181100Y165100D03*
D13*
X1181100Y190500D03*
D14*
X1282700Y63500D03*
X1308100Y63500D03*
D17*
X1219200Y114300D03*
X1219200Y88900D03*
D25*
X1130300Y571500D03*
D13*
X1104900Y571500D03*
D14*
X1104900Y508000D03*
X1130300Y508000D03*
X1104900Y635000D03*
X1130300Y635000D03*
D26*
X1092200Y927100D03*
D13*
X1092200Y901700D03*
D12*
X1143000Y977900D03*
D13*
X1143000Y1003300D03*
D17*
X1092200Y1003300D03*
X1092200Y977900D03*
X1028700Y977900D03*
X1028700Y952500D03*
D26*
X977900Y977900D03*
D13*
X977900Y952500D03*
D26*
X1193800Y876300D03*
D13*
X1193800Y850900D03*
D17*
X1638300Y152400D03*
X1638300Y127000D03*
D14*
X1689100Y152400D03*
X1714500Y152400D03*
D27*
X1625600Y990600D03*
X1600200Y990600D03*
X1130300Y1231900D03*
X1104900Y1231900D03*
X1054100Y1231900D03*
X1028700Y1231900D03*
D16*
X1028700Y1079500D03*
X1028700Y1155700D03*
X990600Y1079500D03*
X990600Y1155700D03*
D10*
X1460500Y1100582D02*
X1460500Y1083818D01*
X1485900Y1083818D02*
X1485900Y1100582D01*
X1511300Y1100582D02*
X1511300Y1083818D01*
D11*
X1485900Y1242060D03*
D12*
X1701800Y1028700D03*
D13*
X1701800Y1054100D03*
D27*
X1460500Y1054100D03*
X1409700Y1054100D03*
D14*
X1511300Y1054100D03*
X1562100Y1054100D03*
D15*
X832104Y558800D02*
X818896Y558800D01*
X818896Y584200D02*
X832104Y584200D01*
X832104Y711200D02*
X818896Y711200D01*
X755904Y711200D02*
X742696Y711200D01*
X818896Y609600D02*
X832104Y609600D01*
X832104Y635000D02*
X818896Y635000D01*
X818896Y685800D02*
X832104Y685800D01*
X832104Y660400D02*
X818896Y660400D01*
X755904Y685800D02*
X742696Y685800D01*
X742696Y660400D02*
X755904Y660400D01*
X755904Y635000D02*
X742696Y635000D01*
X742696Y609600D02*
X755904Y609600D01*
X755904Y584200D02*
X742696Y584200D01*
X742696Y558800D02*
X755904Y558800D01*
D28*
X762000Y850900D03*
X762000Y774700D03*
X838200Y774700D03*
X838200Y850900D03*
D29*
X795020Y660400D03*
X779780Y660400D03*
D30*
X787400Y660400D03*
D29*
X795020Y609600D03*
X779780Y609600D03*
D30*
X787400Y609600D03*
D29*
X795020Y635000D03*
X779780Y635000D03*
D30*
X787400Y635000D03*
D29*
X795020Y584200D03*
X779780Y584200D03*
D30*
X787400Y584200D03*
D16*
X901700Y952500D03*
X901700Y977900D03*
D14*
X749300Y520700D03*
X774700Y520700D03*
D15*
X1206500Y1225296D02*
X1206500Y1238504D01*
X1231900Y1238504D02*
X1231900Y1225296D01*
X1308100Y1225296D02*
X1308100Y1238504D01*
X1333500Y1238504D02*
X1333500Y1225296D01*
X1358900Y1225296D02*
X1358900Y1238504D01*
X1257300Y1238504D02*
X1257300Y1225296D01*
X1384300Y1225296D02*
X1384300Y1238504D01*
D31*
X1638300Y1150100D03*
D32*
X1638300Y1211100D03*
X1590300Y1181100D03*
D12*
X1625600Y1066800D03*
D13*
X1625600Y1092200D03*
D18*
X1155700Y279400D03*
D27*
X977900Y1231900D03*
X952500Y1231900D03*
X901700Y1231900D03*
X876300Y1231900D03*
D17*
X952500Y1155700D03*
X952500Y1079500D03*
X914400Y1155700D03*
X914400Y1079500D03*
D33*
X1181100Y1193800D03*
X1181100Y1219200D03*
X1181100Y1244600D03*
D10*
X1706118Y38100D02*
X1722882Y38100D01*
X1595882Y38100D02*
X1579118Y38100D01*
D15*
X832104Y241300D02*
X818896Y241300D01*
X818896Y266700D02*
X832104Y266700D01*
X832104Y292100D02*
X818896Y292100D01*
X818896Y317500D02*
X832104Y317500D01*
X832104Y342900D02*
X818896Y342900D01*
X818896Y368300D02*
X832104Y368300D01*
X832104Y393700D02*
X818896Y393700D01*
X818896Y419100D02*
X832104Y419100D01*
X832104Y444500D02*
X818896Y444500D01*
X818896Y469900D02*
X832104Y469900D01*
X755904Y469900D02*
X742696Y469900D01*
X742696Y444500D02*
X755904Y444500D01*
X755904Y419100D02*
X742696Y419100D01*
X742696Y393700D02*
X755904Y393700D01*
X755904Y368300D02*
X742696Y368300D01*
X742696Y342900D02*
X755904Y342900D01*
X755904Y317500D02*
X742696Y317500D01*
X742696Y292100D02*
X755904Y292100D01*
X755904Y266700D02*
X742696Y266700D01*
X742696Y241300D02*
X755904Y241300D01*
D34*
X1219200Y-17780D02*
X1219200Y-33020D01*
X1193800Y-33020D02*
X1193800Y-17780D01*
X1168400Y-17780D02*
X1168400Y-33020D01*
X1143000Y-33020D02*
X1143000Y-17780D01*
X1117600Y-17780D02*
X1117600Y-33020D01*
X1092200Y-33020D02*
X1092200Y-17780D01*
X1066800Y-17780D02*
X1066800Y-33020D01*
X1041400Y-33020D02*
X1041400Y-17780D01*
X1016000Y-17780D02*
X1016000Y-33020D01*
X990600Y-33020D02*
X990600Y-17780D01*
X965200Y-17780D02*
X965200Y-33020D01*
X939800Y-33020D02*
X939800Y-17780D01*
X914400Y-17780D02*
X914400Y-33020D01*
X889000Y-33020D02*
X889000Y-17780D01*
X863600Y-17780D02*
X863600Y-33020D01*
X838200Y-33020D02*
X838200Y-17780D01*
X812800Y-17780D02*
X812800Y-33020D01*
X762000Y-33020D02*
X762000Y-17780D01*
X736600Y-17780D02*
X736600Y-33020D01*
X787400Y-33020D02*
X787400Y-17780D01*
X1727200Y-17780D02*
X1727200Y-33020D01*
X1701800Y-33020D02*
X1701800Y-17780D01*
X1676400Y-17780D02*
X1676400Y-33020D01*
X1651000Y-33020D02*
X1651000Y-17780D01*
X1625600Y-17780D02*
X1625600Y-33020D01*
X1600200Y-33020D02*
X1600200Y-17780D01*
X1574800Y-17780D02*
X1574800Y-33020D01*
X1549400Y-33020D02*
X1549400Y-17780D01*
X1524000Y-17780D02*
X1524000Y-33020D01*
X1498600Y-33020D02*
X1498600Y-17780D01*
X1473200Y-17780D02*
X1473200Y-33020D01*
X1447800Y-33020D02*
X1447800Y-17780D01*
X1422400Y-17780D02*
X1422400Y-33020D01*
X1397000Y-33020D02*
X1397000Y-17780D01*
X1371600Y-17780D02*
X1371600Y-33020D01*
X1346200Y-33020D02*
X1346200Y-17780D01*
X1320800Y-17780D02*
X1320800Y-33020D01*
X1295400Y-33020D02*
X1295400Y-17780D01*
X1270000Y-17780D02*
X1270000Y-33020D01*
X1244600Y-33020D02*
X1244600Y-17780D01*
D14*
X749300Y203200D03*
X774700Y203200D03*
D35*
X825100Y959160D02*
X825100Y971240D01*
X775100Y971240D02*
X775100Y959160D01*
D36*
X780161Y990219D03*
X780161Y940181D03*
X820039Y940181D03*
X820039Y990219D03*
D37*
X1016000Y1054100D03*
X914400Y1054100D03*
X990600Y1016000D03*
X889000Y1016000D03*
D38*
X1041400Y1003300D03*
M02*
