G04 EAGLE Gerber RS-274X export*
G75*
%MOMM*%
%FSLAX34Y34*%
%LPD*%
%INBoard Outline*%
%IPPOS*%
%AMOC8*
5,1,8,0,0,1.08239X$1,22.5*%
G01*
%ADD10C,0.000000*%
%ADD11C,0.254000*%


D10*
X723900Y1282700D02*
X723900Y-50800D01*
X1739900Y-50800D01*
X1739900Y1282700D01*
X723900Y1282700D01*
X770890Y1242060D02*
X770895Y1242465D01*
X770910Y1242870D01*
X770935Y1243275D01*
X770970Y1243678D01*
X771014Y1244081D01*
X771069Y1244483D01*
X771133Y1244883D01*
X771207Y1245281D01*
X771291Y1245677D01*
X771385Y1246072D01*
X771488Y1246463D01*
X771601Y1246853D01*
X771723Y1247239D01*
X771855Y1247622D01*
X771996Y1248002D01*
X772147Y1248378D01*
X772306Y1248751D01*
X772475Y1249119D01*
X772653Y1249483D01*
X772839Y1249843D01*
X773035Y1250198D01*
X773239Y1250548D01*
X773451Y1250893D01*
X773672Y1251232D01*
X773902Y1251567D01*
X774139Y1251895D01*
X774384Y1252217D01*
X774638Y1252534D01*
X774898Y1252844D01*
X775167Y1253147D01*
X775443Y1253444D01*
X775726Y1253734D01*
X776016Y1254017D01*
X776313Y1254293D01*
X776616Y1254562D01*
X776926Y1254822D01*
X777243Y1255076D01*
X777565Y1255321D01*
X777893Y1255558D01*
X778228Y1255788D01*
X778567Y1256009D01*
X778912Y1256221D01*
X779262Y1256425D01*
X779617Y1256621D01*
X779977Y1256807D01*
X780341Y1256985D01*
X780709Y1257154D01*
X781082Y1257313D01*
X781458Y1257464D01*
X781838Y1257605D01*
X782221Y1257737D01*
X782607Y1257859D01*
X782997Y1257972D01*
X783388Y1258075D01*
X783783Y1258169D01*
X784179Y1258253D01*
X784577Y1258327D01*
X784977Y1258391D01*
X785379Y1258446D01*
X785782Y1258490D01*
X786185Y1258525D01*
X786590Y1258550D01*
X786995Y1258565D01*
X787400Y1258570D01*
X787805Y1258565D01*
X788210Y1258550D01*
X788615Y1258525D01*
X789018Y1258490D01*
X789421Y1258446D01*
X789823Y1258391D01*
X790223Y1258327D01*
X790621Y1258253D01*
X791017Y1258169D01*
X791412Y1258075D01*
X791803Y1257972D01*
X792193Y1257859D01*
X792579Y1257737D01*
X792962Y1257605D01*
X793342Y1257464D01*
X793718Y1257313D01*
X794091Y1257154D01*
X794459Y1256985D01*
X794823Y1256807D01*
X795183Y1256621D01*
X795538Y1256425D01*
X795888Y1256221D01*
X796233Y1256009D01*
X796572Y1255788D01*
X796907Y1255558D01*
X797235Y1255321D01*
X797557Y1255076D01*
X797874Y1254822D01*
X798184Y1254562D01*
X798487Y1254293D01*
X798784Y1254017D01*
X799074Y1253734D01*
X799357Y1253444D01*
X799633Y1253147D01*
X799902Y1252844D01*
X800162Y1252534D01*
X800416Y1252217D01*
X800661Y1251895D01*
X800898Y1251567D01*
X801128Y1251232D01*
X801349Y1250893D01*
X801561Y1250548D01*
X801765Y1250198D01*
X801961Y1249843D01*
X802147Y1249483D01*
X802325Y1249119D01*
X802494Y1248751D01*
X802653Y1248378D01*
X802804Y1248002D01*
X802945Y1247622D01*
X803077Y1247239D01*
X803199Y1246853D01*
X803312Y1246463D01*
X803415Y1246072D01*
X803509Y1245677D01*
X803593Y1245281D01*
X803667Y1244883D01*
X803731Y1244483D01*
X803786Y1244081D01*
X803830Y1243678D01*
X803865Y1243275D01*
X803890Y1242870D01*
X803905Y1242465D01*
X803910Y1242060D01*
X803905Y1241655D01*
X803890Y1241250D01*
X803865Y1240845D01*
X803830Y1240442D01*
X803786Y1240039D01*
X803731Y1239637D01*
X803667Y1239237D01*
X803593Y1238839D01*
X803509Y1238443D01*
X803415Y1238048D01*
X803312Y1237657D01*
X803199Y1237267D01*
X803077Y1236881D01*
X802945Y1236498D01*
X802804Y1236118D01*
X802653Y1235742D01*
X802494Y1235369D01*
X802325Y1235001D01*
X802147Y1234637D01*
X801961Y1234277D01*
X801765Y1233922D01*
X801561Y1233572D01*
X801349Y1233227D01*
X801128Y1232888D01*
X800898Y1232553D01*
X800661Y1232225D01*
X800416Y1231903D01*
X800162Y1231586D01*
X799902Y1231276D01*
X799633Y1230973D01*
X799357Y1230676D01*
X799074Y1230386D01*
X798784Y1230103D01*
X798487Y1229827D01*
X798184Y1229558D01*
X797874Y1229298D01*
X797557Y1229044D01*
X797235Y1228799D01*
X796907Y1228562D01*
X796572Y1228332D01*
X796233Y1228111D01*
X795888Y1227899D01*
X795538Y1227695D01*
X795183Y1227499D01*
X794823Y1227313D01*
X794459Y1227135D01*
X794091Y1226966D01*
X793718Y1226807D01*
X793342Y1226656D01*
X792962Y1226515D01*
X792579Y1226383D01*
X792193Y1226261D01*
X791803Y1226148D01*
X791412Y1226045D01*
X791017Y1225951D01*
X790621Y1225867D01*
X790223Y1225793D01*
X789823Y1225729D01*
X789421Y1225674D01*
X789018Y1225630D01*
X788615Y1225595D01*
X788210Y1225570D01*
X787805Y1225555D01*
X787400Y1225550D01*
X786995Y1225555D01*
X786590Y1225570D01*
X786185Y1225595D01*
X785782Y1225630D01*
X785379Y1225674D01*
X784977Y1225729D01*
X784577Y1225793D01*
X784179Y1225867D01*
X783783Y1225951D01*
X783388Y1226045D01*
X782997Y1226148D01*
X782607Y1226261D01*
X782221Y1226383D01*
X781838Y1226515D01*
X781458Y1226656D01*
X781082Y1226807D01*
X780709Y1226966D01*
X780341Y1227135D01*
X779977Y1227313D01*
X779617Y1227499D01*
X779262Y1227695D01*
X778912Y1227899D01*
X778567Y1228111D01*
X778228Y1228332D01*
X777893Y1228562D01*
X777565Y1228799D01*
X777243Y1229044D01*
X776926Y1229298D01*
X776616Y1229558D01*
X776313Y1229827D01*
X776016Y1230103D01*
X775726Y1230386D01*
X775443Y1230676D01*
X775167Y1230973D01*
X774898Y1231276D01*
X774638Y1231586D01*
X774384Y1231903D01*
X774139Y1232225D01*
X773902Y1232553D01*
X773672Y1232888D01*
X773451Y1233227D01*
X773239Y1233572D01*
X773035Y1233922D01*
X772839Y1234277D01*
X772653Y1234637D01*
X772475Y1235001D01*
X772306Y1235369D01*
X772147Y1235742D01*
X771996Y1236118D01*
X771855Y1236498D01*
X771723Y1236881D01*
X771601Y1237267D01*
X771488Y1237657D01*
X771385Y1238048D01*
X771291Y1238443D01*
X771207Y1238839D01*
X771133Y1239237D01*
X771069Y1239637D01*
X771014Y1240039D01*
X770970Y1240442D01*
X770935Y1240845D01*
X770910Y1241250D01*
X770895Y1241655D01*
X770890Y1242060D01*
X1206500Y774700D02*
X1206504Y775012D01*
X1206515Y775323D01*
X1206534Y775634D01*
X1206561Y775945D01*
X1206596Y776255D01*
X1206637Y776563D01*
X1206687Y776871D01*
X1206744Y777178D01*
X1206809Y777483D01*
X1206881Y777786D01*
X1206960Y778087D01*
X1207047Y778387D01*
X1207141Y778684D01*
X1207242Y778979D01*
X1207351Y779271D01*
X1207467Y779560D01*
X1207590Y779847D01*
X1207719Y780130D01*
X1207856Y780410D01*
X1208000Y780687D01*
X1208150Y780960D01*
X1208307Y781229D01*
X1208470Y781494D01*
X1208640Y781756D01*
X1208817Y782013D01*
X1208999Y782265D01*
X1209188Y782513D01*
X1209383Y782757D01*
X1209583Y782995D01*
X1209790Y783229D01*
X1210002Y783457D01*
X1210220Y783680D01*
X1210443Y783898D01*
X1210671Y784110D01*
X1210905Y784317D01*
X1211143Y784517D01*
X1211387Y784712D01*
X1211635Y784901D01*
X1211887Y785083D01*
X1212144Y785260D01*
X1212406Y785430D01*
X1212671Y785593D01*
X1212940Y785750D01*
X1213213Y785900D01*
X1213490Y786044D01*
X1213770Y786181D01*
X1214053Y786310D01*
X1214340Y786433D01*
X1214629Y786549D01*
X1214921Y786658D01*
X1215216Y786759D01*
X1215513Y786853D01*
X1215813Y786940D01*
X1216114Y787019D01*
X1216417Y787091D01*
X1216722Y787156D01*
X1217029Y787213D01*
X1217337Y787263D01*
X1217645Y787304D01*
X1217955Y787339D01*
X1218266Y787366D01*
X1218577Y787385D01*
X1218888Y787396D01*
X1219200Y787400D01*
X1219512Y787396D01*
X1219823Y787385D01*
X1220134Y787366D01*
X1220445Y787339D01*
X1220755Y787304D01*
X1221063Y787263D01*
X1221371Y787213D01*
X1221678Y787156D01*
X1221983Y787091D01*
X1222286Y787019D01*
X1222587Y786940D01*
X1222887Y786853D01*
X1223184Y786759D01*
X1223479Y786658D01*
X1223771Y786549D01*
X1224060Y786433D01*
X1224347Y786310D01*
X1224630Y786181D01*
X1224910Y786044D01*
X1225187Y785900D01*
X1225460Y785750D01*
X1225729Y785593D01*
X1225994Y785430D01*
X1226256Y785260D01*
X1226513Y785083D01*
X1226765Y784901D01*
X1227013Y784712D01*
X1227257Y784517D01*
X1227495Y784317D01*
X1227729Y784110D01*
X1227957Y783898D01*
X1228180Y783680D01*
X1228398Y783457D01*
X1228610Y783229D01*
X1228817Y782995D01*
X1229017Y782757D01*
X1229212Y782513D01*
X1229401Y782265D01*
X1229583Y782013D01*
X1229760Y781756D01*
X1229930Y781494D01*
X1230093Y781229D01*
X1230250Y780960D01*
X1230400Y780687D01*
X1230544Y780410D01*
X1230681Y780130D01*
X1230810Y779847D01*
X1230933Y779560D01*
X1231049Y779271D01*
X1231158Y778979D01*
X1231259Y778684D01*
X1231353Y778387D01*
X1231440Y778087D01*
X1231519Y777786D01*
X1231591Y777483D01*
X1231656Y777178D01*
X1231713Y776871D01*
X1231763Y776563D01*
X1231804Y776255D01*
X1231839Y775945D01*
X1231866Y775634D01*
X1231885Y775323D01*
X1231896Y775012D01*
X1231900Y774700D01*
X1231896Y774388D01*
X1231885Y774077D01*
X1231866Y773766D01*
X1231839Y773455D01*
X1231804Y773145D01*
X1231763Y772837D01*
X1231713Y772529D01*
X1231656Y772222D01*
X1231591Y771917D01*
X1231519Y771614D01*
X1231440Y771313D01*
X1231353Y771013D01*
X1231259Y770716D01*
X1231158Y770421D01*
X1231049Y770129D01*
X1230933Y769840D01*
X1230810Y769553D01*
X1230681Y769270D01*
X1230544Y768990D01*
X1230400Y768713D01*
X1230250Y768440D01*
X1230093Y768171D01*
X1229930Y767906D01*
X1229760Y767644D01*
X1229583Y767387D01*
X1229401Y767135D01*
X1229212Y766887D01*
X1229017Y766643D01*
X1228817Y766405D01*
X1228610Y766171D01*
X1228398Y765943D01*
X1228180Y765720D01*
X1227957Y765502D01*
X1227729Y765290D01*
X1227495Y765083D01*
X1227257Y764883D01*
X1227013Y764688D01*
X1226765Y764499D01*
X1226513Y764317D01*
X1226256Y764140D01*
X1225994Y763970D01*
X1225729Y763807D01*
X1225460Y763650D01*
X1225187Y763500D01*
X1224910Y763356D01*
X1224630Y763219D01*
X1224347Y763090D01*
X1224060Y762967D01*
X1223771Y762851D01*
X1223479Y762742D01*
X1223184Y762641D01*
X1222887Y762547D01*
X1222587Y762460D01*
X1222286Y762381D01*
X1221983Y762309D01*
X1221678Y762244D01*
X1221371Y762187D01*
X1221063Y762137D01*
X1220755Y762096D01*
X1220445Y762061D01*
X1220134Y762034D01*
X1219823Y762015D01*
X1219512Y762004D01*
X1219200Y762000D01*
X1218888Y762004D01*
X1218577Y762015D01*
X1218266Y762034D01*
X1217955Y762061D01*
X1217645Y762096D01*
X1217337Y762137D01*
X1217029Y762187D01*
X1216722Y762244D01*
X1216417Y762309D01*
X1216114Y762381D01*
X1215813Y762460D01*
X1215513Y762547D01*
X1215216Y762641D01*
X1214921Y762742D01*
X1214629Y762851D01*
X1214340Y762967D01*
X1214053Y763090D01*
X1213770Y763219D01*
X1213490Y763356D01*
X1213213Y763500D01*
X1212940Y763650D01*
X1212671Y763807D01*
X1212406Y763970D01*
X1212144Y764140D01*
X1211887Y764317D01*
X1211635Y764499D01*
X1211387Y764688D01*
X1211143Y764883D01*
X1210905Y765083D01*
X1210671Y765290D01*
X1210443Y765502D01*
X1210220Y765720D01*
X1210002Y765943D01*
X1209790Y766171D01*
X1209583Y766405D01*
X1209383Y766643D01*
X1209188Y766887D01*
X1208999Y767135D01*
X1208817Y767387D01*
X1208640Y767644D01*
X1208470Y767906D01*
X1208307Y768171D01*
X1208150Y768440D01*
X1208000Y768713D01*
X1207856Y768990D01*
X1207719Y769270D01*
X1207590Y769553D01*
X1207467Y769840D01*
X1207351Y770129D01*
X1207242Y770421D01*
X1207141Y770716D01*
X1207047Y771013D01*
X1206960Y771313D01*
X1206881Y771614D01*
X1206809Y771917D01*
X1206744Y772222D01*
X1206687Y772529D01*
X1206637Y772837D01*
X1206596Y773145D01*
X1206561Y773455D01*
X1206534Y773766D01*
X1206515Y774077D01*
X1206504Y774388D01*
X1206500Y774700D01*
X1536700Y774700D02*
X1536704Y775012D01*
X1536715Y775323D01*
X1536734Y775634D01*
X1536761Y775945D01*
X1536796Y776255D01*
X1536837Y776563D01*
X1536887Y776871D01*
X1536944Y777178D01*
X1537009Y777483D01*
X1537081Y777786D01*
X1537160Y778087D01*
X1537247Y778387D01*
X1537341Y778684D01*
X1537442Y778979D01*
X1537551Y779271D01*
X1537667Y779560D01*
X1537790Y779847D01*
X1537919Y780130D01*
X1538056Y780410D01*
X1538200Y780687D01*
X1538350Y780960D01*
X1538507Y781229D01*
X1538670Y781494D01*
X1538840Y781756D01*
X1539017Y782013D01*
X1539199Y782265D01*
X1539388Y782513D01*
X1539583Y782757D01*
X1539783Y782995D01*
X1539990Y783229D01*
X1540202Y783457D01*
X1540420Y783680D01*
X1540643Y783898D01*
X1540871Y784110D01*
X1541105Y784317D01*
X1541343Y784517D01*
X1541587Y784712D01*
X1541835Y784901D01*
X1542087Y785083D01*
X1542344Y785260D01*
X1542606Y785430D01*
X1542871Y785593D01*
X1543140Y785750D01*
X1543413Y785900D01*
X1543690Y786044D01*
X1543970Y786181D01*
X1544253Y786310D01*
X1544540Y786433D01*
X1544829Y786549D01*
X1545121Y786658D01*
X1545416Y786759D01*
X1545713Y786853D01*
X1546013Y786940D01*
X1546314Y787019D01*
X1546617Y787091D01*
X1546922Y787156D01*
X1547229Y787213D01*
X1547537Y787263D01*
X1547845Y787304D01*
X1548155Y787339D01*
X1548466Y787366D01*
X1548777Y787385D01*
X1549088Y787396D01*
X1549400Y787400D01*
X1549712Y787396D01*
X1550023Y787385D01*
X1550334Y787366D01*
X1550645Y787339D01*
X1550955Y787304D01*
X1551263Y787263D01*
X1551571Y787213D01*
X1551878Y787156D01*
X1552183Y787091D01*
X1552486Y787019D01*
X1552787Y786940D01*
X1553087Y786853D01*
X1553384Y786759D01*
X1553679Y786658D01*
X1553971Y786549D01*
X1554260Y786433D01*
X1554547Y786310D01*
X1554830Y786181D01*
X1555110Y786044D01*
X1555387Y785900D01*
X1555660Y785750D01*
X1555929Y785593D01*
X1556194Y785430D01*
X1556456Y785260D01*
X1556713Y785083D01*
X1556965Y784901D01*
X1557213Y784712D01*
X1557457Y784517D01*
X1557695Y784317D01*
X1557929Y784110D01*
X1558157Y783898D01*
X1558380Y783680D01*
X1558598Y783457D01*
X1558810Y783229D01*
X1559017Y782995D01*
X1559217Y782757D01*
X1559412Y782513D01*
X1559601Y782265D01*
X1559783Y782013D01*
X1559960Y781756D01*
X1560130Y781494D01*
X1560293Y781229D01*
X1560450Y780960D01*
X1560600Y780687D01*
X1560744Y780410D01*
X1560881Y780130D01*
X1561010Y779847D01*
X1561133Y779560D01*
X1561249Y779271D01*
X1561358Y778979D01*
X1561459Y778684D01*
X1561553Y778387D01*
X1561640Y778087D01*
X1561719Y777786D01*
X1561791Y777483D01*
X1561856Y777178D01*
X1561913Y776871D01*
X1561963Y776563D01*
X1562004Y776255D01*
X1562039Y775945D01*
X1562066Y775634D01*
X1562085Y775323D01*
X1562096Y775012D01*
X1562100Y774700D01*
X1562096Y774388D01*
X1562085Y774077D01*
X1562066Y773766D01*
X1562039Y773455D01*
X1562004Y773145D01*
X1561963Y772837D01*
X1561913Y772529D01*
X1561856Y772222D01*
X1561791Y771917D01*
X1561719Y771614D01*
X1561640Y771313D01*
X1561553Y771013D01*
X1561459Y770716D01*
X1561358Y770421D01*
X1561249Y770129D01*
X1561133Y769840D01*
X1561010Y769553D01*
X1560881Y769270D01*
X1560744Y768990D01*
X1560600Y768713D01*
X1560450Y768440D01*
X1560293Y768171D01*
X1560130Y767906D01*
X1559960Y767644D01*
X1559783Y767387D01*
X1559601Y767135D01*
X1559412Y766887D01*
X1559217Y766643D01*
X1559017Y766405D01*
X1558810Y766171D01*
X1558598Y765943D01*
X1558380Y765720D01*
X1558157Y765502D01*
X1557929Y765290D01*
X1557695Y765083D01*
X1557457Y764883D01*
X1557213Y764688D01*
X1556965Y764499D01*
X1556713Y764317D01*
X1556456Y764140D01*
X1556194Y763970D01*
X1555929Y763807D01*
X1555660Y763650D01*
X1555387Y763500D01*
X1555110Y763356D01*
X1554830Y763219D01*
X1554547Y763090D01*
X1554260Y762967D01*
X1553971Y762851D01*
X1553679Y762742D01*
X1553384Y762641D01*
X1553087Y762547D01*
X1552787Y762460D01*
X1552486Y762381D01*
X1552183Y762309D01*
X1551878Y762244D01*
X1551571Y762187D01*
X1551263Y762137D01*
X1550955Y762096D01*
X1550645Y762061D01*
X1550334Y762034D01*
X1550023Y762015D01*
X1549712Y762004D01*
X1549400Y762000D01*
X1549088Y762004D01*
X1548777Y762015D01*
X1548466Y762034D01*
X1548155Y762061D01*
X1547845Y762096D01*
X1547537Y762137D01*
X1547229Y762187D01*
X1546922Y762244D01*
X1546617Y762309D01*
X1546314Y762381D01*
X1546013Y762460D01*
X1545713Y762547D01*
X1545416Y762641D01*
X1545121Y762742D01*
X1544829Y762851D01*
X1544540Y762967D01*
X1544253Y763090D01*
X1543970Y763219D01*
X1543690Y763356D01*
X1543413Y763500D01*
X1543140Y763650D01*
X1542871Y763807D01*
X1542606Y763970D01*
X1542344Y764140D01*
X1542087Y764317D01*
X1541835Y764499D01*
X1541587Y764688D01*
X1541343Y764883D01*
X1541105Y765083D01*
X1540871Y765290D01*
X1540643Y765502D01*
X1540420Y765720D01*
X1540202Y765943D01*
X1539990Y766171D01*
X1539783Y766405D01*
X1539583Y766643D01*
X1539388Y766887D01*
X1539199Y767135D01*
X1539017Y767387D01*
X1538840Y767644D01*
X1538670Y767906D01*
X1538507Y768171D01*
X1538350Y768440D01*
X1538200Y768713D01*
X1538056Y768990D01*
X1537919Y769270D01*
X1537790Y769553D01*
X1537667Y769840D01*
X1537551Y770129D01*
X1537442Y770421D01*
X1537341Y770716D01*
X1537247Y771013D01*
X1537160Y771313D01*
X1537081Y771614D01*
X1537009Y771917D01*
X1536944Y772222D01*
X1536887Y772529D01*
X1536837Y772837D01*
X1536796Y773145D01*
X1536761Y773455D01*
X1536734Y773766D01*
X1536715Y774077D01*
X1536704Y774388D01*
X1536700Y774700D01*
X1206500Y393700D02*
X1206504Y394012D01*
X1206515Y394323D01*
X1206534Y394634D01*
X1206561Y394945D01*
X1206596Y395255D01*
X1206637Y395563D01*
X1206687Y395871D01*
X1206744Y396178D01*
X1206809Y396483D01*
X1206881Y396786D01*
X1206960Y397087D01*
X1207047Y397387D01*
X1207141Y397684D01*
X1207242Y397979D01*
X1207351Y398271D01*
X1207467Y398560D01*
X1207590Y398847D01*
X1207719Y399130D01*
X1207856Y399410D01*
X1208000Y399687D01*
X1208150Y399960D01*
X1208307Y400229D01*
X1208470Y400494D01*
X1208640Y400756D01*
X1208817Y401013D01*
X1208999Y401265D01*
X1209188Y401513D01*
X1209383Y401757D01*
X1209583Y401995D01*
X1209790Y402229D01*
X1210002Y402457D01*
X1210220Y402680D01*
X1210443Y402898D01*
X1210671Y403110D01*
X1210905Y403317D01*
X1211143Y403517D01*
X1211387Y403712D01*
X1211635Y403901D01*
X1211887Y404083D01*
X1212144Y404260D01*
X1212406Y404430D01*
X1212671Y404593D01*
X1212940Y404750D01*
X1213213Y404900D01*
X1213490Y405044D01*
X1213770Y405181D01*
X1214053Y405310D01*
X1214340Y405433D01*
X1214629Y405549D01*
X1214921Y405658D01*
X1215216Y405759D01*
X1215513Y405853D01*
X1215813Y405940D01*
X1216114Y406019D01*
X1216417Y406091D01*
X1216722Y406156D01*
X1217029Y406213D01*
X1217337Y406263D01*
X1217645Y406304D01*
X1217955Y406339D01*
X1218266Y406366D01*
X1218577Y406385D01*
X1218888Y406396D01*
X1219200Y406400D01*
X1219512Y406396D01*
X1219823Y406385D01*
X1220134Y406366D01*
X1220445Y406339D01*
X1220755Y406304D01*
X1221063Y406263D01*
X1221371Y406213D01*
X1221678Y406156D01*
X1221983Y406091D01*
X1222286Y406019D01*
X1222587Y405940D01*
X1222887Y405853D01*
X1223184Y405759D01*
X1223479Y405658D01*
X1223771Y405549D01*
X1224060Y405433D01*
X1224347Y405310D01*
X1224630Y405181D01*
X1224910Y405044D01*
X1225187Y404900D01*
X1225460Y404750D01*
X1225729Y404593D01*
X1225994Y404430D01*
X1226256Y404260D01*
X1226513Y404083D01*
X1226765Y403901D01*
X1227013Y403712D01*
X1227257Y403517D01*
X1227495Y403317D01*
X1227729Y403110D01*
X1227957Y402898D01*
X1228180Y402680D01*
X1228398Y402457D01*
X1228610Y402229D01*
X1228817Y401995D01*
X1229017Y401757D01*
X1229212Y401513D01*
X1229401Y401265D01*
X1229583Y401013D01*
X1229760Y400756D01*
X1229930Y400494D01*
X1230093Y400229D01*
X1230250Y399960D01*
X1230400Y399687D01*
X1230544Y399410D01*
X1230681Y399130D01*
X1230810Y398847D01*
X1230933Y398560D01*
X1231049Y398271D01*
X1231158Y397979D01*
X1231259Y397684D01*
X1231353Y397387D01*
X1231440Y397087D01*
X1231519Y396786D01*
X1231591Y396483D01*
X1231656Y396178D01*
X1231713Y395871D01*
X1231763Y395563D01*
X1231804Y395255D01*
X1231839Y394945D01*
X1231866Y394634D01*
X1231885Y394323D01*
X1231896Y394012D01*
X1231900Y393700D01*
X1231896Y393388D01*
X1231885Y393077D01*
X1231866Y392766D01*
X1231839Y392455D01*
X1231804Y392145D01*
X1231763Y391837D01*
X1231713Y391529D01*
X1231656Y391222D01*
X1231591Y390917D01*
X1231519Y390614D01*
X1231440Y390313D01*
X1231353Y390013D01*
X1231259Y389716D01*
X1231158Y389421D01*
X1231049Y389129D01*
X1230933Y388840D01*
X1230810Y388553D01*
X1230681Y388270D01*
X1230544Y387990D01*
X1230400Y387713D01*
X1230250Y387440D01*
X1230093Y387171D01*
X1229930Y386906D01*
X1229760Y386644D01*
X1229583Y386387D01*
X1229401Y386135D01*
X1229212Y385887D01*
X1229017Y385643D01*
X1228817Y385405D01*
X1228610Y385171D01*
X1228398Y384943D01*
X1228180Y384720D01*
X1227957Y384502D01*
X1227729Y384290D01*
X1227495Y384083D01*
X1227257Y383883D01*
X1227013Y383688D01*
X1226765Y383499D01*
X1226513Y383317D01*
X1226256Y383140D01*
X1225994Y382970D01*
X1225729Y382807D01*
X1225460Y382650D01*
X1225187Y382500D01*
X1224910Y382356D01*
X1224630Y382219D01*
X1224347Y382090D01*
X1224060Y381967D01*
X1223771Y381851D01*
X1223479Y381742D01*
X1223184Y381641D01*
X1222887Y381547D01*
X1222587Y381460D01*
X1222286Y381381D01*
X1221983Y381309D01*
X1221678Y381244D01*
X1221371Y381187D01*
X1221063Y381137D01*
X1220755Y381096D01*
X1220445Y381061D01*
X1220134Y381034D01*
X1219823Y381015D01*
X1219512Y381004D01*
X1219200Y381000D01*
X1218888Y381004D01*
X1218577Y381015D01*
X1218266Y381034D01*
X1217955Y381061D01*
X1217645Y381096D01*
X1217337Y381137D01*
X1217029Y381187D01*
X1216722Y381244D01*
X1216417Y381309D01*
X1216114Y381381D01*
X1215813Y381460D01*
X1215513Y381547D01*
X1215216Y381641D01*
X1214921Y381742D01*
X1214629Y381851D01*
X1214340Y381967D01*
X1214053Y382090D01*
X1213770Y382219D01*
X1213490Y382356D01*
X1213213Y382500D01*
X1212940Y382650D01*
X1212671Y382807D01*
X1212406Y382970D01*
X1212144Y383140D01*
X1211887Y383317D01*
X1211635Y383499D01*
X1211387Y383688D01*
X1211143Y383883D01*
X1210905Y384083D01*
X1210671Y384290D01*
X1210443Y384502D01*
X1210220Y384720D01*
X1210002Y384943D01*
X1209790Y385171D01*
X1209583Y385405D01*
X1209383Y385643D01*
X1209188Y385887D01*
X1208999Y386135D01*
X1208817Y386387D01*
X1208640Y386644D01*
X1208470Y386906D01*
X1208307Y387171D01*
X1208150Y387440D01*
X1208000Y387713D01*
X1207856Y387990D01*
X1207719Y388270D01*
X1207590Y388553D01*
X1207467Y388840D01*
X1207351Y389129D01*
X1207242Y389421D01*
X1207141Y389716D01*
X1207047Y390013D01*
X1206960Y390313D01*
X1206881Y390614D01*
X1206809Y390917D01*
X1206744Y391222D01*
X1206687Y391529D01*
X1206637Y391837D01*
X1206596Y392145D01*
X1206561Y392455D01*
X1206534Y392766D01*
X1206515Y393077D01*
X1206504Y393388D01*
X1206500Y393700D01*
X1536700Y393700D02*
X1536704Y394012D01*
X1536715Y394323D01*
X1536734Y394634D01*
X1536761Y394945D01*
X1536796Y395255D01*
X1536837Y395563D01*
X1536887Y395871D01*
X1536944Y396178D01*
X1537009Y396483D01*
X1537081Y396786D01*
X1537160Y397087D01*
X1537247Y397387D01*
X1537341Y397684D01*
X1537442Y397979D01*
X1537551Y398271D01*
X1537667Y398560D01*
X1537790Y398847D01*
X1537919Y399130D01*
X1538056Y399410D01*
X1538200Y399687D01*
X1538350Y399960D01*
X1538507Y400229D01*
X1538670Y400494D01*
X1538840Y400756D01*
X1539017Y401013D01*
X1539199Y401265D01*
X1539388Y401513D01*
X1539583Y401757D01*
X1539783Y401995D01*
X1539990Y402229D01*
X1540202Y402457D01*
X1540420Y402680D01*
X1540643Y402898D01*
X1540871Y403110D01*
X1541105Y403317D01*
X1541343Y403517D01*
X1541587Y403712D01*
X1541835Y403901D01*
X1542087Y404083D01*
X1542344Y404260D01*
X1542606Y404430D01*
X1542871Y404593D01*
X1543140Y404750D01*
X1543413Y404900D01*
X1543690Y405044D01*
X1543970Y405181D01*
X1544253Y405310D01*
X1544540Y405433D01*
X1544829Y405549D01*
X1545121Y405658D01*
X1545416Y405759D01*
X1545713Y405853D01*
X1546013Y405940D01*
X1546314Y406019D01*
X1546617Y406091D01*
X1546922Y406156D01*
X1547229Y406213D01*
X1547537Y406263D01*
X1547845Y406304D01*
X1548155Y406339D01*
X1548466Y406366D01*
X1548777Y406385D01*
X1549088Y406396D01*
X1549400Y406400D01*
X1549712Y406396D01*
X1550023Y406385D01*
X1550334Y406366D01*
X1550645Y406339D01*
X1550955Y406304D01*
X1551263Y406263D01*
X1551571Y406213D01*
X1551878Y406156D01*
X1552183Y406091D01*
X1552486Y406019D01*
X1552787Y405940D01*
X1553087Y405853D01*
X1553384Y405759D01*
X1553679Y405658D01*
X1553971Y405549D01*
X1554260Y405433D01*
X1554547Y405310D01*
X1554830Y405181D01*
X1555110Y405044D01*
X1555387Y404900D01*
X1555660Y404750D01*
X1555929Y404593D01*
X1556194Y404430D01*
X1556456Y404260D01*
X1556713Y404083D01*
X1556965Y403901D01*
X1557213Y403712D01*
X1557457Y403517D01*
X1557695Y403317D01*
X1557929Y403110D01*
X1558157Y402898D01*
X1558380Y402680D01*
X1558598Y402457D01*
X1558810Y402229D01*
X1559017Y401995D01*
X1559217Y401757D01*
X1559412Y401513D01*
X1559601Y401265D01*
X1559783Y401013D01*
X1559960Y400756D01*
X1560130Y400494D01*
X1560293Y400229D01*
X1560450Y399960D01*
X1560600Y399687D01*
X1560744Y399410D01*
X1560881Y399130D01*
X1561010Y398847D01*
X1561133Y398560D01*
X1561249Y398271D01*
X1561358Y397979D01*
X1561459Y397684D01*
X1561553Y397387D01*
X1561640Y397087D01*
X1561719Y396786D01*
X1561791Y396483D01*
X1561856Y396178D01*
X1561913Y395871D01*
X1561963Y395563D01*
X1562004Y395255D01*
X1562039Y394945D01*
X1562066Y394634D01*
X1562085Y394323D01*
X1562096Y394012D01*
X1562100Y393700D01*
X1562096Y393388D01*
X1562085Y393077D01*
X1562066Y392766D01*
X1562039Y392455D01*
X1562004Y392145D01*
X1561963Y391837D01*
X1561913Y391529D01*
X1561856Y391222D01*
X1561791Y390917D01*
X1561719Y390614D01*
X1561640Y390313D01*
X1561553Y390013D01*
X1561459Y389716D01*
X1561358Y389421D01*
X1561249Y389129D01*
X1561133Y388840D01*
X1561010Y388553D01*
X1560881Y388270D01*
X1560744Y387990D01*
X1560600Y387713D01*
X1560450Y387440D01*
X1560293Y387171D01*
X1560130Y386906D01*
X1559960Y386644D01*
X1559783Y386387D01*
X1559601Y386135D01*
X1559412Y385887D01*
X1559217Y385643D01*
X1559017Y385405D01*
X1558810Y385171D01*
X1558598Y384943D01*
X1558380Y384720D01*
X1558157Y384502D01*
X1557929Y384290D01*
X1557695Y384083D01*
X1557457Y383883D01*
X1557213Y383688D01*
X1556965Y383499D01*
X1556713Y383317D01*
X1556456Y383140D01*
X1556194Y382970D01*
X1555929Y382807D01*
X1555660Y382650D01*
X1555387Y382500D01*
X1555110Y382356D01*
X1554830Y382219D01*
X1554547Y382090D01*
X1554260Y381967D01*
X1553971Y381851D01*
X1553679Y381742D01*
X1553384Y381641D01*
X1553087Y381547D01*
X1552787Y381460D01*
X1552486Y381381D01*
X1552183Y381309D01*
X1551878Y381244D01*
X1551571Y381187D01*
X1551263Y381137D01*
X1550955Y381096D01*
X1550645Y381061D01*
X1550334Y381034D01*
X1550023Y381015D01*
X1549712Y381004D01*
X1549400Y381000D01*
X1549088Y381004D01*
X1548777Y381015D01*
X1548466Y381034D01*
X1548155Y381061D01*
X1547845Y381096D01*
X1547537Y381137D01*
X1547229Y381187D01*
X1546922Y381244D01*
X1546617Y381309D01*
X1546314Y381381D01*
X1546013Y381460D01*
X1545713Y381547D01*
X1545416Y381641D01*
X1545121Y381742D01*
X1544829Y381851D01*
X1544540Y381967D01*
X1544253Y382090D01*
X1543970Y382219D01*
X1543690Y382356D01*
X1543413Y382500D01*
X1543140Y382650D01*
X1542871Y382807D01*
X1542606Y382970D01*
X1542344Y383140D01*
X1542087Y383317D01*
X1541835Y383499D01*
X1541587Y383688D01*
X1541343Y383883D01*
X1541105Y384083D01*
X1540871Y384290D01*
X1540643Y384502D01*
X1540420Y384720D01*
X1540202Y384943D01*
X1539990Y385171D01*
X1539783Y385405D01*
X1539583Y385643D01*
X1539388Y385887D01*
X1539199Y386135D01*
X1539017Y386387D01*
X1538840Y386644D01*
X1538670Y386906D01*
X1538507Y387171D01*
X1538350Y387440D01*
X1538200Y387713D01*
X1538056Y387990D01*
X1537919Y388270D01*
X1537790Y388553D01*
X1537667Y388840D01*
X1537551Y389129D01*
X1537442Y389421D01*
X1537341Y389716D01*
X1537247Y390013D01*
X1537160Y390313D01*
X1537081Y390614D01*
X1537009Y390917D01*
X1536944Y391222D01*
X1536887Y391529D01*
X1536837Y391837D01*
X1536796Y392145D01*
X1536761Y392455D01*
X1536734Y392766D01*
X1536715Y393077D01*
X1536704Y393388D01*
X1536700Y393700D01*
X1469390Y1242060D02*
X1469395Y1242465D01*
X1469410Y1242870D01*
X1469435Y1243275D01*
X1469470Y1243678D01*
X1469514Y1244081D01*
X1469569Y1244483D01*
X1469633Y1244883D01*
X1469707Y1245281D01*
X1469791Y1245677D01*
X1469885Y1246072D01*
X1469988Y1246463D01*
X1470101Y1246853D01*
X1470223Y1247239D01*
X1470355Y1247622D01*
X1470496Y1248002D01*
X1470647Y1248378D01*
X1470806Y1248751D01*
X1470975Y1249119D01*
X1471153Y1249483D01*
X1471339Y1249843D01*
X1471535Y1250198D01*
X1471739Y1250548D01*
X1471951Y1250893D01*
X1472172Y1251232D01*
X1472402Y1251567D01*
X1472639Y1251895D01*
X1472884Y1252217D01*
X1473138Y1252534D01*
X1473398Y1252844D01*
X1473667Y1253147D01*
X1473943Y1253444D01*
X1474226Y1253734D01*
X1474516Y1254017D01*
X1474813Y1254293D01*
X1475116Y1254562D01*
X1475426Y1254822D01*
X1475743Y1255076D01*
X1476065Y1255321D01*
X1476393Y1255558D01*
X1476728Y1255788D01*
X1477067Y1256009D01*
X1477412Y1256221D01*
X1477762Y1256425D01*
X1478117Y1256621D01*
X1478477Y1256807D01*
X1478841Y1256985D01*
X1479209Y1257154D01*
X1479582Y1257313D01*
X1479958Y1257464D01*
X1480338Y1257605D01*
X1480721Y1257737D01*
X1481107Y1257859D01*
X1481497Y1257972D01*
X1481888Y1258075D01*
X1482283Y1258169D01*
X1482679Y1258253D01*
X1483077Y1258327D01*
X1483477Y1258391D01*
X1483879Y1258446D01*
X1484282Y1258490D01*
X1484685Y1258525D01*
X1485090Y1258550D01*
X1485495Y1258565D01*
X1485900Y1258570D01*
X1486305Y1258565D01*
X1486710Y1258550D01*
X1487115Y1258525D01*
X1487518Y1258490D01*
X1487921Y1258446D01*
X1488323Y1258391D01*
X1488723Y1258327D01*
X1489121Y1258253D01*
X1489517Y1258169D01*
X1489912Y1258075D01*
X1490303Y1257972D01*
X1490693Y1257859D01*
X1491079Y1257737D01*
X1491462Y1257605D01*
X1491842Y1257464D01*
X1492218Y1257313D01*
X1492591Y1257154D01*
X1492959Y1256985D01*
X1493323Y1256807D01*
X1493683Y1256621D01*
X1494038Y1256425D01*
X1494388Y1256221D01*
X1494733Y1256009D01*
X1495072Y1255788D01*
X1495407Y1255558D01*
X1495735Y1255321D01*
X1496057Y1255076D01*
X1496374Y1254822D01*
X1496684Y1254562D01*
X1496987Y1254293D01*
X1497284Y1254017D01*
X1497574Y1253734D01*
X1497857Y1253444D01*
X1498133Y1253147D01*
X1498402Y1252844D01*
X1498662Y1252534D01*
X1498916Y1252217D01*
X1499161Y1251895D01*
X1499398Y1251567D01*
X1499628Y1251232D01*
X1499849Y1250893D01*
X1500061Y1250548D01*
X1500265Y1250198D01*
X1500461Y1249843D01*
X1500647Y1249483D01*
X1500825Y1249119D01*
X1500994Y1248751D01*
X1501153Y1248378D01*
X1501304Y1248002D01*
X1501445Y1247622D01*
X1501577Y1247239D01*
X1501699Y1246853D01*
X1501812Y1246463D01*
X1501915Y1246072D01*
X1502009Y1245677D01*
X1502093Y1245281D01*
X1502167Y1244883D01*
X1502231Y1244483D01*
X1502286Y1244081D01*
X1502330Y1243678D01*
X1502365Y1243275D01*
X1502390Y1242870D01*
X1502405Y1242465D01*
X1502410Y1242060D01*
X1502405Y1241655D01*
X1502390Y1241250D01*
X1502365Y1240845D01*
X1502330Y1240442D01*
X1502286Y1240039D01*
X1502231Y1239637D01*
X1502167Y1239237D01*
X1502093Y1238839D01*
X1502009Y1238443D01*
X1501915Y1238048D01*
X1501812Y1237657D01*
X1501699Y1237267D01*
X1501577Y1236881D01*
X1501445Y1236498D01*
X1501304Y1236118D01*
X1501153Y1235742D01*
X1500994Y1235369D01*
X1500825Y1235001D01*
X1500647Y1234637D01*
X1500461Y1234277D01*
X1500265Y1233922D01*
X1500061Y1233572D01*
X1499849Y1233227D01*
X1499628Y1232888D01*
X1499398Y1232553D01*
X1499161Y1232225D01*
X1498916Y1231903D01*
X1498662Y1231586D01*
X1498402Y1231276D01*
X1498133Y1230973D01*
X1497857Y1230676D01*
X1497574Y1230386D01*
X1497284Y1230103D01*
X1496987Y1229827D01*
X1496684Y1229558D01*
X1496374Y1229298D01*
X1496057Y1229044D01*
X1495735Y1228799D01*
X1495407Y1228562D01*
X1495072Y1228332D01*
X1494733Y1228111D01*
X1494388Y1227899D01*
X1494038Y1227695D01*
X1493683Y1227499D01*
X1493323Y1227313D01*
X1492959Y1227135D01*
X1492591Y1226966D01*
X1492218Y1226807D01*
X1491842Y1226656D01*
X1491462Y1226515D01*
X1491079Y1226383D01*
X1490693Y1226261D01*
X1490303Y1226148D01*
X1489912Y1226045D01*
X1489517Y1225951D01*
X1489121Y1225867D01*
X1488723Y1225793D01*
X1488323Y1225729D01*
X1487921Y1225674D01*
X1487518Y1225630D01*
X1487115Y1225595D01*
X1486710Y1225570D01*
X1486305Y1225555D01*
X1485900Y1225550D01*
X1485495Y1225555D01*
X1485090Y1225570D01*
X1484685Y1225595D01*
X1484282Y1225630D01*
X1483879Y1225674D01*
X1483477Y1225729D01*
X1483077Y1225793D01*
X1482679Y1225867D01*
X1482283Y1225951D01*
X1481888Y1226045D01*
X1481497Y1226148D01*
X1481107Y1226261D01*
X1480721Y1226383D01*
X1480338Y1226515D01*
X1479958Y1226656D01*
X1479582Y1226807D01*
X1479209Y1226966D01*
X1478841Y1227135D01*
X1478477Y1227313D01*
X1478117Y1227499D01*
X1477762Y1227695D01*
X1477412Y1227899D01*
X1477067Y1228111D01*
X1476728Y1228332D01*
X1476393Y1228562D01*
X1476065Y1228799D01*
X1475743Y1229044D01*
X1475426Y1229298D01*
X1475116Y1229558D01*
X1474813Y1229827D01*
X1474516Y1230103D01*
X1474226Y1230386D01*
X1473943Y1230676D01*
X1473667Y1230973D01*
X1473398Y1231276D01*
X1473138Y1231586D01*
X1472884Y1231903D01*
X1472639Y1232225D01*
X1472402Y1232553D01*
X1472172Y1232888D01*
X1471951Y1233227D01*
X1471739Y1233572D01*
X1471535Y1233922D01*
X1471339Y1234277D01*
X1471153Y1234637D01*
X1470975Y1235001D01*
X1470806Y1235369D01*
X1470647Y1235742D01*
X1470496Y1236118D01*
X1470355Y1236498D01*
X1470223Y1236881D01*
X1470101Y1237267D01*
X1469988Y1237657D01*
X1469885Y1238048D01*
X1469791Y1238443D01*
X1469707Y1238839D01*
X1469633Y1239237D01*
X1469569Y1239637D01*
X1469514Y1240039D01*
X1469470Y1240442D01*
X1469435Y1240845D01*
X1469410Y1241250D01*
X1469395Y1241655D01*
X1469390Y1242060D01*
D11*
X723900Y-50800D02*
X1739900Y-50800D01*
X1739900Y1282700D01*
X723900Y1282700D01*
X723900Y-50800D01*
X803910Y1241520D02*
X803839Y1240441D01*
X803698Y1239369D01*
X803487Y1238309D01*
X803208Y1237265D01*
X802860Y1236241D01*
X802446Y1235243D01*
X801968Y1234273D01*
X801428Y1233337D01*
X800827Y1232438D01*
X800169Y1231581D01*
X799457Y1230768D01*
X798692Y1230004D01*
X797879Y1229291D01*
X797022Y1228633D01*
X796123Y1228032D01*
X795187Y1227492D01*
X794217Y1227014D01*
X793219Y1226600D01*
X792195Y1226252D01*
X791151Y1225973D01*
X790091Y1225762D01*
X789019Y1225621D01*
X787940Y1225550D01*
X786860Y1225550D01*
X785781Y1225621D01*
X784709Y1225762D01*
X783649Y1225973D01*
X782605Y1226252D01*
X781581Y1226600D01*
X780583Y1227014D01*
X779613Y1227492D01*
X778677Y1228032D01*
X777778Y1228633D01*
X776921Y1229291D01*
X776108Y1230004D01*
X775344Y1230768D01*
X774631Y1231581D01*
X773973Y1232438D01*
X773372Y1233337D01*
X772832Y1234273D01*
X772354Y1235243D01*
X771940Y1236241D01*
X771592Y1237265D01*
X771313Y1238309D01*
X771102Y1239369D01*
X770961Y1240441D01*
X770890Y1241520D01*
X770890Y1242600D01*
X770961Y1243679D01*
X771102Y1244751D01*
X771313Y1245811D01*
X771592Y1246855D01*
X771940Y1247879D01*
X772354Y1248877D01*
X772832Y1249847D01*
X773372Y1250783D01*
X773973Y1251682D01*
X774631Y1252539D01*
X775344Y1253352D01*
X776108Y1254117D01*
X776921Y1254829D01*
X777778Y1255487D01*
X778677Y1256088D01*
X779613Y1256628D01*
X780583Y1257106D01*
X781581Y1257520D01*
X782605Y1257868D01*
X783649Y1258147D01*
X784709Y1258358D01*
X785781Y1258499D01*
X786860Y1258570D01*
X787940Y1258570D01*
X789019Y1258499D01*
X790091Y1258358D01*
X791151Y1258147D01*
X792195Y1257868D01*
X793219Y1257520D01*
X794217Y1257106D01*
X795187Y1256628D01*
X796123Y1256088D01*
X797022Y1255487D01*
X797879Y1254829D01*
X798692Y1254117D01*
X799457Y1253352D01*
X800169Y1252539D01*
X800827Y1251682D01*
X801428Y1250783D01*
X801968Y1249847D01*
X802446Y1248877D01*
X802860Y1247879D01*
X803208Y1246855D01*
X803487Y1245811D01*
X803698Y1244751D01*
X803839Y1243679D01*
X803910Y1242600D01*
X803910Y1241520D01*
X1218701Y762000D02*
X1217706Y762078D01*
X1216720Y762234D01*
X1215750Y762467D01*
X1214801Y762776D01*
X1213879Y763158D01*
X1212990Y763611D01*
X1212139Y764132D01*
X1211331Y764719D01*
X1210573Y765367D01*
X1209867Y766073D01*
X1209219Y766831D01*
X1208632Y767639D01*
X1208111Y768490D01*
X1207658Y769379D01*
X1207276Y770301D01*
X1206967Y771250D01*
X1206734Y772220D01*
X1206578Y773206D01*
X1206500Y774201D01*
X1206500Y775199D01*
X1206578Y776194D01*
X1206734Y777180D01*
X1206967Y778150D01*
X1207276Y779099D01*
X1207658Y780021D01*
X1208111Y780910D01*
X1208632Y781761D01*
X1209219Y782569D01*
X1209867Y783327D01*
X1210573Y784033D01*
X1211331Y784681D01*
X1212139Y785268D01*
X1212990Y785789D01*
X1213879Y786242D01*
X1214801Y786624D01*
X1215750Y786933D01*
X1216720Y787166D01*
X1217706Y787322D01*
X1218701Y787400D01*
X1219699Y787400D01*
X1220694Y787322D01*
X1221680Y787166D01*
X1222650Y786933D01*
X1223599Y786624D01*
X1224521Y786242D01*
X1225410Y785789D01*
X1226261Y785268D01*
X1227069Y784681D01*
X1227827Y784033D01*
X1228533Y783327D01*
X1229181Y782569D01*
X1229768Y781761D01*
X1230289Y780910D01*
X1230742Y780021D01*
X1231124Y779099D01*
X1231433Y778150D01*
X1231666Y777180D01*
X1231822Y776194D01*
X1231900Y775199D01*
X1231900Y774201D01*
X1231822Y773206D01*
X1231666Y772220D01*
X1231433Y771250D01*
X1231124Y770301D01*
X1230742Y769379D01*
X1230289Y768490D01*
X1229768Y767639D01*
X1229181Y766831D01*
X1228533Y766073D01*
X1227827Y765367D01*
X1227069Y764719D01*
X1226261Y764132D01*
X1225410Y763611D01*
X1224521Y763158D01*
X1223599Y762776D01*
X1222650Y762467D01*
X1221680Y762234D01*
X1220694Y762078D01*
X1219699Y762000D01*
X1218701Y762000D01*
X1548901Y762000D02*
X1547906Y762078D01*
X1546920Y762234D01*
X1545950Y762467D01*
X1545001Y762776D01*
X1544079Y763158D01*
X1543190Y763611D01*
X1542339Y764132D01*
X1541531Y764719D01*
X1540773Y765367D01*
X1540067Y766073D01*
X1539419Y766831D01*
X1538832Y767639D01*
X1538311Y768490D01*
X1537858Y769379D01*
X1537476Y770301D01*
X1537167Y771250D01*
X1536934Y772220D01*
X1536778Y773206D01*
X1536700Y774201D01*
X1536700Y775199D01*
X1536778Y776194D01*
X1536934Y777180D01*
X1537167Y778150D01*
X1537476Y779099D01*
X1537858Y780021D01*
X1538311Y780910D01*
X1538832Y781761D01*
X1539419Y782569D01*
X1540067Y783327D01*
X1540773Y784033D01*
X1541531Y784681D01*
X1542339Y785268D01*
X1543190Y785789D01*
X1544079Y786242D01*
X1545001Y786624D01*
X1545950Y786933D01*
X1546920Y787166D01*
X1547906Y787322D01*
X1548901Y787400D01*
X1549899Y787400D01*
X1550894Y787322D01*
X1551880Y787166D01*
X1552850Y786933D01*
X1553799Y786624D01*
X1554721Y786242D01*
X1555610Y785789D01*
X1556461Y785268D01*
X1557269Y784681D01*
X1558027Y784033D01*
X1558733Y783327D01*
X1559381Y782569D01*
X1559968Y781761D01*
X1560489Y780910D01*
X1560942Y780021D01*
X1561324Y779099D01*
X1561633Y778150D01*
X1561866Y777180D01*
X1562022Y776194D01*
X1562100Y775199D01*
X1562100Y774201D01*
X1562022Y773206D01*
X1561866Y772220D01*
X1561633Y771250D01*
X1561324Y770301D01*
X1560942Y769379D01*
X1560489Y768490D01*
X1559968Y767639D01*
X1559381Y766831D01*
X1558733Y766073D01*
X1558027Y765367D01*
X1557269Y764719D01*
X1556461Y764132D01*
X1555610Y763611D01*
X1554721Y763158D01*
X1553799Y762776D01*
X1552850Y762467D01*
X1551880Y762234D01*
X1550894Y762078D01*
X1549899Y762000D01*
X1548901Y762000D01*
X1218701Y381000D02*
X1217706Y381078D01*
X1216720Y381234D01*
X1215750Y381467D01*
X1214801Y381776D01*
X1213879Y382158D01*
X1212990Y382611D01*
X1212139Y383132D01*
X1211331Y383719D01*
X1210573Y384367D01*
X1209867Y385073D01*
X1209219Y385831D01*
X1208632Y386639D01*
X1208111Y387490D01*
X1207658Y388379D01*
X1207276Y389301D01*
X1206967Y390250D01*
X1206734Y391220D01*
X1206578Y392206D01*
X1206500Y393201D01*
X1206500Y394199D01*
X1206578Y395194D01*
X1206734Y396180D01*
X1206967Y397150D01*
X1207276Y398099D01*
X1207658Y399021D01*
X1208111Y399910D01*
X1208632Y400761D01*
X1209219Y401569D01*
X1209867Y402327D01*
X1210573Y403033D01*
X1211331Y403681D01*
X1212139Y404268D01*
X1212990Y404789D01*
X1213879Y405242D01*
X1214801Y405624D01*
X1215750Y405933D01*
X1216720Y406166D01*
X1217706Y406322D01*
X1218701Y406400D01*
X1219699Y406400D01*
X1220694Y406322D01*
X1221680Y406166D01*
X1222650Y405933D01*
X1223599Y405624D01*
X1224521Y405242D01*
X1225410Y404789D01*
X1226261Y404268D01*
X1227069Y403681D01*
X1227827Y403033D01*
X1228533Y402327D01*
X1229181Y401569D01*
X1229768Y400761D01*
X1230289Y399910D01*
X1230742Y399021D01*
X1231124Y398099D01*
X1231433Y397150D01*
X1231666Y396180D01*
X1231822Y395194D01*
X1231900Y394199D01*
X1231900Y393201D01*
X1231822Y392206D01*
X1231666Y391220D01*
X1231433Y390250D01*
X1231124Y389301D01*
X1230742Y388379D01*
X1230289Y387490D01*
X1229768Y386639D01*
X1229181Y385831D01*
X1228533Y385073D01*
X1227827Y384367D01*
X1227069Y383719D01*
X1226261Y383132D01*
X1225410Y382611D01*
X1224521Y382158D01*
X1223599Y381776D01*
X1222650Y381467D01*
X1221680Y381234D01*
X1220694Y381078D01*
X1219699Y381000D01*
X1218701Y381000D01*
X1548901Y381000D02*
X1547906Y381078D01*
X1546920Y381234D01*
X1545950Y381467D01*
X1545001Y381776D01*
X1544079Y382158D01*
X1543190Y382611D01*
X1542339Y383132D01*
X1541531Y383719D01*
X1540773Y384367D01*
X1540067Y385073D01*
X1539419Y385831D01*
X1538832Y386639D01*
X1538311Y387490D01*
X1537858Y388379D01*
X1537476Y389301D01*
X1537167Y390250D01*
X1536934Y391220D01*
X1536778Y392206D01*
X1536700Y393201D01*
X1536700Y394199D01*
X1536778Y395194D01*
X1536934Y396180D01*
X1537167Y397150D01*
X1537476Y398099D01*
X1537858Y399021D01*
X1538311Y399910D01*
X1538832Y400761D01*
X1539419Y401569D01*
X1540067Y402327D01*
X1540773Y403033D01*
X1541531Y403681D01*
X1542339Y404268D01*
X1543190Y404789D01*
X1544079Y405242D01*
X1545001Y405624D01*
X1545950Y405933D01*
X1546920Y406166D01*
X1547906Y406322D01*
X1548901Y406400D01*
X1549899Y406400D01*
X1550894Y406322D01*
X1551880Y406166D01*
X1552850Y405933D01*
X1553799Y405624D01*
X1554721Y405242D01*
X1555610Y404789D01*
X1556461Y404268D01*
X1557269Y403681D01*
X1558027Y403033D01*
X1558733Y402327D01*
X1559381Y401569D01*
X1559968Y400761D01*
X1560489Y399910D01*
X1560942Y399021D01*
X1561324Y398099D01*
X1561633Y397150D01*
X1561866Y396180D01*
X1562022Y395194D01*
X1562100Y394199D01*
X1562100Y393201D01*
X1562022Y392206D01*
X1561866Y391220D01*
X1561633Y390250D01*
X1561324Y389301D01*
X1560942Y388379D01*
X1560489Y387490D01*
X1559968Y386639D01*
X1559381Y385831D01*
X1558733Y385073D01*
X1558027Y384367D01*
X1557269Y383719D01*
X1556461Y383132D01*
X1555610Y382611D01*
X1554721Y382158D01*
X1553799Y381776D01*
X1552850Y381467D01*
X1551880Y381234D01*
X1550894Y381078D01*
X1549899Y381000D01*
X1548901Y381000D01*
X1502410Y1241520D02*
X1502339Y1240441D01*
X1502198Y1239369D01*
X1501987Y1238309D01*
X1501708Y1237265D01*
X1501360Y1236241D01*
X1500946Y1235243D01*
X1500468Y1234273D01*
X1499928Y1233337D01*
X1499327Y1232438D01*
X1498669Y1231581D01*
X1497957Y1230768D01*
X1497192Y1230004D01*
X1496379Y1229291D01*
X1495522Y1228633D01*
X1494623Y1228032D01*
X1493687Y1227492D01*
X1492717Y1227014D01*
X1491719Y1226600D01*
X1490695Y1226252D01*
X1489651Y1225973D01*
X1488591Y1225762D01*
X1487519Y1225621D01*
X1486440Y1225550D01*
X1485360Y1225550D01*
X1484281Y1225621D01*
X1483209Y1225762D01*
X1482149Y1225973D01*
X1481105Y1226252D01*
X1480081Y1226600D01*
X1479083Y1227014D01*
X1478113Y1227492D01*
X1477177Y1228032D01*
X1476278Y1228633D01*
X1475421Y1229291D01*
X1474608Y1230004D01*
X1473844Y1230768D01*
X1473131Y1231581D01*
X1472473Y1232438D01*
X1471872Y1233337D01*
X1471332Y1234273D01*
X1470854Y1235243D01*
X1470440Y1236241D01*
X1470092Y1237265D01*
X1469813Y1238309D01*
X1469602Y1239369D01*
X1469461Y1240441D01*
X1469390Y1241520D01*
X1469390Y1242600D01*
X1469461Y1243679D01*
X1469602Y1244751D01*
X1469813Y1245811D01*
X1470092Y1246855D01*
X1470440Y1247879D01*
X1470854Y1248877D01*
X1471332Y1249847D01*
X1471872Y1250783D01*
X1472473Y1251682D01*
X1473131Y1252539D01*
X1473844Y1253352D01*
X1474608Y1254117D01*
X1475421Y1254829D01*
X1476278Y1255487D01*
X1477177Y1256088D01*
X1478113Y1256628D01*
X1479083Y1257106D01*
X1480081Y1257520D01*
X1481105Y1257868D01*
X1482149Y1258147D01*
X1483209Y1258358D01*
X1484281Y1258499D01*
X1485360Y1258570D01*
X1486440Y1258570D01*
X1487519Y1258499D01*
X1488591Y1258358D01*
X1489651Y1258147D01*
X1490695Y1257868D01*
X1491719Y1257520D01*
X1492717Y1257106D01*
X1493687Y1256628D01*
X1494623Y1256088D01*
X1495522Y1255487D01*
X1496379Y1254829D01*
X1497192Y1254117D01*
X1497957Y1253352D01*
X1498669Y1252539D01*
X1499327Y1251682D01*
X1499928Y1250783D01*
X1500468Y1249847D01*
X1500946Y1248877D01*
X1501360Y1247879D01*
X1501708Y1246855D01*
X1501987Y1245811D01*
X1502198Y1244751D01*
X1502339Y1243679D01*
X1502410Y1242600D01*
X1502410Y1241520D01*
M02*
