G04 EAGLE Gerber RS-274X export*
G75*
%MOMM*%
%FSLAX34Y34*%
%LPD*%
%INBottom Copper*%
%IPPOS*%
%AMOC8*
5,1,8,0,0,1.08239X$1,22.5*%
G01*
%ADD10C,1.676400*%
%ADD11P,1.732040X8X292.500000*%
%ADD12C,1.600200*%
%ADD13P,1.429621X8X22.500000*%
%ADD14C,1.320800*%
%ADD15P,1.429621X8X112.500000*%
%ADD16P,1.429621X8X292.500000*%
%ADD17C,1.422400*%
%ADD18P,1.539592X8X22.500000*%
%ADD19P,1.539592X8X202.500000*%
%ADD20C,3.149600*%
%ADD21P,3.409096X8X22.500000*%
%ADD22P,1.732040X8X202.500000*%
%ADD23P,1.732040X8X22.500000*%
%ADD24P,1.732040X8X112.500000*%
%ADD25P,1.429621X8X202.500000*%
%ADD26C,1.320800*%
%ADD27R,1.168400X1.600200*%
%ADD28C,4.445000*%
%ADD29C,3.810000*%
%ADD30C,2.540000*%
%ADD31R,1.308000X1.308000*%
%ADD32C,1.117600*%
%ADD33C,1.524000*%
%ADD34C,1.208000*%
%ADD35P,1.938236X8X22.500000*%
%ADD36C,1.676400*%
%ADD37P,1.649562X8X22.500000*%
%ADD38C,0.254000*%
%ADD39C,1.016000*%


D10*
X762000Y1083818D02*
X762000Y1100582D01*
X787400Y1100582D02*
X787400Y1083818D01*
X812800Y1083818D02*
X812800Y1100582D01*
D11*
X1689100Y939800D03*
D12*
X1689100Y965200D03*
D13*
X749300Y1054100D03*
X800100Y1054100D03*
X838200Y1054100D03*
X889000Y1054100D03*
D14*
X1022096Y241300D02*
X1035304Y241300D01*
X1035304Y266700D02*
X1022096Y266700D01*
X1022096Y393700D02*
X1035304Y393700D01*
X1035304Y419100D02*
X1022096Y419100D01*
X1022096Y292100D02*
X1035304Y292100D01*
X1035304Y317500D02*
X1022096Y317500D01*
X1022096Y368300D02*
X1035304Y368300D01*
X1035304Y342900D02*
X1022096Y342900D01*
X1022096Y444500D02*
X1035304Y444500D01*
X1035304Y469900D02*
X1022096Y469900D01*
X1022096Y495300D02*
X1035304Y495300D01*
X1035304Y520700D02*
X1022096Y520700D01*
X1022096Y546100D02*
X1035304Y546100D01*
X1035304Y571500D02*
X1022096Y571500D01*
X1022096Y596900D02*
X1035304Y596900D01*
X1035304Y622300D02*
X1022096Y622300D01*
X1022096Y647700D02*
X1035304Y647700D01*
X1035304Y673100D02*
X1022096Y673100D01*
X1022096Y698500D02*
X1035304Y698500D01*
X1035304Y723900D02*
X1022096Y723900D01*
X882904Y723900D02*
X869696Y723900D01*
X869696Y698500D02*
X882904Y698500D01*
X882904Y673100D02*
X869696Y673100D01*
X869696Y647700D02*
X882904Y647700D01*
X882904Y622300D02*
X869696Y622300D01*
X869696Y596900D02*
X882904Y596900D01*
X882904Y571500D02*
X869696Y571500D01*
X869696Y546100D02*
X882904Y546100D01*
X882904Y520700D02*
X869696Y520700D01*
X869696Y495300D02*
X882904Y495300D01*
X882904Y469900D02*
X869696Y469900D01*
X869696Y444500D02*
X882904Y444500D01*
X882904Y419100D02*
X869696Y419100D01*
X869696Y393700D02*
X882904Y393700D01*
X882904Y368300D02*
X869696Y368300D01*
X869696Y342900D02*
X882904Y342900D01*
X882904Y317500D02*
X869696Y317500D01*
X869696Y292100D02*
X882904Y292100D01*
X882904Y266700D02*
X869696Y266700D01*
X869696Y241300D02*
X882904Y241300D01*
X1270000Y95504D02*
X1270000Y82296D01*
X1295400Y82296D02*
X1295400Y95504D01*
X1320800Y95504D02*
X1320800Y82296D01*
X1346200Y82296D02*
X1346200Y95504D01*
X1371600Y95504D02*
X1371600Y82296D01*
X1397000Y82296D02*
X1397000Y95504D01*
X1422400Y95504D02*
X1422400Y82296D01*
X1447800Y82296D02*
X1447800Y95504D01*
X1473200Y95504D02*
X1473200Y82296D01*
X1498600Y82296D02*
X1498600Y95504D01*
X1524000Y95504D02*
X1524000Y82296D01*
X1524000Y183896D02*
X1524000Y197104D01*
X1498600Y197104D02*
X1498600Y183896D01*
X1473200Y183896D02*
X1473200Y197104D01*
X1447800Y197104D02*
X1447800Y183896D01*
X1422400Y183896D02*
X1422400Y197104D01*
X1397000Y197104D02*
X1397000Y183896D01*
X1371600Y183896D02*
X1371600Y197104D01*
X1346200Y197104D02*
X1346200Y183896D01*
X1320800Y183896D02*
X1320800Y197104D01*
X1295400Y197104D02*
X1295400Y183896D01*
X1270000Y183896D02*
X1270000Y197104D01*
X1206500Y920496D02*
X1206500Y933704D01*
X1231900Y933704D02*
X1231900Y920496D01*
X1358900Y920496D02*
X1358900Y933704D01*
X1384300Y933704D02*
X1384300Y920496D01*
X1257300Y920496D02*
X1257300Y933704D01*
X1282700Y933704D02*
X1282700Y920496D01*
X1333500Y920496D02*
X1333500Y933704D01*
X1308100Y933704D02*
X1308100Y920496D01*
X1409700Y920496D02*
X1409700Y933704D01*
X1435100Y933704D02*
X1435100Y920496D01*
X1435100Y996696D02*
X1435100Y1009904D01*
X1409700Y1009904D02*
X1409700Y996696D01*
X1384300Y996696D02*
X1384300Y1009904D01*
X1358900Y1009904D02*
X1358900Y996696D01*
X1333500Y996696D02*
X1333500Y1009904D01*
X1308100Y1009904D02*
X1308100Y996696D01*
X1282700Y996696D02*
X1282700Y1009904D01*
X1257300Y1009904D02*
X1257300Y996696D01*
X1231900Y996696D02*
X1231900Y1009904D01*
X1206500Y1009904D02*
X1206500Y996696D01*
D15*
X914400Y762000D03*
X914400Y838200D03*
D16*
X977900Y838200D03*
X977900Y762000D03*
D13*
X1498600Y50800D03*
X1524000Y50800D03*
D15*
X1143000Y901700D03*
X1143000Y927100D03*
X1104900Y787400D03*
X1104900Y863600D03*
D14*
X1270000Y400304D02*
X1270000Y387096D01*
X1295400Y387096D02*
X1295400Y400304D01*
X1422400Y400304D02*
X1422400Y387096D01*
X1447800Y387096D02*
X1447800Y400304D01*
X1320800Y400304D02*
X1320800Y387096D01*
X1346200Y387096D02*
X1346200Y400304D01*
X1397000Y400304D02*
X1397000Y387096D01*
X1371600Y387096D02*
X1371600Y400304D01*
X1473200Y400304D02*
X1473200Y387096D01*
X1498600Y387096D02*
X1498600Y400304D01*
X1498600Y768096D02*
X1498600Y781304D01*
X1473200Y781304D02*
X1473200Y768096D01*
X1447800Y768096D02*
X1447800Y781304D01*
X1422400Y781304D02*
X1422400Y768096D01*
X1397000Y768096D02*
X1397000Y781304D01*
X1371600Y781304D02*
X1371600Y768096D01*
X1346200Y768096D02*
X1346200Y781304D01*
X1320800Y781304D02*
X1320800Y768096D01*
X1295400Y768096D02*
X1295400Y781304D01*
X1270000Y781304D02*
X1270000Y768096D01*
D17*
X1511300Y856488D02*
X1511300Y870712D01*
X1536700Y870712D02*
X1536700Y856488D01*
D16*
X1587500Y304800D03*
X1587500Y228600D03*
D18*
X1257300Y889000D03*
X1333500Y889000D03*
D19*
X1435100Y889000D03*
X1358900Y889000D03*
D15*
X1143000Y838200D03*
X1143000Y863600D03*
D16*
X1104900Y749300D03*
X1104900Y673100D03*
X1130300Y749300D03*
X1130300Y673100D03*
D14*
X1257300Y844296D02*
X1257300Y857504D01*
X1282700Y857504D02*
X1282700Y844296D01*
X1308100Y844296D02*
X1308100Y857504D01*
X1333500Y857504D02*
X1333500Y844296D01*
X1358900Y844296D02*
X1358900Y857504D01*
X1384300Y857504D02*
X1384300Y844296D01*
X1409700Y844296D02*
X1409700Y857504D01*
X1435100Y857504D02*
X1435100Y844296D01*
X1707896Y457200D02*
X1721104Y457200D01*
X1721104Y482600D02*
X1707896Y482600D01*
X1707896Y609600D02*
X1721104Y609600D01*
X1721104Y635000D02*
X1707896Y635000D01*
X1707896Y508000D02*
X1721104Y508000D01*
X1721104Y533400D02*
X1707896Y533400D01*
X1707896Y584200D02*
X1721104Y584200D01*
X1721104Y558800D02*
X1707896Y558800D01*
X1644904Y635000D02*
X1631696Y635000D01*
X1631696Y609600D02*
X1644904Y609600D01*
X1644904Y584200D02*
X1631696Y584200D01*
X1631696Y558800D02*
X1644904Y558800D01*
X1644904Y533400D02*
X1631696Y533400D01*
X1631696Y508000D02*
X1644904Y508000D01*
X1644904Y482600D02*
X1631696Y482600D01*
X1631696Y457200D02*
X1644904Y457200D01*
X1707896Y203200D02*
X1721104Y203200D01*
X1721104Y228600D02*
X1707896Y228600D01*
X1707896Y355600D02*
X1721104Y355600D01*
X1644904Y355600D02*
X1631696Y355600D01*
X1707896Y254000D02*
X1721104Y254000D01*
X1721104Y279400D02*
X1707896Y279400D01*
X1707896Y330200D02*
X1721104Y330200D01*
X1721104Y304800D02*
X1707896Y304800D01*
X1644904Y330200D02*
X1631696Y330200D01*
X1631696Y304800D02*
X1644904Y304800D01*
X1644904Y279400D02*
X1631696Y279400D01*
X1631696Y254000D02*
X1644904Y254000D01*
X1644904Y228600D02*
X1631696Y228600D01*
X1631696Y203200D02*
X1644904Y203200D01*
X1707896Y736600D02*
X1721104Y736600D01*
X1721104Y762000D02*
X1707896Y762000D01*
X1707896Y889000D02*
X1721104Y889000D01*
X1644904Y889000D02*
X1631696Y889000D01*
X1707896Y787400D02*
X1721104Y787400D01*
X1721104Y812800D02*
X1707896Y812800D01*
X1707896Y863600D02*
X1721104Y863600D01*
X1721104Y838200D02*
X1707896Y838200D01*
X1644904Y863600D02*
X1631696Y863600D01*
X1631696Y838200D02*
X1644904Y838200D01*
X1644904Y812800D02*
X1631696Y812800D01*
X1631696Y787400D02*
X1644904Y787400D01*
X1644904Y762000D02*
X1631696Y762000D01*
X1631696Y736600D02*
X1644904Y736600D01*
D15*
X1028700Y762000D03*
X1028700Y838200D03*
D14*
X863600Y82804D02*
X863600Y69596D01*
X889000Y69596D02*
X889000Y82804D01*
X914400Y82804D02*
X914400Y69596D01*
X939800Y69596D02*
X939800Y82804D01*
X939800Y145796D02*
X939800Y159004D01*
X914400Y159004D02*
X914400Y145796D01*
X889000Y145796D02*
X889000Y159004D01*
X863600Y159004D02*
X863600Y145796D01*
D16*
X1041400Y152400D03*
X1041400Y76200D03*
D15*
X990600Y76200D03*
X990600Y152400D03*
D16*
X1003300Y838200D03*
X1003300Y762000D03*
D14*
X1016000Y159004D02*
X1016000Y145796D01*
X1016000Y82804D02*
X1016000Y69596D01*
D15*
X1066800Y76200D03*
X1066800Y152400D03*
D14*
X1092200Y82804D02*
X1092200Y69596D01*
X1092200Y145796D02*
X1092200Y159004D01*
D13*
X1016000Y38100D03*
X1092200Y38100D03*
X1066800Y203200D03*
X1092200Y203200D03*
X1066800Y241300D03*
X1092200Y241300D03*
D15*
X1066800Y393700D03*
X1066800Y469900D03*
D14*
X965200Y882396D02*
X965200Y895604D01*
X914400Y895604D02*
X914400Y882396D01*
X939800Y882396D02*
X939800Y895604D01*
D15*
X1016000Y901700D03*
X996950Y889000D03*
X1016000Y876300D03*
D13*
X1066800Y330200D03*
X1092200Y330200D03*
X1066800Y279400D03*
X1092200Y279400D03*
D20*
X1231900Y279400D03*
D21*
X1536700Y279400D03*
D20*
X1066800Y1092200D03*
D21*
X1371600Y1092200D03*
D16*
X1638300Y698500D03*
X1638300Y673100D03*
X1638300Y419100D03*
X1638300Y393700D03*
D11*
X1701800Y673100D03*
D12*
X1701800Y698500D03*
D11*
X1701800Y393700D03*
D12*
X1701800Y419100D03*
D22*
X1600200Y939800D03*
D12*
X1625600Y939800D03*
D23*
X1600200Y165100D03*
D12*
X1574800Y165100D03*
D23*
X1600200Y88900D03*
D12*
X1574800Y88900D03*
D13*
X901700Y38100D03*
X927100Y38100D03*
D11*
X1181100Y165100D03*
D12*
X1181100Y190500D03*
D13*
X1282700Y63500D03*
X1308100Y63500D03*
D16*
X1219200Y114300D03*
X1219200Y88900D03*
D23*
X1130300Y571500D03*
D12*
X1104900Y571500D03*
D13*
X1104900Y508000D03*
X1130300Y508000D03*
X1104900Y635000D03*
X1130300Y635000D03*
D24*
X1092200Y927100D03*
D12*
X1092200Y901700D03*
D11*
X1143000Y977900D03*
D12*
X1143000Y1003300D03*
D16*
X1092200Y1003300D03*
X1092200Y977900D03*
X1028700Y977900D03*
X1028700Y952500D03*
D24*
X977900Y977900D03*
D12*
X977900Y952500D03*
D24*
X1193800Y876300D03*
D12*
X1193800Y850900D03*
D16*
X1638300Y152400D03*
X1638300Y127000D03*
D13*
X1689100Y152400D03*
X1714500Y152400D03*
D25*
X1625600Y990600D03*
X1600200Y990600D03*
X1130300Y1231900D03*
X1104900Y1231900D03*
X1054100Y1231900D03*
X1028700Y1231900D03*
D15*
X1028700Y1079500D03*
X1028700Y1155700D03*
X990600Y1079500D03*
X990600Y1155700D03*
D10*
X1460500Y1100582D02*
X1460500Y1083818D01*
X1485900Y1083818D02*
X1485900Y1100582D01*
X1511300Y1100582D02*
X1511300Y1083818D01*
D11*
X1701800Y1028700D03*
D12*
X1701800Y1054100D03*
D25*
X1460500Y1054100D03*
X1409700Y1054100D03*
D13*
X1511300Y1054100D03*
X1562100Y1054100D03*
D14*
X832104Y558800D02*
X818896Y558800D01*
X818896Y584200D02*
X832104Y584200D01*
X832104Y711200D02*
X818896Y711200D01*
X755904Y711200D02*
X742696Y711200D01*
X818896Y609600D02*
X832104Y609600D01*
X832104Y635000D02*
X818896Y635000D01*
X818896Y685800D02*
X832104Y685800D01*
X832104Y660400D02*
X818896Y660400D01*
X755904Y685800D02*
X742696Y685800D01*
X742696Y660400D02*
X755904Y660400D01*
X755904Y635000D02*
X742696Y635000D01*
X742696Y609600D02*
X755904Y609600D01*
X755904Y584200D02*
X742696Y584200D01*
X742696Y558800D02*
X755904Y558800D01*
D26*
X762000Y850900D03*
X762000Y774700D03*
X838200Y774700D03*
X838200Y850900D03*
D27*
X795020Y660400D03*
X779780Y660400D03*
X795020Y609600D03*
X779780Y609600D03*
X795020Y635000D03*
X779780Y635000D03*
X795020Y584200D03*
X779780Y584200D03*
D15*
X901700Y952500D03*
X901700Y977900D03*
D13*
X749300Y520700D03*
X774700Y520700D03*
D14*
X1206500Y1225296D02*
X1206500Y1238504D01*
X1231900Y1238504D02*
X1231900Y1225296D01*
X1308100Y1225296D02*
X1308100Y1238504D01*
X1333500Y1238504D02*
X1333500Y1225296D01*
X1358900Y1225296D02*
X1358900Y1238504D01*
X1257300Y1238504D02*
X1257300Y1225296D01*
X1384300Y1225296D02*
X1384300Y1238504D01*
D28*
X1638300Y1150100D03*
D29*
X1638300Y1211100D03*
X1590300Y1181100D03*
D11*
X1625600Y1066800D03*
D12*
X1625600Y1092200D03*
D30*
X1155700Y279400D03*
D25*
X977900Y1231900D03*
X952500Y1231900D03*
X901700Y1231900D03*
X876300Y1231900D03*
D16*
X952500Y1155700D03*
X952500Y1079500D03*
X914400Y1155700D03*
X914400Y1079500D03*
D31*
X1181100Y1193800D03*
X1181100Y1219200D03*
X1181100Y1244600D03*
D10*
X1706118Y38100D02*
X1722882Y38100D01*
X1595882Y38100D02*
X1579118Y38100D01*
D32*
X1308100Y812800D03*
X1270000Y825500D03*
X1358900Y812800D03*
D14*
X832104Y241300D02*
X818896Y241300D01*
X818896Y266700D02*
X832104Y266700D01*
X832104Y292100D02*
X818896Y292100D01*
X818896Y317500D02*
X832104Y317500D01*
X832104Y342900D02*
X818896Y342900D01*
X818896Y368300D02*
X832104Y368300D01*
X832104Y393700D02*
X818896Y393700D01*
X818896Y419100D02*
X832104Y419100D01*
X832104Y444500D02*
X818896Y444500D01*
X818896Y469900D02*
X832104Y469900D01*
X755904Y469900D02*
X742696Y469900D01*
X742696Y444500D02*
X755904Y444500D01*
X755904Y419100D02*
X742696Y419100D01*
X742696Y393700D02*
X755904Y393700D01*
X755904Y368300D02*
X742696Y368300D01*
X742696Y342900D02*
X755904Y342900D01*
X755904Y317500D02*
X742696Y317500D01*
X742696Y292100D02*
X755904Y292100D01*
X755904Y266700D02*
X742696Y266700D01*
X742696Y241300D02*
X755904Y241300D01*
D33*
X1219200Y-17780D02*
X1219200Y-33020D01*
X1193800Y-33020D02*
X1193800Y-17780D01*
X1168400Y-17780D02*
X1168400Y-33020D01*
X1143000Y-33020D02*
X1143000Y-17780D01*
X1117600Y-17780D02*
X1117600Y-33020D01*
X1092200Y-33020D02*
X1092200Y-17780D01*
X1066800Y-17780D02*
X1066800Y-33020D01*
X1041400Y-33020D02*
X1041400Y-17780D01*
X1016000Y-17780D02*
X1016000Y-33020D01*
X990600Y-33020D02*
X990600Y-17780D01*
X965200Y-17780D02*
X965200Y-33020D01*
X939800Y-33020D02*
X939800Y-17780D01*
X914400Y-17780D02*
X914400Y-33020D01*
X889000Y-33020D02*
X889000Y-17780D01*
X863600Y-17780D02*
X863600Y-33020D01*
X838200Y-33020D02*
X838200Y-17780D01*
X812800Y-17780D02*
X812800Y-33020D01*
X762000Y-33020D02*
X762000Y-17780D01*
X736600Y-17780D02*
X736600Y-33020D01*
X787400Y-33020D02*
X787400Y-17780D01*
X1727200Y-17780D02*
X1727200Y-33020D01*
X1701800Y-33020D02*
X1701800Y-17780D01*
X1676400Y-17780D02*
X1676400Y-33020D01*
X1651000Y-33020D02*
X1651000Y-17780D01*
X1625600Y-17780D02*
X1625600Y-33020D01*
X1600200Y-33020D02*
X1600200Y-17780D01*
X1574800Y-17780D02*
X1574800Y-33020D01*
X1549400Y-33020D02*
X1549400Y-17780D01*
X1524000Y-17780D02*
X1524000Y-33020D01*
X1498600Y-33020D02*
X1498600Y-17780D01*
X1473200Y-17780D02*
X1473200Y-33020D01*
X1447800Y-33020D02*
X1447800Y-17780D01*
X1422400Y-17780D02*
X1422400Y-33020D01*
X1397000Y-33020D02*
X1397000Y-17780D01*
X1371600Y-17780D02*
X1371600Y-33020D01*
X1346200Y-33020D02*
X1346200Y-17780D01*
X1320800Y-17780D02*
X1320800Y-33020D01*
X1295400Y-33020D02*
X1295400Y-17780D01*
X1270000Y-17780D02*
X1270000Y-33020D01*
X1244600Y-33020D02*
X1244600Y-17780D01*
D13*
X749300Y203200D03*
X774700Y203200D03*
D34*
X825100Y959160D02*
X825100Y971240D01*
X775100Y971240D02*
X775100Y959160D01*
D35*
X780161Y990219D03*
X780161Y940181D03*
X820039Y940181D03*
X820039Y990219D03*
D36*
X1016000Y1054100D03*
X914400Y1054100D03*
X990600Y1016000D03*
X889000Y1016000D03*
D37*
X1041400Y1003300D03*
D17*
X796925Y609600D02*
X796925Y584200D01*
X795020Y584200D01*
X795020Y609600D02*
X796925Y609600D01*
X796925Y615950D02*
X796925Y635000D01*
X795020Y635000D01*
X796925Y615950D02*
X795020Y609600D01*
X796925Y641350D02*
X796925Y660400D01*
X795020Y660400D01*
X796925Y641350D02*
X795020Y635000D01*
X800100Y666750D02*
X800100Y711200D01*
X825500Y711200D01*
X800100Y666750D02*
X795020Y660400D01*
D38*
X1028700Y495300D02*
X1069975Y495300D01*
X1143000Y92075D02*
X1212850Y22225D01*
X1349375Y22225D01*
X1397000Y-25400D01*
D39*
X1069975Y495300D03*
X1143000Y92075D03*
D38*
X1133475Y520700D02*
X1028700Y520700D01*
X1133475Y520700D02*
X1200150Y454025D01*
X1200150Y374650D01*
X1311275Y374650D01*
D39*
X1311275Y374650D03*
D38*
X1047750Y527050D02*
X1028700Y546100D01*
X1047750Y527050D02*
X1203325Y527050D01*
D39*
X1203325Y527050D03*
D38*
X1165225Y323850D02*
X1174750Y314325D01*
X1419225Y314325D01*
D39*
X1165225Y323850D03*
X1419225Y314325D03*
D38*
X1238250Y6350D02*
X1257300Y-12700D01*
X1257300Y-44450D01*
X1479550Y-44450D01*
X1498600Y-25400D01*
D39*
X1238250Y6350D03*
D38*
X1203325Y152400D02*
X1196975Y158750D01*
X1203325Y152400D02*
X1520825Y152400D01*
D39*
X1196975Y158750D03*
X1520825Y152400D03*
D38*
X1549400Y250825D02*
X1111250Y250825D01*
D39*
X1111250Y250825D03*
X1549400Y250825D03*
D38*
X1250950Y28575D02*
X1238250Y41275D01*
X1250950Y28575D02*
X1520825Y28575D01*
X1574800Y-25400D01*
D39*
X1238250Y41275D03*
D17*
X1225550Y190500D02*
X1181100Y190500D01*
X1225550Y190500D02*
X1270000Y190500D01*
X1231900Y279400D02*
X1155700Y279400D01*
X1143000Y1003300D02*
X1206500Y1003300D01*
X1143000Y1003300D02*
X1092200Y1003300D01*
X1079500Y469900D02*
X1149350Y400050D01*
X1079500Y469900D02*
X1066800Y469900D01*
D39*
X1225550Y190500D03*
X1149350Y400050D03*
D17*
X1460500Y1092200D02*
X1460500Y1149350D01*
X1638300Y1149350D01*
X1638300Y1150100D01*
D38*
X1212850Y123825D02*
X876300Y123825D01*
X1212850Y123825D02*
X1216025Y127000D01*
X1250950Y127000D01*
X1270000Y107950D01*
X1273175Y107950D01*
X1292225Y88900D01*
X1295400Y88900D01*
D39*
X876300Y123825D03*
D38*
X901700Y114300D02*
X908050Y107950D01*
X1184275Y107950D01*
X1222375Y69850D01*
X1273175Y69850D01*
X1279525Y76200D01*
X1285875Y76200D01*
X1292225Y69850D01*
X1298575Y69850D01*
X1317625Y88900D01*
X1320800Y88900D01*
D39*
X901700Y114300D03*
D38*
X965200Y381000D02*
X911225Y434975D01*
X965200Y381000D02*
X1139825Y381000D01*
X1171575Y349250D01*
X1330325Y349250D01*
D39*
X911225Y434975D03*
X1330325Y349250D03*
D38*
X981075Y279400D02*
X946150Y314325D01*
X981075Y279400D02*
X1050925Y279400D01*
X1069975Y298450D01*
X1222375Y298450D01*
X1225550Y301625D01*
X1327150Y301625D01*
X1362075Y266700D01*
X1457325Y266700D01*
D39*
X946150Y314325D03*
X1457325Y266700D03*
D38*
X889000Y508000D02*
X876300Y495300D01*
X889000Y508000D02*
X1044575Y508000D01*
X1130300Y161925D02*
X1149350Y142875D01*
X1244600Y142875D01*
X1273175Y114300D01*
X1276350Y114300D01*
X1282700Y107950D01*
X1400175Y107950D01*
X1409700Y98425D01*
X1409700Y69850D01*
X1454150Y69850D01*
X1473200Y88900D01*
D39*
X1044575Y508000D03*
X1130300Y161925D03*
D38*
X981075Y444500D02*
X876300Y444500D01*
X981075Y444500D02*
X1019175Y406400D01*
X1123950Y406400D01*
X1171575Y358775D01*
X1209675Y358775D01*
X1257300Y142875D02*
X1282700Y117475D01*
X1495425Y117475D01*
D39*
X1209675Y358775D03*
X1257300Y142875D03*
X1495425Y117475D03*
D38*
X882650Y704850D02*
X876300Y698500D01*
X882650Y704850D02*
X898525Y704850D01*
X952500Y758825D01*
X952500Y939800D01*
X1060450Y939800D01*
X1079500Y958850D01*
X1155700Y958850D01*
X1171575Y974725D01*
X1254125Y974725D01*
X1282700Y1003300D01*
X1009650Y654050D02*
X876300Y520700D01*
X1009650Y654050D02*
X1009650Y711200D01*
X1044575Y711200D01*
X1130300Y796925D01*
X1130300Y889000D01*
X1219200Y889000D01*
X1257300Y927100D01*
X882650Y679450D02*
X876300Y673100D01*
X882650Y679450D02*
X962025Y679450D01*
X1044575Y762000D01*
D39*
X1044575Y762000D03*
D38*
X911225Y631825D02*
X876300Y596900D01*
D39*
X911225Y631825D03*
D38*
X955675Y685800D02*
X1000125Y730250D01*
X857250Y685800D02*
X850900Y685800D01*
X857250Y685800D02*
X955675Y685800D01*
X850900Y685800D02*
X825500Y660400D01*
X1235075Y981075D02*
X1257300Y1003300D01*
X1235075Y981075D02*
X1165225Y981075D01*
X1149350Y965200D01*
X958850Y965200D01*
X895350Y901700D01*
X895350Y711200D01*
X866775Y711200D01*
X857250Y701675D01*
X857250Y685800D01*
D39*
X1000125Y730250D03*
D17*
X1130300Y1231900D02*
X1143000Y1244600D01*
X1181100Y1244600D01*
X1127125Y1225550D02*
X1022350Y1120775D01*
X781050Y1120775D01*
X762000Y1101725D01*
X762000Y1092200D01*
X1127125Y1225550D02*
X1130300Y1231900D01*
X1143000Y901700D02*
X1092200Y901700D01*
X1200150Y955675D02*
X1301750Y955675D01*
X1200150Y955675D02*
X1149350Y904875D01*
X1143000Y901700D01*
D39*
X1301750Y955675D03*
D38*
X1422400Y190500D02*
X1403350Y171450D01*
X1317625Y171450D01*
X1308100Y180975D01*
X1308100Y209550D01*
X1304925Y209550D01*
D39*
X1304925Y209550D03*
D38*
X1447800Y774700D02*
X1536700Y863600D01*
X1435100Y377825D02*
X1431925Y374650D01*
X1339850Y374650D01*
X1320800Y393700D01*
D39*
X1435100Y377825D03*
D38*
X1498600Y190500D02*
X1470025Y161925D01*
X1406525Y161925D01*
D39*
X1406525Y161925D03*
D38*
X1473200Y190500D02*
X1473200Y222250D01*
X1374775Y222250D01*
D39*
X1374775Y222250D03*
D38*
X1422400Y396875D02*
X1400175Y419100D01*
X1422400Y396875D02*
X1422400Y393700D01*
D39*
X1400175Y419100D03*
D38*
X1368425Y212725D02*
X1346200Y190500D01*
X1368425Y212725D02*
X1447800Y212725D01*
D39*
X1447800Y212725D03*
D17*
X1270000Y393700D02*
X1270000Y419100D01*
X1377950Y419100D01*
X1397000Y400050D01*
X1397000Y393700D01*
X1581150Y234950D02*
X1587500Y228600D01*
X1581150Y234950D02*
X1397000Y234950D01*
D39*
X1397000Y234950D03*
D38*
X1346200Y88900D02*
X1371600Y63500D01*
X1460500Y63500D01*
D39*
X1460500Y63500D03*
D17*
X1397000Y739775D02*
X1397000Y774700D01*
X1397000Y739775D02*
X1139825Y739775D01*
X1130300Y749300D01*
X1143000Y838200D02*
X1155700Y850900D01*
X1193800Y850900D01*
D38*
X876300Y266700D02*
X882650Y260350D01*
X1012825Y260350D01*
X1019175Y254000D01*
X1101725Y254000D01*
X1108075Y260350D01*
X1222375Y260350D01*
X1225550Y257175D01*
X1543050Y257175D01*
X1577975Y292100D01*
X1673225Y292100D01*
D39*
X1673225Y292100D03*
D38*
X876300Y292100D02*
X863600Y304800D01*
X815975Y304800D01*
X800100Y288925D01*
X800100Y101600D01*
X1181100Y101600D01*
X1231900Y50800D01*
X1482725Y50800D01*
X1501775Y69850D01*
X1600200Y69850D01*
X1612900Y469900D02*
X1612900Y520700D01*
X1701800Y520700D01*
X1714500Y533400D01*
D39*
X1600200Y69850D03*
X1612900Y469900D03*
D38*
X882650Y323850D02*
X876300Y317500D01*
X882650Y323850D02*
X1012825Y323850D01*
X1019175Y330200D01*
X1050925Y330200D01*
X1063625Y317500D01*
X1146175Y317500D01*
X1162050Y333375D01*
X1612900Y333375D01*
X1628775Y317500D01*
X1673225Y317500D01*
D39*
X1673225Y317500D03*
D38*
X879475Y339725D02*
X876300Y342900D01*
X879475Y339725D02*
X955675Y339725D01*
X958850Y314325D02*
X968375Y304800D01*
X1219200Y304800D01*
X1222375Y307975D01*
X1333500Y307975D01*
X1336675Y304800D01*
X1558925Y447675D02*
X1558925Y571500D01*
X1701800Y571500D01*
X1714500Y584200D01*
D39*
X955675Y339725D03*
X958850Y314325D03*
X1336675Y304800D03*
X1558925Y447675D03*
D38*
X1441450Y107950D02*
X1422400Y88900D01*
X1441450Y107950D02*
X1571625Y107950D01*
X1651000Y187325D01*
X1720850Y187325D01*
D39*
X1720850Y187325D03*
D38*
X1714500Y304800D02*
X1733550Y323850D01*
X1733550Y546100D01*
X1651000Y546100D01*
X1638300Y533400D01*
X1638300Y635000D02*
X1689100Y685800D01*
X1689100Y723900D01*
X1724025Y723900D01*
X1733550Y733425D01*
X1733550Y838200D01*
X1714500Y838200D01*
D17*
X1638300Y355600D02*
X1479550Y355600D01*
X1638300Y355600D02*
X1714500Y355600D01*
D39*
X1479550Y355600D03*
D17*
X1508125Y215900D02*
X1574800Y215900D01*
X1587500Y203200D01*
X1638300Y203200D01*
D39*
X1508125Y215900D03*
D17*
X1498600Y774700D02*
X1612900Y889000D01*
X1638300Y889000D01*
X1714500Y889000D01*
X1473200Y774700D02*
X1473200Y736600D01*
X1638300Y736600D01*
X1714500Y736600D01*
D38*
X1320800Y234950D02*
X1320800Y190500D01*
X1320800Y234950D02*
X1285875Y234950D01*
D39*
X1285875Y234950D03*
D38*
X914400Y152400D02*
X889000Y152400D01*
X914400Y152400D02*
X933450Y171450D01*
X1019175Y171450D01*
X1038225Y152400D01*
X1041400Y152400D01*
X1016000Y152400D02*
X990600Y152400D01*
X1028700Y241300D02*
X1066800Y241300D01*
X933450Y95250D02*
X914400Y76200D01*
X933450Y95250D02*
X996950Y95250D01*
X1016000Y76200D01*
X784225Y704850D02*
X784225Y723900D01*
X876300Y723900D01*
D39*
X784225Y704850D03*
D38*
X1003300Y838200D02*
X1003300Y889000D01*
X1273175Y968375D02*
X1308100Y1003300D01*
X1273175Y968375D02*
X1174750Y968375D01*
X1146175Y939800D01*
X1069975Y939800D01*
X1019175Y889000D01*
X1003300Y889000D01*
X996950Y889000D01*
X949325Y161925D02*
X939800Y152400D01*
X949325Y161925D02*
X977900Y161925D01*
X1663700Y431800D02*
X1714500Y482600D01*
X1663700Y431800D02*
X1558925Y431800D01*
X1495425Y368300D01*
X1362075Y368300D01*
X1333500Y339725D01*
X1098550Y339725D01*
X1095375Y342900D01*
X1079500Y342900D01*
X1066800Y330200D01*
D39*
X977900Y161925D03*
D38*
X844550Y590550D02*
X825500Y609600D01*
X844550Y590550D02*
X844550Y571500D01*
X739775Y571500D01*
X730250Y581025D01*
X730250Y762000D01*
X825500Y762000D01*
X838200Y774700D01*
X779780Y660400D02*
X749300Y660400D01*
X749300Y609600D02*
X779780Y609600D01*
X779780Y635000D02*
X749300Y635000D01*
X749300Y584200D02*
X779780Y584200D01*
X730250Y361950D02*
X749300Y342900D01*
X730250Y361950D02*
X730250Y482600D01*
X968375Y482600D02*
X1016000Y482600D01*
X968375Y482600D02*
X730250Y482600D01*
X1016000Y482600D02*
X1028700Y469900D01*
X968375Y466725D02*
X968375Y482600D01*
D39*
X968375Y466725D03*
D38*
X787400Y330200D02*
X749300Y292100D01*
X787400Y330200D02*
X1009650Y330200D01*
X1022350Y342900D01*
X1028700Y342900D01*
X762000Y355600D02*
X749300Y368300D01*
X762000Y355600D02*
X1016000Y355600D01*
X1028700Y368300D01*
X863600Y76200D02*
X863600Y12700D01*
X990600Y12700D01*
X1006475Y-3175D01*
X1079500Y-3175D02*
X1196975Y-3175D01*
X1079500Y-3175D02*
X1006475Y-3175D01*
X1196975Y-3175D02*
X1219200Y-25400D01*
X1295400Y190500D02*
X1295400Y225425D01*
X1111250Y225425D01*
X1079500Y0D02*
X1079500Y-3175D01*
D39*
X1111250Y225425D03*
X1079500Y0D03*
D38*
X749300Y419100D02*
X787400Y457200D01*
X803275Y457200D01*
D39*
X803275Y457200D03*
D38*
X787400Y63500D02*
X844550Y6350D01*
X984250Y6350D01*
X1016000Y-25400D01*
D39*
X787400Y63500D03*
D38*
X838200Y431800D02*
X825500Y444500D01*
X838200Y431800D02*
X885825Y431800D01*
X908050Y409575D01*
X952500Y60325D02*
X996950Y15875D01*
X1330325Y15875D01*
X1371600Y-25400D01*
D39*
X908050Y409575D03*
X952500Y60325D03*
D38*
X825500Y133350D02*
X825500Y241300D01*
X825500Y133350D02*
X1177925Y133350D01*
D39*
X1177925Y133350D03*
D38*
X831850Y260350D02*
X825500Y266700D01*
X831850Y260350D02*
X860425Y260350D01*
X866775Y254000D01*
X993775Y254000D01*
X1031875Y215900D01*
X1270000Y215900D01*
D39*
X1270000Y215900D03*
D38*
X825500Y292100D02*
X806450Y273050D01*
X806450Y254000D01*
X841375Y254000D01*
X898525Y196850D01*
X1057275Y196850D01*
X1063625Y190500D01*
X1162050Y190500D01*
X1174750Y177800D01*
X1250950Y177800D01*
X1266825Y161925D01*
D39*
X1266825Y161925D03*
D38*
X904875Y-6350D02*
X901700Y-9525D01*
X904875Y-6350D02*
X946150Y-6350D01*
X965200Y-25400D01*
D39*
X901700Y-9525D03*
D38*
X838200Y406400D02*
X825500Y419100D01*
X838200Y406400D02*
X898525Y406400D01*
X927100Y377825D01*
D39*
X927100Y377825D03*
D38*
X752475Y466725D02*
X749300Y469900D01*
X752475Y466725D02*
X806450Y466725D01*
X815975Y457200D01*
X1060450Y457200D01*
X1076325Y441325D01*
D39*
X1076325Y441325D03*
D38*
X749300Y317500D02*
X730250Y298450D01*
X730250Y0D01*
X965200Y0D01*
X977900Y-12700D01*
X977900Y-44450D01*
X1073150Y-44450D01*
X1092200Y-25400D01*
D17*
X1155700Y155575D02*
X1155700Y177800D01*
X1031875Y177800D01*
X1025525Y184150D01*
X879475Y184150D01*
D39*
X1155700Y155575D03*
X879475Y184150D03*
M02*
