M48
;GenerationSoftware,Autodesk,EAGLE,9.6.1*%
;CreationDate,2023-06-14T03:13:46Z*%
FMAT,2
ICI,OFF
METRIC,TZ,000.000
T12C0.610
T11C0.700
T10C0.800
T9C0.813
T8C0.914
T7C1.016
T6C1.118
T5C1.194
T4C2.540
T3C2.667
T2C3.175
T1C3.302
%
G90
M71
T1
X78740Y124206
X148590Y124206
T2
X163830Y115010
T3
X159030Y118110
X163830Y121110
T4
X121920Y77470
X154940Y77470
X121920Y39370
X154940Y39370
T5
X82004Y94018
X82004Y99022
X78016Y94018
X78016Y99022
T6
X171450Y3810
X123190Y27940
X88900Y101600
X99060Y101600
X91440Y105410
X101600Y105410
X158750Y3810
X151130Y109220
X148590Y109220
X146050Y109220
X137160Y109220
X106680Y109220
X153670Y27940
X76200Y109220
X78740Y109220
X81280Y109220
T7
X167640Y-2540
X170180Y-2540
X172720Y-2540
X78740Y-2540
X73660Y-2540
X76200Y-2540
X81280Y-2540
X83820Y-2540
X86360Y-2540
X88900Y-2540
X91440Y-2540
X93980Y-2540
X96520Y-2540
X99060Y-2540
X101600Y-2540
X104140Y-2540
X106680Y-2540
X109220Y-2540
X111760Y-2540
X114300Y-2540
X116840Y-2540
X119380Y-2540
X121920Y-2540
X115570Y27940
X139700Y-2540
X124460Y-2540
X127000Y-2540
X129540Y-2540
X132080Y-2540
X134620Y-2540
X137160Y-2540
X142240Y-2540
X144780Y-2540
X147320Y-2540
X104140Y100330
X149860Y-2540
X152400Y-2540
X154940Y-2540
X157480Y-2540
X160020Y-2540
X162560Y-2540
X165100Y-2540
T8
X153670Y86360
X133350Y88900
X143510Y88900
X151130Y86360
X135890Y88900
X125730Y88900
T9
X129540Y8890
X74930Y20320
X77470Y20320
X74930Y44450
X171450Y73660
X168910Y93980
X168910Y96520
X74930Y105410
X80010Y105410
X83820Y105410
X88900Y105410
X102870Y24130
X102870Y26670
X102870Y39370
X102870Y41910
X102870Y29210
X102870Y31750
X102870Y36830
X102870Y34290
X102870Y44450
X102870Y46990
X102870Y49530
X102870Y52070
X102870Y54610
X102870Y57150
X102870Y59690
X102870Y62230
X102870Y64770
X102870Y67310
X102870Y69850
X102870Y72390
X87630Y72390
X87630Y69850
X87630Y67310
X87630Y64770
X87630Y62230
X87630Y59690
X87630Y57150
X87630Y54610
X87630Y52070
X87630Y49530
X87630Y46990
X87630Y44450
X87630Y41910
X87630Y39370
X87630Y36830
X87630Y34290
X87630Y31750
X87630Y29210
X87630Y26670
X87630Y24130
X127000Y8890
X132080Y8890
X134620Y8890
X137160Y8890
X139700Y8890
X142240Y8890
X144780Y8890
X147320Y8890
X149860Y8890
X152400Y8890
X152400Y19050
X149860Y19050
X147320Y19050
X144780Y19050
X142240Y19050
X139700Y19050
X137160Y19050
X134620Y19050
X132080Y19050
X129540Y19050
X127000Y19050
X120650Y92710
X123190Y92710
X135890Y92710
X138430Y92710
X125730Y92710
X128270Y92710
X133350Y92710
X130810Y92710
X140970Y92710
X143510Y92710
X143510Y100330
X140970Y100330
X138430Y100330
X135890Y100330
X133350Y100330
X130810Y100330
X128270Y100330
X125730Y100330
X123190Y100330
X120650Y100330
X91440Y76200
X91440Y83820
X97790Y83820
X97790Y76200
X149860Y5080
X152400Y5080
X114300Y90170
X114300Y92710
X110490Y78740
X110490Y86360
X127000Y39370
X129540Y39370
X142240Y39370
X144780Y39370
X132080Y39370
X134620Y39370
X139700Y39370
X137160Y39370
X147320Y39370
X149860Y39370
X149860Y77470
X147320Y77470
X144780Y77470
X142240Y77470
X139700Y77470
X137160Y77470
X134620Y77470
X132080Y77470
X129540Y77470
X127000Y77470
X158750Y30480
X158750Y22860
X114300Y83820
X114300Y86360
X110490Y74930
X110490Y67310
X113030Y74930
X113030Y67310
X125730Y85090
X128270Y85090
X130810Y85090
X133350Y85090
X135890Y85090
X138430Y85090
X140970Y85090
X143510Y85090
X171450Y45720
X171450Y48260
X171450Y60960
X171450Y63500
X171450Y50800
X171450Y53340
X171450Y58420
X171450Y55880
X163830Y63500
X163830Y60960
X163830Y58420
X163830Y55880
X163830Y53340
X163830Y50800
X163830Y48260
X163830Y45720
X171450Y20320
X171450Y22860
X171450Y35560
X163830Y35560
X171450Y25400
X171450Y27940
X171450Y33020
X171450Y30480
X163830Y33020
X163830Y30480
X163830Y27940
X163830Y25400
X163830Y22860
X163830Y20320
X82550Y58420
X171450Y76200
X171450Y88900
X163830Y88900
X171450Y78740
X171450Y81280
X171450Y86360
X171450Y83820
X163830Y86360
X163830Y83820
X163830Y81280
X163830Y78740
X163830Y76200
X163830Y73660
X102870Y76200
X102870Y83820
X86360Y7620
X88900Y7620
X91440Y7620
X93980Y7620
X93980Y15240
X91440Y15240
X88900Y15240
X86360Y15240
X104140Y15240
X104140Y7620
X99060Y7620
X99060Y15240
X100330Y83820
X100330Y76200
X101600Y15240
X101600Y7620
X106680Y7620
X106680Y15240
X109220Y7620
X109220Y15240
X101600Y3810
X109220Y3810
X106680Y20320
X109220Y20320
X106680Y24130
X109220Y24130
X106680Y39370
X106680Y46990
X96520Y88900
X91440Y88900
X93980Y88900
X101600Y90170
X99695Y88900
X101600Y87630
X106680Y33020
X109220Y33020
X106680Y27940
X109220Y27940
X163830Y69850
X163830Y67310
X163830Y41910
X163830Y39370
X170180Y67310
X170180Y69850
X170180Y39370
X170180Y41910
X160020Y93980
X162560Y93980
X160020Y16510
X157480Y16510
X160020Y8890
X157480Y8890
X90170Y3810
X92710Y3810
X118110Y16510
X118110Y19050
X128270Y6350
X130810Y6350
X121920Y11430
X121920Y8890
X113030Y57150
X110490Y57150
X110490Y50800
X113030Y50800
X110490Y63500
X113030Y63500
X109220Y92710
X109220Y90170
X114300Y97790
X114300Y100330
X109220Y100330
X109220Y97790
X102870Y97790
X102870Y95250
X97790Y97790
X97790Y95250
X119380Y87630
X119380Y85090
X163830Y15240
X163830Y12700
X168910Y15240
X171450Y15240
X162560Y99060
X160020Y99060
X113030Y123190
X110490Y123190
X105410Y123190
X102870Y123190
X102870Y107950
X102870Y115570
X99060Y107950
X99060Y115570
X170180Y102870
X170180Y105410
X146050Y105410
X140970Y105410
X151130Y105410
X156210Y105410
X82550Y55880
X82550Y71120
X74930Y71120
X82550Y60960
X82550Y63500
X82550Y68580
X82550Y66040
X74930Y68580
X74930Y66040
X74930Y63500
X74930Y60960
X74930Y58420
X74930Y55880
X76200Y85090
X76200Y77470
X83820Y77470
X83820Y85090
X90170Y95250
X90170Y97790
X74930Y52070
X77470Y52070
X120650Y123190
X123190Y123190
X130810Y123190
X133350Y123190
X135890Y123190
X125730Y123190
X138430Y123190
X162560Y106680
X162560Y109220
X97790Y123190
X95250Y123190
X90170Y123190
X87630Y123190
X95250Y115570
X95250Y107950
X91440Y115570
X91440Y107950
X82550Y24130
X82550Y26670
X82550Y29210
X82550Y31750
X82550Y34290
X82550Y36830
X82550Y39370
X82550Y41910
X82550Y44450
X82550Y46990
X74930Y46990
X74930Y41910
X74930Y39370
X74930Y36830
X74930Y34290
X74930Y31750
X74930Y29210
X74930Y26670
X74930Y24130
T10
X118110Y121920
X118110Y124460
X118110Y119380
T11
X77510Y96520
X82510Y96520
T12
X120332Y52705
X92710Y37783
X80328Y45720
X126682Y16192
X127000Y21590
X117792Y13335
X115570Y15557
X107632Y44132
X90170Y-952
X95250Y6032
X106997Y49530
X90805Y40958
X107950Y0
X111125Y22542
X130810Y81280
X127000Y82550
X96837Y46672
X97790Y16192
X78423Y70485
X128587Y23495
X150813Y21590
X147955Y35560
X172085Y18733
X155893Y44767
X133668Y30480
X95885Y31432
X95567Y33973
X167323Y31750
X161290Y46990
X160020Y6985
X167323Y29210
X146050Y6350
X139700Y23495
X144780Y21273
X140018Y41910
X137478Y22225
X140653Y16192
X143510Y37783
X130492Y20955
X130175Y95567
X100012Y73025
X91122Y63182
X104457Y76200
X149543Y11747
X125730Y14287
X120967Y35878
X113030Y16192
X104457Y50800
X145733Y26670
X94615Y31432
X114300Y9208
X91122Y43498
X90170Y11430
X87630Y12382
X114935Y40005
X122555Y19050
X135890Y81280
X78740Y6350
X131128Y37465
X133033Y34925
X123825Y4128
X154940Y25082
X111125Y25082
X152083Y15240
X119697Y15875
X123825Y635
X141923Y31432
X116522Y32385
X87947Y18415
M30